<svg id="Layer_1" data-name="Layer 1" xmlns="http://www.w3.org/2000/svg" viewBox="0 0 40 40">
    <defs>
        <style>.cls-1{fill:red;}.cls-2{fill:#fff;}</style>
    </defs>
    <title>gplus</title>
    <path class="cls-1" d="M40,37a3,3,0,0,1-3,3H3a3,3,0,0,1-3-3V3A3.08,3.08,0,0,1,3,0H37a3.08,3.08,0,0,1,3,3Z"/>
    <path class="cls-2"
          d="M19,6.3a2.23,2.23,0,0,1,1.2.7,10.63,10.63,0,0,1,.9,1.1,5.23,5.23,0,0,1,.7,1.5,6.45,6.45,0,0,1,.3,2,5.71,5.71,0,0,1-.9,3.4,10.63,10.63,0,0,1-.9,1.1,12,12,0,0,0-1.2,1.1,5.72,5.72,0,0,0-.7.8,2.1,2.1,0,0,0-.4,1.1,1.16,1.16,0,0,0,.4,1,4.35,4.35,0,0,0,.6.7l1.4,1.1a12,12,0,0,1,2.2,2.3,5.39,5.39,0,0,1,.9,3.3,6.74,6.74,0,0,1-2.6,5.1c-1.8,1.5-4.3,2.3-7.7,2.4Q9,35,6.9,33.2a4.85,4.85,0,0,1-2.1-3.9,5.29,5.29,0,0,1,.7-2.5A8,8,0,0,1,8,24.6a14.38,14.38,0,0,1,4.1-1.5,26,26,0,0,1,3.5-.3c-.3-.4-.5-.8-.8-1.2a2.41,2.41,0,0,1-.4-1.5,2.48,2.48,0,0,1,.1-.9,1.85,1.85,0,0,0,.2-.7,6.15,6.15,0,0,1-1.3.1,6.32,6.32,0,0,1-4.9-2,5.73,5.73,0,0,1-1.7-4.3A7,7,0,0,1,9.3,7a9,9,0,0,1,3.5-1.8A9.89,9.89,0,0,1,16.2,5h8L21.7,6H19Zm1.9,22.9a3.54,3.54,0,0,0-1-2.6A22.25,22.25,0,0,0,16.6,24h-.9a13.61,13.61,0,0,0-1.6.1,11.36,11.36,0,0,0-2.5.6c-.2.1-.5.2-.9.4a6.73,6.73,0,0,0-1.1.7A2.73,2.73,0,0,0,8.7,27a3.42,3.42,0,0,0-.4,1.8,4.08,4.08,0,0,0,1.9,3.5,8.14,8.14,0,0,0,4.9,1.4,6.68,6.68,0,0,0,4.3-1.2A4.59,4.59,0,0,0,20.9,29.2ZM15.3,17.5a3.63,3.63,0,0,0,2.6-1.1,4.59,4.59,0,0,0,.7-1.6,6.64,6.64,0,0,0,.1-1.3,10.65,10.65,0,0,0-1.2-4.8A6.55,6.55,0,0,0,16,6.9a3.41,3.41,0,0,0-2.2-.7,3.51,3.51,0,0,0-2.7,1.3,5.29,5.29,0,0,0-.9,3A9.15,9.15,0,0,0,11.5,15a5.48,5.48,0,0,0,1.6,1.8A3.6,3.6,0,0,0,15.3,17.5Z"/>
    <polygon class="cls-2" points="35 9 31 9 31 5 29 5 29 9 25 9 25 11 29 11 29 15 31 15 31 11 35 11 35 9"/>
</svg>