<?xml version="1.0" encoding="utf-8"?>
<!-- Generator: Adobe Illustrator 21.0.0, SVG Export Plug-In . SVG Version: 6.00 Build 0)  -->
<svg version="1.1" id="Calque_1" xmlns="http://www.w3.org/2000/svg"  x="0px" y="0px"
	 viewBox="0 0 1017.5 1016.8" style="enable-background:new 0 0 1017.5 1016.8;" xml:space="preserve">
<style type="text/css">
	.st0{fill:#4875B4;}
	.st1{fill:#FFFFFF;}
</style>
<title>linkedin</title>
<path class="st0" d="M1018,508.7c0,144.1,0,288.2,0,432.3c0,19.1-5.3,36.1-17.9,50.6c-14.7,16.9-33.6,25.9-55.8,25.9
	c-290.4,0.2-580.7,0.2-871.1,0c-40.1,0-69-31-72.4-64.4c-0.5-4.1-0.8-8.3-0.8-12.5C0,652.3,0,364,0,75.6C0,39.3,21.1,11.3,55.4,2.4
	c6.3-1.6,12.7-2.5,19.2-2.6c289.5-0.1,579.1-0.2,868.6-0.1c35.8,0,65.7,23.7,73.2,58.3c1.2,6,1.7,12.2,1.6,18.3
	C1018,220.5,1018,364.6,1018,508.7z M868,866.9v-6.6c0-31.4,0.1-62.7,0-94.1c-0.3-68.5-0.4-137-1.2-205.6c-0.2-16-2.5-32.1-5-47.9
	c-4-25.7-11.2-50.5-24.6-73.1c-16.7-28.3-40.5-47.9-71.4-59c-27.7-9.9-56.3-12.9-85.5-12.1c-15.4,0.3-30.7,2.7-45.5,7
	c-37.5,11-67.4,32.2-88.6,65.2c-1.3,2-2.4,4-3.6,6l-1.3-0.3c-0.1-1.7-0.2-3.5-0.2-5.2c0-18.2,0-36.4,0-54.5c0-6.7-0.1-6.8-6.6-6.8
	c-44.2,0-88.3,0-132.5,0c-3.6,0-6.5,2.9-6.5,6.5c0,158.1,0,316.2-0.1,474.3c0,5.2,1.6,6.3,6.5,6.3c46-0.2,92-0.1,138-0.1
	c7.2,0,7.2,0,7.2-7.3c0.3-85.4,0.6-170.8,1-256.1c0.1-17,3.2-33.8,9-49.7c8.6-23.8,24.1-40.7,48.9-47.8c14.2-4.1,29.1-5.3,43.8-3.6
	c25.7,2.9,44.1,15.5,54.5,39.2c8,18.2,10.8,37.7,10.9,57.3c0.4,87.1,0.2,174.1,0.3,261.2c0,6.8,0,6.8,6.8,6.8L868,866.9L868,866.9z
	 M150,866.8h6c46.5,0,93.1-0.1,139.6,0.1c5.4,0,6.2-1.9,6.2-6.6c-0.1-157.8-0.1-315.5-0.1-473.3c0-7.2,0-7.2-7.3-7.2H157.4
	c-7.4,0-7.4,0-7.4,7.3c0,157.6,0,315.2,0,472.8C150,861.9,150,863.8,150,866.8L150,866.8z M138.3,227.1
	c-0.4,48.8,38.1,88.8,87.9,88.5c50.3-0.3,88.2-38.5,88.5-88.2c0.3-49.2-39.7-88-88.4-88.3C178.2,138.8,137.5,179.3,138.3,227.1
	L138.3,227.1z"/>
<path class="st1" d="M868.3,866.8H722.4c-6.8,0-6.8,0-6.8-6.8c0-87.1,0.1-174.1-0.3-261.2c-0.1-19.6-2.9-39.1-10.9-57.3
	c-10.4-23.7-28.9-36.4-54.6-39.2c-14.7-1.7-29.6-0.5-43.8,3.6c-24.8,7.1-40.3,24-48.9,47.8c-5.8,15.9-8.9,32.7-9,49.7
	c-0.5,85.4-0.8,170.8-1,256.1c0,7.3,0,7.3-7.2,7.3c-46,0-92.1-0.1-138.1,0.1c-4.9,0-6.6-1.1-6.5-6.3c0.1-158.1,0.2-316.2,0.1-474.3
	c0-6.3,0.2-6.5,6.5-6.5c44.2,0,88.4,0,132.6,0c6.5,0,6.6,0.1,6.6,6.8c0,18.2,0,36.4,0,54.5c0,1.7,0.2,3.5,0.3,5.2l1.3,0.3
	c1.2-2,2.3-4,3.6-6c21.3-33,51.2-54.2,88.7-65.2c14.8-4.3,30.1-6.7,45.6-7c29.3-0.8,57.9,2.2,85.6,12.1c31,11,54.8,30.7,71.5,59
	c13.4,22.6,20.6,47.4,24.6,73.1c2.5,15.9,4.8,31.9,5,47.9c0.9,68.5,1,137,1.2,205.6c0.1,31.4,0,62.7,0,94.1
	C868.3,862.1,868.3,864.1,868.3,866.8z"/>
<path class="st1" d="M150,866.8v-6.9c0-157.6,0-315.2,0-472.8c0-7.3,0-7.3,7.4-7.3h137.1c7.3,0,7.3,0,7.3,7.2
	c0,157.8,0,315.5,0.1,473.3c0,4.7-0.9,6.6-6.2,6.6c-46.5-0.2-93.1-0.1-139.6-0.1H150z"/>
<path class="st1" d="M138.3,227.1c-0.8-47.8,39.9-88.3,88-88c48.7,0.3,88.7,39.1,88.4,88.3c-0.3,49.7-38.2,87.9-88.5,88.2
	C176.4,315.9,137.9,275.9,138.3,227.1z"/>
</svg>
