<svg id="svg63282" xmlns="http://www.w3.org/2000/svg" viewBox="0 0 885.83 598.95">
    <defs>
        <style>
            .cls-1{fill:#363567;}.cls-2{fill:#e3b837;}.cls-3{fill:none;stroke:#e3b837;stroke-width:0.94px;}.cls-4{fill:#be002e;}.cls-5{fill:#fff;}
        </style>
    </defs>
    <title>mastercard</title>
    <g id="layer1">
        <g id="g63359">
            <path id="path58300" class="cls-1" d="M886,599V0H0V599Z"/>
            <path id="path58344" class="cls-2"
                  d="M445.47,460.31a211.21,211.21,0,0,0,142.32,54.88c117.11,0,212-94.92,212-212s-94.92-212-212-212A212,212,0,0,0,445.47,460.31"/>
            <path id="path58346" class="cls-2"
                  d="M778,421h.3a2.24,2.24,0,0,0,.79-.16.74.74,0,0,0,0-1.31c-.13-.13-.53-.13-.79-.52H778Zm0,3h-2v-6h2.61a2.58,2.58,0,0,1,1.43.26,1.86,1.86,0,0,1,.78,1.57,1.69,1.69,0,0,1-1,1.57L781,424h-1.48l-.92-2H778Zm.43,2.61a5.25,5.25,0,1,0-5.25-5.25,5.27,5.27,0,0,0,5.25,5.25m-6.83-5.25a6.83,6.83,0,1,1,6.83,6.83,6.78,6.78,0,0,1-6.83-6.83"/>
            <path id="path58348" class="cls-2" d="M445.47,460.31a212,212,0,0,1,0-314.31"/>
            <path id="path58350" class="cls-3" d="M445.47,460.31a212,212,0,0,1,0-314.31"/>
            <path id="path58352" class="cls-4"
                  d="M514,280.4A210.66,210.66,0,0,0,510.33,258H380.55c1.67-7.46,3.73-14.8,6-22H504.07a182.2,182.2,0,0,0-8.75-22H395.56a236.79,236.79,0,0,1,12.51-23h74.79A207.33,207.33,0,0,0,467,169H423.85a203,203,0,0,1,21.37-22.42A210.86,210.86,0,0,0,307,91.78C183.36,89.55,85.39,190.9,91.68,314.4c5.7,111.85,98.17,200.77,211.44,200.77a210.88,210.88,0,0,0,142.1-54.8A215.93,215.93,0,0,0,466.59,438H423.91a207.37,207.37,0,0,1-15.82-22h74.79a236.62,236.62,0,0,0,12.51-23H395.62a218.17,218.17,0,0,1-8.88-22H504.16a189.21,189.21,0,0,0,6.17-22.45A211.23,211.23,0,0,0,514,281.15"/>
            <path id="path58354" class="cls-5"
                  d="M778,352h.3c.26-.09.53,0,.79-.09a1.14,1.14,0,0,0,.39-.79c0-.26-.13-.53-.39-.53-.13-.26-.53-.13-.79.4H778Zm0,3h-2v-6h2.67a2.64,2.64,0,0,1,1.47.27,1.67,1.67,0,0,1,.8,1.47,1.61,1.61,0,0,1-1.07,1.6l1.2,2.67h-1.59l-.92-2H778Zm.43,2.55a5.19,5.19,0,1,0-5.25-5.12,5.24,5.24,0,0,0,5.25,5.12m-6.83-5.12a6.83,6.83,0,1,1,6.83,6.83,6.89,6.89,0,0,1-6.83-6.83"/>
            <path id="path58356"
                  d="M373.37,364.19c-7.08,2-12.06,2.88-17.3,2.88-10.75,0-17.43-6.82-17.43-19.14a56.13,56.13,0,0,1,.66-7.86l1.44-8.52,1-6.95,10-59.64h22.18l-2.63,13h13.78l-3.27,22H367.86L362,335.61a25,25,0,0,0-.39,3.67c0,4.46,2.36,6.42,7.86,6.42a29.69,29.69,0,0,0,6.95-.79Z"/>
            <path id="path58358"
                  d="M430.77,311.08c.13-1.84.13-3.41.13-4.46,0-7.09-3.94-11.29-10.9-11.29-7.22,0-12.47,5.65-14.57,15.62Zm13.65,52.27a80.34,80.34,0,0,1-23.5,3.55c-24.68,0-39.13-13.39-39.13-39.13,0-30.07,16.94-52.12,40.18-52.12,18.91,0,31,12.34,31,31.77A94.55,94.55,0,0,1,450.2,329H404.38a24.57,24.57,0,0,0-.13,2.76c0,10.11,6.83,15.36,20.09,15.36a54.69,54.69,0,0,0,23.89-5.51Z"/>
            <path id="path58360"
                  d="M198.15,366H175l13.3-83-29.5,83H143l-2-82.58L127.16,366H104.77l18-108H156l.92,66.91L179.31,258H215.8Z"/>
            <path id="path58362"
                  d="M271.12,366H251.29l.39-9.06c-5,6.7-11.82,10.5-24.16,10.5-11.16,0-20.48-9.72-20.48-23.89a44.33,44.33,0,0,1,1.71-11.42c3.68-13.39,17.33-21.93,38.21-22.32a93.8,93.8,0,0,1,10.11.39,18.7,18.7,0,0,0,.92-5.65c0-5.78-4.73-7.62-15.49-7.62a70.2,70.2,0,0,0-19,2.63l-3.28.92-1.31.26L222,281.14c10.77-3.28,18.38-4.73,26.78-4.73,19.83,0,30.33,8.93,30.33,25.73a79,79,0,0,1-1.18,17.33l-4.73,31-.92,5.65-.53,4.33-.39,3ZM253,326.52a35.85,35.85,0,0,0-4.6-.39c-13,0-19.56,5-19.56,13.26,0,5.51,3.15,8.93,8.27,8.93,11,0,15.49-8.93,15.89-21.79"/>
            <path id="path58364"
                  d="M555.1,278.74c6.43,0,12.47,1.71,20.61,5.91l3.81-23.37c-2.1-.79-2.63-1-5.65-2.1l-9.45-2.36a39.21,39.21,0,0,0-10.24-1.18c-11.42,0-18.12.13-25.08,4.46a60.14,60.14,0,0,0-13.65,11.42l-2.76-.79-23.5,16.67,1.18-9.45H465.91l-14,87h23.1l8.38-47s3.27-6.41,4.71-8.38c4.19-5.76,8-5.76,12.83-5.63h1.61a130.4,130.4,0,0,0-1.05,16.67c0,28.62,16.28,46.35,41.09,46.35,6.3,0,11.82-.79,20.22-3l4.07-24.55c-7.61,3.68-13.79,5.51-19.56,5.51-13.39,0-21.4-9.85-21.4-26.26,0-23.63,11.95-40.31,29.15-40.31"/>
            <path id="path58366"
                  d="M721.58,344.9c-7.75,0-11.82-5.78-11.82-17.33,0-17.2,7.48-29.41,17.86-29.41,8,0,12.21,6,12.21,17.2,0,17.33-7.48,29.54-18.25,29.54m27.92-87-5.14,30.82c-5.53-8.3-12.12-12.25-21.07-12.25-12.12,0-23.31,6.85-30.29,19.89v-.25l-14.64-8.71,1.06-9.5H655l-14.12,88H664l7.64-47.28s5.93-6.59,7.38-8.56a12.88,12.88,0,0,1,10.27-5.53,77.28,77.28,0,0,0-4.21,26.08c0,21.86,11.46,36.35,28.32,36.35,8.43,0,15-2.9,21.34-9.75L733.57,366h21.86l17.52-108Z"/>
            <path id="path58368"
                  d="M633.75,366H613.92l.39-9.06c-5,6.7-11.82,10.5-24.16,10.5-11,0-21.27-9.58-21.14-24,.13-20.74,15.75-33.61,40.57-33.61a93.8,93.8,0,0,1,10.11.39,18.69,18.69,0,0,0,.92-5.65c0-5.78-4.73-7.62-15.49-7.62a70.19,70.19,0,0,0-19,2.63l-3.15.92-1.44.26,3.28-19.56c10.77-3.28,18.25-4.73,26.65-4.73,19.82,0,30.2,8.93,30.2,25.73,0,4.33.53,7.62-1.05,17.33l-4.73,31-.79,5.65-.66,4.33-.39,3Zm-18.12-39.43a34.07,34.07,0,0,0-4.6-.39c-13,0-19.56,5-19.56,13.26,0,5.51,3.15,8.93,8.27,8.93,11,0,15.49-8.93,15.89-21.79"/>
            <path id="path58370"
                  d="M319.17,296.72A133.45,133.45,0,0,1,336.5,298l3.15-20.22a176.56,176.56,0,0,0-20.48-1.71c-25.73,0-34.27,13.65-34.27,29.8,0,10.37,5.12,18.25,17.2,24,9.32,4.33,10.9,5.12,10.9,9.06,0,5.51-4.73,8.53-13.79,8.53a65.15,65.15,0,0,1-20.61-3.41L276,364.2l.53.13,4.2.92c1.31.26,3.41.53,6,.79,5.38.53,10.11.79,13,.79,25.6,0,36.11-9.85,36.11-29.15,0-11.95-5.65-19-17.2-24.29-9.72-4.46-10.77-5.12-10.77-9.19s4.2-7.48,11.29-7.48"/>
            <path id="path58372" class="cls-5"
                  d="M585.69,254.44,582,277.81c-8.27-4.07-14.18-5.78-20.61-5.78-17.2,0-29.28,16.54-29.28,40.31,0,16.28,8.14,26.13,21.53,26.13,5.65,0,11.95-1.71,19.56-5.51l-4.07,24.55c-8.53,2.36-13.92,3.15-20.35,3.15-24.81,0-40.18-17.86-40.18-46.48,0-38.47,21.27-65.25,51.73-65.25A47.64,47.64,0,0,1,570.73,250l9.45,2.36c2.89,1.05,3.55,1.31,5.51,2.1"/>
            <path id="path58374" class="cls-5"
                  d="M511.64,271.17a12,12,0,0,0-2.22-.13c-7.58,0-11.76,3.79-18.81,14.11l2-13.19H471.93l-14,87h22.86c8.23-53.17,10.45-62.44,21.42-62.44a7.5,7.5,0,0,1,1.57.13,87.39,87.39,0,0,1,8.75-25.21Z"/>
            <path id="path58376" class="cls-5"
                  d="M379,356.57a51.94,51.94,0,0,1-16.28,2.74c-11.72,0-18.11-6.64-18.11-19a55.79,55.79,0,0,1,.65-7.82l1.43-8.47,1-6.77,9.9-59.27h22.8l-2.63,13h11.8l-3.11,21H374.62l-6,36.21a23.52,23.52,0,0,0-.39,3.52c0,4.56,2.34,6.51,7.69,6.51a16.7,16.7,0,0,0,6.25-.91Z"/>
            <path id="path58378" class="cls-5"
                  d="M290.81,298.82c0,11,5.38,18.64,17.46,24.42,9.32,4.33,10.77,5.65,10.77,9.58,0,5.51-4.07,8-13.13,8a61.36,61.36,0,0,1-20.61-3.55l-3.15,20.22.92.26,4.33.79q2,.39,5.91.79c5.51.53,9.72.79,12.74.79,24.29,0,35.45-9.32,35.45-29.28,0-11.95-4.73-19-16.15-24.29-9.72-4.46-10.77-5.38-10.77-9.45,0-4.73,3.81-7.22,11.16-7.22a132.35,132.35,0,0,1,16.54,1.31L345.56,271a159.52,159.52,0,0,0-20.22-1.71c-25.73,0-34.66,13.52-34.53,29.54"/>
            <path id="path58380" class="cls-5"
                  d="M727.49,338.08c10.77,0,18.25-12.08,18.25-29.41,0-11.16-4.2-17.2-12.21-17.2-10.37,0-17.86,12.21-17.86,29.41,0,11.42,3.94,17.2,11.82,17.2M761.61,359H739.72l1.19-8.57c-6.46,6.73-12.92,9.76-21.49,9.76-16.75,0-27.82-14.51-27.82-36.53,0-29.14,17.14-53.8,37.58-53.8,9,0,15.82,3.69,22.15,12l5-30.86h22.81Z"/>
            <path id="path58382" class="cls-5"
                  d="M436.68,305c.13-1.84.13-3.28.13-4.46,0-7.09-4.07-11.16-10.9-11.16-7.35,0-12.47,5.51-14.7,15.62Zm12.87,52.4A80.51,80.51,0,0,1,425,360.89a38.51,38.51,0,0,1-38.18-37.35c-.74-30.89,16.55-54,40.28-54,18.91,0,31,12.34,31,31.77,0,6.43-.79,12.74-2.76,21.66H409.5c-.13,1.31-.26,2-.26,2.76,0,10.11,6.83,15.23,20.22,15.23a54.69,54.69,0,0,0,23.9-5.51Z"/>
            <path id="path58384" class="cls-5"
                  d="M203.41,359H180.33l13.19-83.08L164,359H148.29l-2-82.55-14,82.55H110.7l18.07-108H162l.92,66.86L185.47,251h35.87Z"/>
            <path id="path58386" class="cls-5"
                  d="M277,359H257.86l.53-9.06c-5.91,7.22-13.65,10.63-24.16,10.63-12.47,0-21-9.85-21-23.9,0-21.4,14.84-33.74,40.31-33.74a88,88,0,0,1,9.45.66,25.27,25.27,0,0,0,.92-5.65c0-5.91-4.07-8-14.84-8a70.4,70.4,0,0,0-19,2.49l-3.15.92-2.1.53,3.15-19.69c11.55-3.28,19-4.6,27.57-4.6,19.69,0,30.2,8.8,30.2,25.6,0,4.33-.39,7.62-1.84,17.33L279,343.59l-.79,5.51-.53,4.46-.39,3ZM260.22,319.7a38,38,0,0,0-5.12-.26c-13,0-19.69,4.46-19.69,13.26,0,5.38,3.28,8.93,8.27,8.93,9.45,0,16.15-8.93,16.54-21.93"/>
            <path id="path58388" class="cls-5"
                  d="M639.65,359H620.49l.52-9.06c-5.91,7.22-13.65,10.63-24.16,10.63-12.47,0-21-9.85-21-23.9,0-21.4,14.84-33.74,40.44-33.74a85.81,85.81,0,0,1,9.32.66,19.27,19.27,0,0,0,.92-5.65c0-5.91-4.07-8-14.7-8a71.4,71.4,0,0,0-19.17,2.49l-3.15.92-2.1.53,3.15-19.69c11.55-3.28,19-4.6,27.57-4.6,19.83,0,30.2,8.8,30.2,25.6,0,4.33-.26,7.62-1.84,17.33l-4.86,31.12-.79,5.51-.53,4.46-.39,3ZM622.85,319.7a38,38,0,0,0-5.12-.26c-13,0-19.69,4.46-19.69,13.26,0,5.38,3.28,8.93,8.27,8.93,9.45,0,16.15-8.93,16.54-21.93"/>
            <path id="path58390" class="cls-5"
                  d="M701.23,271.17a12.7,12.7,0,0,0-2.35-.13c-7.45,0-11.76,3.79-18.81,14.11L682.16,272H661.39l-14,87h23c8.1-53.17,10.32-62.44,21.29-62.44a7.5,7.5,0,0,1,1.57.13c2.09-10.45,4.83-18.16,8.75-25.21Z"/>
        </g>
    </g>
</svg>