<svg id="svg3052" xmlns="http://www.w3.org/2000/svg" viewBox="0 0 3072 1919">
    <defs>
        <style>.cls-1{fill:#fff;stroke:#0061b2;stroke-width:32px;}.cls-2{fill:#0061b2;}.cls-3{fill:#fdb827;}</style>
    </defs>
    <title>visa</title>
    <g id="g3177">
        <path id="rect3062" class="cls-1" d="M17.22,14.15H3054.78v1890.7H17.22Z"/>
        <path id="path3065" class="cls-2" d="M119.81,132.46H2933.36V530.18H119.81Z"/>
        <path id="path3069" class="cls-3" d="M119.81,1389.31H2933.36V1787H119.81Z"/>
        <path id="path3071" class="cls-2"
              d="M587.52,631.35l0,.19H471.9V651.2c90.26,2.87,117.21,45.34,127.19,94.78l53.22,527.75H827.43l374.16-642.37H1026.46L801.58,1017.45,762.65,631.35Z"/>
        <path id="rect3086" class="cls-2" d="M1294.86,631h170l-208.45,643h-170Z"/>
        <path id="path3089" class="cls-2"
              d="M2231.3,643.79,1902.58,1274H2087l48-96.22H2349l7.34,96.22h170l-48.09-630.19Zm89.31,161.72L2341,1071.95H2187.74Z"/>
        <path id="path3105" class="cls-2"
              d="M1506.52,794.53C1532,692.57,1615.75,623,1758.26,623c133.5,0,232.51,83.38,232.51,83.38l-101,105.83s-74.67-57.73-118.66-57.73c-58.16,0-84.42,21.24-89.8,56.12-10.71,69.56,237.14,112.13,229.3,274.2C1905.36,1193,1793.34,1298,1665.26,1298c-192.06,0-287-77-287-77l86.59-123.47s86.79,69.52,168.37,65.74c55-2.55,97.45-23.64,94.61-60.93-6.45-84.52-267.45-123.32-221.28-307.87Z"/>
        <path id="path3151" class="cls-2"
              d="M2546.44,643.77a36.29,36.29,0,0,0-17.4,4.57,32.63,32.63,0,0,0-13.21,13.1,35.36,35.36,0,0,0-.06,35.3,33,33,0,0,0,13.09,13.1,35.48,35.48,0,0,0,35.17,0,32.83,32.83,0,0,0,13.05-13.1,35.57,35.57,0,0,0-.06-35.3,32.54,32.54,0,0,0-13.21-13.1,36.17,36.17,0,0,0-17.36-4.57Zm0,5.88a30,30,0,0,1,14.45,3.8,27.21,27.21,0,0,1,11,10.93,29.62,29.62,0,0,1,.09,29.43,27.66,27.66,0,0,1-10.93,10.93,29.5,29.5,0,0,1-29.31,0,27.76,27.76,0,0,1-10.93-10.93,29.51,29.51,0,0,1,.06-29.43,27.4,27.4,0,0,1,11-10.93A30.11,30.11,0,0,1,2546.44,649.65Z"/>
        <path id="path3147" class="cls-2"
              d="M2531.81,659.69v41.69H2538V683.66h3.63a7.43,7.43,0,0,1,4.93,1.44c1.63,1.3,3.8,4.56,6.46,9.73l3.37,6.55h7.51l-4.65-8.16a47.53,47.53,0,0,0-5.63-8.26,10.37,10.37,0,0,0-3.25-2.21,11.39,11.39,0,0,0,7.93-3.82,11.62,11.62,0,0,0,3-7.95,11.35,11.35,0,0,0-1.81-6.09,9.6,9.6,0,0,0-4.77-4.06q-3-1.16-9.74-1.16h-13.15Zm6.17,5.67h7c3,0,5.09.22,6.21.7a5.75,5.75,0,0,1,2.61,2.21,6.41,6.41,0,0,1-1,7.91q-2,1.75-7.32,1.75H2538V665.36Z"/>
        <path id="path3159" class="cls-2"
              d="M2872.37,1692a36.29,36.29,0,0,0-17.4,4.57,32.63,32.63,0,0,0-13.21,13.1,35.36,35.36,0,0,0-.06,35.3,33,33,0,0,0,13.09,13.1,35.48,35.48,0,0,0,35.17,0,32.83,32.83,0,0,0,13.05-13.1,35.57,35.57,0,0,0-.06-35.3,32.54,32.54,0,0,0-13.21-13.1,36.17,36.17,0,0,0-17.36-4.57Zm0,5.88a30,30,0,0,1,14.45,3.8,27.21,27.21,0,0,1,11,10.93,29.62,29.62,0,0,1,.09,29.43,27.66,27.66,0,0,1-10.93,10.93,29.5,29.5,0,0,1-29.31,0,27.76,27.76,0,0,1-10.93-10.93,29.51,29.51,0,0,1,.06-29.43,27.4,27.4,0,0,1,11-10.93A30.11,30.11,0,0,1,2872.37,1697.84Z"/>
        <path id="path3161" class="cls-2"
              d="M2857.73,1707.88v41.69h6.17v-17.71h3.63a7.43,7.43,0,0,1,4.93,1.44c1.63,1.3,3.8,4.56,6.46,9.73l3.37,6.55h7.51l-4.65-8.16a47.54,47.54,0,0,0-5.63-8.26,10.37,10.37,0,0,0-3.25-2.21,11.39,11.39,0,0,0,7.93-3.82,11.62,11.62,0,0,0,3-7.95,11.35,11.35,0,0,0-1.81-6.09,9.6,9.6,0,0,0-4.77-4.06q-3-1.16-9.74-1.16h-13.15Zm6.17,5.67h7c3,0,5.09.22,6.21.7a5.75,5.75,0,0,1,2.61,2.21,6.41,6.41,0,0,1-1,7.91q-2,1.75-7.32,1.75h-7.48v-12.57Z"/>
    </g>
</svg>