<svg id="Layer_1" data-name="Layer 1" xmlns="http://www.w3.org/2000/svg" viewBox="0 0 1367 419.42">
    <defs>
        <style>.cls-1{fill:#060708;}.cls-2{fill:#96c141;}</style>
    </defs>
    <title>Amaron</title>
    <rect class="cls-1" width="1366" height="419"/>
    <g id="I56nX8">
        <path class="cls-2"
              d="M262.26,281.17c8.53-49.57,16.65-97.51,25.09-145.39,4.23-24,14.37-35.34,32.35-37.43,20.92-2.42,33.57,6,42.48,30.57,9.35,25.83,17.34,52.15,26.69,80.56,9.94-18.44,13.25-37.22,19.87-54.71,4.3-11.36,7.72-23.06,12.41-34.25,7-16.85,20.27-24.11,38.38-22.21,17.85,1.87,27.68,13.1,30.8,29.58,8.2,43.39,15.53,86.94,23.23,130.42,1.31,7.43,2.74,14.84,5,26.78,17.33-46.7,33.09-89.15,48.82-131.61,1.78-4.8,3.39-9.66,5.18-14.46,11.64-31.2,27.06-44.91,51-44,28.25,1.07,40.49,20,49,44,15.82,44.51,32.73,88.62,51.27,138.51,1-9.78,1.85-14.16,1.86-18.53.1-41-.1-82,.1-123,.13-26.73,9.14-35.76,35.76-36.41,13.45-.33,26.9-.43,40.35-.37,50.37.23,78.13,22,91.77,74.79,23.1-50.12,59.19-79.89,113.06-78.67,54.62,1.23,90,31.66,109.73,84,5.69-9.49,2.22-18.26,3.13-26.36,2.15-19.24-8.08-43.88,18.59-53.09s36.83,14.43,49.89,30c18.1,21.58,35.17,44,52.81,66,3.81,4.74,8.17,9,15.8,17.41,0-30.15-.07-55.42,0-80.69.05-13.43,2.79-25.73,16.54-32,18.81-8.64,39.92,3,40.22,23.87.82,57,.39,114,.18,171,0,12-6.05,21.14-17.63,24.86-12.53,4-24.44,1.8-33.15-8.8-19.92-24.24-39.44-48.8-59.13-73.22L1178.5,207c-4.11,23.54-1.67,43.55-2.33,63.35-.3,9,.42,18-.53,26.87-1.67,15.65-10.9,24.11-26.77,24.53-16.73.44-27.41-7.87-28.72-24.42-1.35-17-.3-34.14-2.11-52.2-30.17,61.42-76.13,91.76-144.48,75.5-48.66-11.58-78.72-52.56-84.7-113.12-7.08,14.85-14.23,26-24.75,34.29-5.9,4.62-3.83,8.1.17,12.44,6.5,7.06,13,14.16,18.82,21.81,10.66,14.09,9.44,29.27-2.54,39.43-10.86,9.21-30,9.27-40.38-1.55-13.27-13.85-25.15-29-37.8-43.48-4-4.62-7.48-12.07-15.15-9.19-7,2.65-3.28,10-4,15.37a54,54,0,0,0-.06,9.6c.71,15.1-2,29-18.41,34.07-15.89,4.89-29.16.15-36.92-15.8-24.51,26.54-45.78,23.09-58.21-10-4.39-11.68-10.45-16.08-22.49-14.86a147.68,147.68,0,0,1-26.88,0c-23.11-1.9-41.94-1.55-51.17,27.55-6.66,21-31.2,19-52.11-2.28-7.51,14.65-19.89,19.85-35.23,15.93-16.4-4.2-20.21-18-22.47-32.43-3.61-23.1-7.29-46.19-14-69.33-7.68,24.32-15.63,48.57-23,73-4.92,16.39-11.6,29.57-31.93,30-21.55.41-28.28-13.93-33.45-30.68-7.24-23.44-14.52-46.86-26.16-69.93-3.48,23-6.64,46.08-10.53,69-4,23.32-16.49,33.52-35.81,31.29-11.37-1.31-16.24-10.47-23.41-17-6,7.55-11.67,15.41-22.36,16.61-17.55,2-28.94-6.59-33-22.67-4.12-16.52-13.67-20.81-29.11-19.14a136.89,136.89,0,0,1-28.79,0c-20.77-2.17-36.28.49-42.61,25.34-3.9,15.31-19.37,20.48-34.66,15-15.57-5.56-22-18.67-16.55-34C73.34,231,93.18,176.29,114.33,122.07c7.37-18.9,24.34-28,44.81-27,21.34,1,35.78,12.83,43.22,32.63,16.87,44.92,33.35,90,50.19,134.91C254.76,268.43,255.09,275.2,262.26,281.17Z"/>
        <path class="cls-1"
              d="M391.61,282Q412,219.36,432.46,156.74c2.18-6.69,4.21-13.43,6.41-20.12,2.53-7.7,6.28-14.93,15.74-13.83,8.93,1,12,8,13.38,16.36,6,37.26,12.46,74.47,18.69,111.71,2.5,14.94,4.85,29.9,7.65,47.23-11.33-4-10.25-11.72-11.29-17.83-7.51-44.16-14.7-88.37-22.37-132.5-1-5.62,1.32-15-7.58-15.18-6.94-.17-6.63,8.45-8.3,13.54-14.78,45-29.14,90.09-44,135-2,6.23-2,15.92-11.17,15.88s-8.78-9.66-10.85-15.92c-14.87-44.94-29.44-90-44.29-134.93-1.71-5.17-1.59-13.78-8.38-13.49-8.47.36-6.72,9.8-7.71,15.43-8.09,46-15.63,92.11-23.41,138.17-.61,3.6,0,7.85-5.39,10.6-5.61-4-3-10-2.18-14.8Q298.84,212,310.73,141.93c1.53-9.1,3.71-18.7,15.15-19.14,10.49-.41,12.92,8.49,15.56,16.65q23,71.18,46.23,142.29Z"/>
        <path class="cls-1"
              d="M1095.66,209.81c.48,49.13-40.38,90.9-89.59,91.59-50,.7-92.21-40.74-92.37-90.76-.16-50.29,41.41-91.85,91.56-91.54C1054.79,119.41,1095.17,159.93,1095.66,209.81Z"/>
        <path class="cls-1"
              d="M1278.26,280.49l4.21-1.48V121.59c10.4,3.09,7.18,10,7.21,14.93q.4,72.32.07,144.65c0,5.39,2.66,13-4.63,15-6.6,1.81-9.54-5.42-13-9.73Q1219.65,221,1167.41,155.43c-4-5-8.16-9.76-15.66-18.72V297.28c-10.29.55-8.54-5.42-8.56-9.23q-.27-76.18-.08-152.36c0-4.27-1.58-9.86,3.82-11.88,6.41-2.39,8.87,3.66,11.9,7.44q54.82,68.5,109.46,137.13C1271.55,272.46,1274.94,276.45,1278.26,280.49Z"/>
        <path class="cls-1"
              d="M700.5,296.79c-7.82-2.44-8.61-9.15-9.45-14.08-4-23.63-17.58-29.75-40.37-27.42s-46,1.48-68.94.12c-14.18-.84-20.68,4.34-24.34,17.38-2.4,8.54-4.07,18.22-11.64,25-7.29-6.73-1.74-12-.08-16.54,16.33-45,33.12-89.83,49.77-134.71,4.79-12.92,10-25.94,26.74-25.86,16.42.08,22,12.21,26.91,25.55,16,43.77,32.58,87.32,48.63,131.07C699.83,283,704.34,288.64,700.5,296.79Z"/>
        <path class="cls-1"
              d="M81.58,299.36c-8.35-7.93-3.49-12.53-2-16.76,16.65-45.57,33.62-91,50.47-136.53,4.82-13,10.43-25.76,27.1-25.38,16.39.37,21.86,12.93,26.68,26.08,16.05,43.75,32.49,87.36,48.5,131.12,2.08,5.68,6.5,11.32,2.71,19.35-10.91-7.26-11.23-19.5-14.93-29.34-3.53-9.37-8.3-12.54-18.16-12.33-28.11.6-56.28,1.07-84.35-.19-14.55-.65-22.57,3.42-25.92,17.92C89.8,281.69,85.51,289.53,81.58,299.36Z"/>
        <path class="cls-1"
              d="M754.73,297.5c-6.06-7.09-3.73-14.35-3.77-21-.23-45.47.34-91-.45-136.41-.22-12.72,3.37-16.83,16-15.91,14.65,1.07,29.45-.09,44.17.32,30,.83,51.86,18.51,56.33,45.11,5,29.62-9.73,53.46-39.35,63.83-2.9,1-5.73,2.25-9.9,3.91l47.82,56.24-5.91,5L818,250.84c-10.76-12.34-39-19.5-53.61-14.25-7.18,2.58-5,8.11-5.14,12.72-.5,14.7-.5,29.42-.86,44.13C758.36,294.34,756.84,295.22,754.73,297.5Z"/>
        <path class="cls-2"
              d="M1004.52,128c46.46.06,82.78,36.64,82.41,83-.37,45.27-36.94,81.76-82,81.81-45.58,0-83.28-37.86-82.9-83.35A82.38,82.38,0,0,1,1004.52,128Z"/>
        <path class="cls-2"
              d="M618.52,247.44c-14.07-2.22-31.88,3.73-49.06-2.61,5.54-16.15,10.91-32.36,16.67-48.43q9.66-27,19.93-53.74c2.86-7.45,7.42-13.83,16.45-13.75s13.59,6.57,16.38,14c11.71,31,23,62.12,34.7,93.1,3.1,8.18,1.66,11.81-7.74,11.57C651.18,247.16,636.51,247.44,618.52,247.44Z"/>
        <path class="cls-2"
              d="M101.44,247.47C115.37,210,128,176.06,140.69,142.11c2.88-7.67,7.86-13.57,16.8-13.17,7.9.36,12.67,5.89,15.28,12.76,12,31.58,23.53,63.32,35.56,94.88,3.5,9.19-.24,11-8.53,11C168,247.34,136.18,247.47,101.44,247.47Z"/>
        <path class="cls-2"
              d="M759.13,179c0-46.75,0-46.75,46.68-46.23,32.85.36,53.36,18.27,53.63,46.85.28,28.78-20.07,47.61-52.41,48.49C759.12,229.44,759.12,229.44,759.13,179Z"/>
        <path class="cls-1" d="M1004.15,268.27C971.4,268,946,241.85,946.58,209a58.27,58.27,0,1,1,57.58,59.24Z"/>
        <path class="cls-1"
              d="M601.83,224.29l20.26-54.65c4.14,9.94,7.08,16.4,9.54,23C645.47,230.06,645.43,230.07,601.83,224.29Z"/>
        <path class="cls-1"
              d="M157.93,171.3c3.9,10.51,7.58,19.34,10.42,28.43,2.57,8.21,11.89,18.87,5.86,24.13-7.52,6.55-20.72,1.88-31.46,2-5.56,0-6-3.76-4.28-7.8C145,203,147.86,186.5,157.93,171.3Z"/>
        <path class="cls-1"
              d="M783.53,178.66c-2.49-14.25-.28-23.68,18.68-22.18,21.4,1.7,32.9,8.54,32.76,23.65-.15,15.78-10.59,21.34-32.62,23.45S782.23,192.89,783.53,178.66Z"/>
    </g>
</svg>