<svg id="Layer_1" data-name="Layer 1" xmlns="http://www.w3.org/2000/svg" viewBox="0 0 1367 419.42">
    <defs>
        <style>.cls-1{fill:#df0f24;}.cls-2{fill:#040404;}</style>
    </defs>
    <title>Bridgestone</title>
    <path d="M-18,1H1356V422H-18ZM792.85,142.66c-13.65-.27-24.22,6-29,18.19-4.72,11.92-7.17,24.88-9.44,37.59-1.79,10,4.15,16.7,13.16,20,6.49,2.37,13.58,3.07,20.12,5.34,5.79,2,11.18,5.17,16.1,7.51-3.94,24.86-8,28.89-21.31,22.29L786.74,233h-45c-1.55,6.28-3.37,12.1-4.39,18-3.3,19.15,3.65,29.86,22.94,31.6,16.81,1.51,33.93,1.16,50.79,0,17.37-1.23,28.6-11.83,33.9-28.23a155.68,155.68,0,0,0,5.85-24c3.46-22.44-3-30.84-25.46-35.5-8.14-1.68-16.06-4.4-23-6.34-2-21.78,10.84-32.11,22.66-43l4.74-.22L818.84,184h44.45c1-6.31,2.29-11.8,2.68-17.36,1-14.2-3.52-22.6-16.29-23.66C830.86,141.41,811.8,142.63,792.85,142.66ZM156.32,108.92Q138.39,172,120.44,235c-4.28,14.94-6.82,16.29-24,13.69l21.53-75L1.72,281.41c45.45,0,87.92.68,130.35-.24,28.51-.61,48.17-17,55.28-42.94,7.06-25.76-.77-39.54-26.38-46.54-.39-.11-.49-1.23-1-2.67,2.22-.19,4.22-.35,6.21-.53,26.82-2.44,43.35-22.66,41.83-51.19-1.1-20.67-16.27-30.91-44.72-30.13a62.56,62.56,0,0,0-6.42.82H67.79L35.94,216.52l2,1.25ZM992.45,284.57l.06-1c6.49,0,13,.1,19.47,0,21.59-.38,36.26-10.7,42.51-31.38,7.62-25.21,15.32-50.46,21.27-76.09,4.8-20.68-4.66-33-25.7-34.64a320.47,320.47,0,0,0-46.64.28c-12.79.88-26.83,4.5-31.23,17.55-10.83,32.15-20.43,64.81-28.41,97.78-3.14,13,5.5,22.08,19.06,24.7C972.53,283.64,982.57,283.7,992.45,284.57ZM374.95,282c27.75,0,53,1.81,77.8-.79,11.69-1.23,26.85-8.06,32.88-17.29,18.38-28.13,26.48-60.82,29.17-94.25,1.12-13.88-8.79-25-22.48-25.66-25.79-1.17-51.68-.34-77.54-.34Zm787-135.91c-13.2,46.2-25.84,90.47-38.65,134.94h48.47c9.92-34.08,19.82-68.09,29.42-102.19,1.27-4.5,1.2-9.43,1.34-14.17.37-12.58-6.44-20.46-18.36-20.84-27.59-.88-55.22-.28-82.89-.28-13.51,46.31-26.77,91.78-40.22,138.48h46.11c9.88-35.54,20.22-69.89,29.13-104.6C1140,163.07,1148.85,154.66,1161.94,146.06ZM232.06,281.84c10.44-35.82,21.13-70.51,30.47-105.56,3.59-13.46,11.54-21.79,24.16-30L247.82,281h49c3.06-11.13,6.52-21.44,8.59-32,1.55-7.89,3.7-17,1.19-24-2.42-6.73-10.49-11.43-15.31-16.26,24-2.88,37.17-19.27,34.71-45.08-1.09-11.47-7.54-19.67-18.52-20.1-27.09-1.06-54.26-.35-81.86-.35l-39.8,137.9c3.71.37,5.4.68,7.09.69C205.49,281.86,218,281.84,232.06,281.84ZM635.36,187c11.16-28,4.06-44-20.65-45.57a357.59,357.59,0,0,0-43.76.4c-21.07,1.26-35.44,12.09-41.38,32.68-6.88,23.89-14,47.74-19.64,71.94-4.34,18.77,7.27,33.69,26.46,34.4,24,.89,48,.21,72.79.21L631.1,206H584l-15.22,51-11.67-2.69c0-3.64-.55-6.32.08-8.67,7.1-26.07,13.36-52.45,22.19-77.93,3-8.78,12.58-15.31,19.16-22.86L601,147l-11.34,40Zm105.49,6.65-50.23,9.29,10-30.94h48.77l7.26-28.64c-24,0-46.46-.47-68.9.19-11.73.35-23.44,4.89-27.24,16.64-10.2,31.56-19.85,63.4-27.54,95.64-3.33,14,8,25.32,22.52,25.77,20.71.64,41.46.16,62.83.16L727,252H677.32l6.87-28H732Zm579.49-49.12c-3.17-.82-4-1.21-4.8-1.21-18.69,0-37.39-.16-56.08,0-24.42.15-35,7.61-42.14,30.66-6.9,22.42-13.17,45-19.38,67.65a66.76,66.76,0,0,0-2.31,16.7c-.16,13,8.1,23.34,20.86,23.87,21.61.9,43.28.25,65.3.25L1290,253h-49.79l7.12-28h47.8l8.91-30.64-50.63,9L1264,172h48.85ZM859.15,281h47l32-109h22.3l8.12-28H876.36l-7.82,29h34.12c-6.5,8.06-15.2,14.68-18.17,23.28C875,223.85,867.59,252.16,859.15,281Zm-549.61,1h48.08l39.19-138h-47Z"/>
    <path class="cls-1" d="M156.86,108l.38.78-.93.15L38,217.77l-2-1.25L67.79,108Z"/>
    <path class="cls-2"
          d="M989.93,254.29c3.42-12.3,6.55-23.85,9.85-35.35,3.94-13.7,9-27.16,11.82-41.07,3.13-15.48,12.69-24.84,27.39-34.12-3.69,13.13-6.72,24.1-9.85,35-6.42,22.44-13,44.85-19.31,67.31C1007.13,255.64,1002.33,260.51,989.93,254.29Z"/>
    <path class="cls-2"
          d="M476.37,147.94,445.9,253.7l-19.24,4.9c9.69-32.52,17.66-62.44,27.91-91.55,2.85-8.09,12.47-13.79,19-20.59Z"/>
</svg>