<svg id="Layer_1" data-name="Layer 1" xmlns="http://www.w3.org/2000/svg" viewBox="0 0 1367 419.42">
    <defs>
        <style>.cls-1{fill:#7580a5;}.cls-2{fill:#afb6cc;}.cls-3{fill:#1f3370;}.cls-4{fill:#ee4023;}</style>
    </defs>
    <title>Ceat</title>
    <path class="cls-1" d="M1264,123.07l-1.4-.2q0-39.31.08-78.62l1.32,0Z"/>
    <path class="cls-2" d="M265.42,39.09a6,6,0,0,0,.1-1.09h24.56a2.5,2.5,0,0,0,.08,1.13Z"/>
    <path class="cls-3"
          d="M265.42,38.83l24.74,0c55,4.58,99.58,28.7,134.89,71.51l-53.6,51.07c-9.3-8.3-17.8-17.27-27.63-24.43-34.88-25.39-72.59-31.6-112.28-12.59-35.16,16.83-55.21,57.11-50.68,95.87,4,34.18,19,61,50.48,75.67,40.91,19,79.88,14.1,115.17-14.6,8.5-6.91,16.33-14.66,25.08-22.58l53.25,55.31c-14.49,12-28.13,24.4-42.87,35.3-37.56,27.78-80.44,35.15-126,31-46.32-4.17-85-23.38-114.93-59.17-23.9-28.56-35.36-62-37.48-98.89-1.67-29,1.58-57.25,13.73-83.79C141,86.81,182.42,56.65,236.75,43.09,246.08,40.77,255.85,40.21,265.42,38.83Z"/>
    <path class="cls-3" d="M886.07,161.68C856.89,234.27,799.84,377,799.84,377H714.36L847,44H925.2l132.32,332H972.23Z"/>
    <path class="cls-3"
          d="M1262.42,44.34c0,26.21-.08,79.66-.08,79.66H1173V375h-78V123h-91V44.36c1.29-.1,2.52-.26,3.75-.26q125.41,0,250.81,0C1259.85,44.1,1261.13,44.26,1262.42,44.34Z"/>
    <path class="cls-4" d="M693,303v73H456V303Z"/>
    <path class="cls-4" d="M693,172v73H456V172Z"/>
    <path class="cls-4" d="M456,118V45H693v73Z"/>
</svg>