<svg id="Layer_1" data-name="Layer 1" xmlns="http://www.w3.org/2000/svg" viewBox="0 0 1367 419.42">
    <defs>
        <style>
            .cls-1{fill:#fd9800;}.cls-2{fill:#010000;}.cls-3{fill:#010100;}.cls-4{fill:#1e1200;}.cls-5{fill:#030200;}.cls-6{fill:#060400;}.cls-7{fill:#090600;}
        </style>
    </defs>
    <title>Continental</title>
    <rect class="cls-1" width="1367" height="419"/>
    <path d="M231.8,282.69c-1.82,4.15-2.77,9-5.6,12.33-15.5,18-35.74,27.89-58.89,31.43-48.58,7.44-91-4-121-45.08-50.67-69.32-6.78-170,78.17-181.42a138.4,138.4,0,0,1,55.61,3.58c1.84.5,3.78.62,6.38,1l1.08-12,42.46,39v12.12c-49.95-37.67-104.14-23.32-129.26,5.54-29.85,34.29-30.82,92.68-1.68,127.1,16.88,19.93,38.87,28.58,64.55,29.5,25.36.91,47-8.08,65.86-24.8Z"/>
    <path d="M816.71,263.1l10.29.73V274H766.47l-.7-9.67,10.24-1V165.38l-9.58-1.59-.63-9.79h47.93l1.53,16.18c9-12.48,19-19.46,33.65-18.63a32.93,32.93,0,0,1,30.76,30.73c1.36,19.71,1.12,39.54,1.53,59.31.14,6.92,0,13.86,0,21.48l13.8.69V274H842.89c-.16-3.61-.45-7.13-.46-10.64,0-22.63,0-45.26-.07-67.89a63.75,63.75,0,0,0-1.08-12.89c-1.3-6.13-5.34-11.08-11.78-9.54-4.39,1-8.16,5.44-11.72,8.83-1.15,1.1-1,3.8-1,5.77C816.69,212.54,816.71,237.42,816.71,263.1Z"/>
    <path d="M519,161.9V152h45.74c.35,5.39.66,9.95,1.1,16.16,8.4-11,17.43-18.39,30.66-18.37,17.81,0,31.24,10.92,32.41,29.08,1.31,20.27.86,40.66,1.12,61,.09,7,0,13.95,0,21.6l13.88,1.05c.15,3.07.48,10.48.48,10.48H594V262.6c.75-22.45.82-44.9.7-67.35,0-4.66.6-10-1.43-13.8-2.21-4.08-7.29-9.35-10.91-9.2-4.3.18-8.68,5.27-12.41,8.88-1.34,1.3-1.19,4.46-1.2,6.77-.08,24.45,0,48.9,0,74.13l10.48,1.5c.16,3,.55,10.09.55,10.45H519V263.52s6.16-.42,9-.67V164C525.9,163.39,522.89,162.72,519,161.9Z"/>
    <path d="M253,164.2l-11-1.4V152h47.56l.81,16.55,2.18.36c.65-1.75.87-3.85,2-5.21,10.74-13,25.05-17.47,39.61-12.58,14,4.71,21.88,15.3,22.36,32.38.61,22.11.34,44.24.44,66.36,0,3.65,0,7.3,0,11.72l14,1V274H318.45c0-14.83,0-29.46,0-44.09-.05-14.08,0-28.16-.36-42.23-.2-8.22-2.23-15.87-12.51-16.07s-13,7.84-13.12,15.7c-.52,24.76-.19,49.54-.19,75.15,3.57.32,7,.63,11.75,1V275H242v-9.84l11-.8Z"/>
    <path d="M231.33,214.16c-.87,24.68-8.54,46.33-31.56,58.68-20.89,11.21-42.62,10.54-63-2-28.86-17.73-37.21-65.47-17.47-96.93,17.39-27.72,55.8-36,83.87-17.72C224,169.76,230.72,190.42,231.33,214.16Zm-78.17-.87c1.16,12.3,2,26,3.92,39.47,1,7,4.2,14.12,13.1,13.88,8.06-.22,11.91-6.3,12.38-13.38,1.38-20.57,2.55-41.18,2.67-61.78,0-8.11-2.07-16.57-4.93-24.22-1.25-3.36-6.71-6.83-10.46-7.07-3.26-.21-7.53,3.48-10,6.53-2.14,2.63-3,6.72-3.39,10.28C155.13,188.58,154.3,200.22,153.16,213.29Z"/>
    <path d="M1034,274l-.55-10.88c-7.52,4.37-14.1,10-21.68,12.26-26.88,7.88-48.83-17.33-41.12-46.47,5-19,22.82-30.29,45.93-29,4.63.26,9.25.86,13.83,1.3,2.45-12.47,0-21.63-8.39-25.67-15.8-7.63-29.07-1.66-40.8,10.22l-6-7.12c14.43-25.15,47.06-35.57,72.38-22.95,15.62,7.79,22.48,21.33,22.58,38.43.13,22.72,0,45.45,0,68.9l11.74.83V274Zm-1-22.21c0-6.75,0-13.09,0-19.43s0-12.53,0-18.36c-13.08-4.34-19.77-.92-21.47,10.77a61,61,0,0,0,0,18C1013.3,254.22,1021.06,257.53,1033,251.79Z"/>
    <path d="M755.94,218H691.57c-.07,13.14,3.18,24.42,14.62,30.51,14.69,7.81,28.43,3.57,41.09-6.87l5.69,5.42c-9.61,20.2-26.26,28.61-47.17,28.61-21.32,0-38.75-8.75-48-28.64-10.41-22.28-10.46-45.46-.36-68s33.51-33.64,59.3-29.15c22.7,3.94,37.26,21.17,39.16,46.77C756.36,203.31,755.94,210,755.94,218Zm-65.51-13h28.51c-1.16-11.46-1.39-22.26-3.72-32.58-.92-4.07-6-9-10.11-10.14-6.77-1.82-10.33,4.23-11.24,10.08C692.22,182.88,691.58,193.56,690.43,205Z"/>
    <path d="M1096,119.49l-13.09-.9-.45-9.6H1135V263h14v11h-53Z"/>
    <path class="cls-2"
          d="M947,118.7V152h17v10.76l-16,1.12v96.85l13.61,1.4.59,12.41c-11.86.33-23.28,2-34.32.62-12.92-1.61-19.67-11.87-19.81-26.86-.23-24.46-.06-48.93-.07-73.4,0-3.65,0-6.8,0-10.75l-14.41-1.58c2-4.06,2.84-8.36,5.48-10.58,12.15-10.23,24.72-20,37.38-29.61C938.78,120.61,942.27,120.29,947,118.7Z"/>
    <path d="M1204,151.71l-7.46,5.75,2.16,19.19-5.39,7.43c-8.7-15.1-6.14-29,8.28-44.32l18,4.35,21.51-23.31-21.65,2.26-.94-8.54c7.69-9.82,22.1-10.75,25.36-23.75,21.25,13.12,21.33,23.8,12.51,56.93,8,8.21,15.81,19.08,26.17,26.26,18.83,13,21.47,20.34,9.18,40.72l5,18.27-22.12,28.26,1.72,1.8h-16.8l22.65-27.84-30.59-39.73c-9.94-9.69-23.79-23.3-37.81-36.74C1211.15,156.19,1207.84,154.42,1204,151.71Z"/>
    <path d="M427.52,261h10.81l.53,9.9a53,53,0,0,1-38.1,2.42c-11.5-3.51-16.64-12.32-16.73-26.87-.14-24.1,0-48.2,0-72.3,0-3.28,0-6.57,0-10.1l-13.42-1.3c.86-3.29.63-7.37,2.49-8.8,15.73-12,30-26.1,49.93-37.29v35l15,1.06v9.92l-13.93,1.38C420.57,191.05,422.62,254.44,427.52,261Z"/>
    <path d="M459,164.86l-10.28-.78L448,154h49V263.47l11,1.18V274H448.6l-.48-9.73,10.88-.84Z"/>
    <path class="cls-3"
          d="M477,138.79c-4.19-1.11-9.48-1-12.22-3.57-4.43-4.17-9.71-10-9.89-15.34-.17-4.79,5.1-12.64,9.6-14.09,7.68-2.47,16.86-2.25,25-.79,7.24,1.31,12.84,7.78,10.81,15.52-1.48,5.65-6.14,11.06-10.7,15.08C486.76,138.09,481.47,137.78,477,138.79Z"/>
    <path class="cls-4" d="M1342.61,270c-8,6-173.31,6-181.42,0Z"/>
    <path class="cls-5" d="M1319.93,238l-12.46-7.34-4.54-44.3c21.68,11.2,13.81,33,19.16,49.75Z"/>
    <path class="cls-6" d="M1238.79,252l29.53-27.87,6.16,5.1-23.28,20.43,2.35,2.34Z"/>
    <path class="cls-7" d="M1197.5,138.72,1179.09,155l-9.73-1.84C1171.65,144.78,1178.24,141.28,1197.5,138.72Z"/>
</svg>