<svg id="Layer_1" data-name="Layer 1" xmlns="http://www.w3.org/2000/svg" viewBox="0 0 1367 419.42">
    <defs>
        <style>.cls-1{fill:#f4791f;}</style>
    </defs>
    <title>Cst</title>
    <path d="M131,259.54a9.59,9.59,0,0,1,2.84.51c41.2,21.86,85.13,36.37,130.05,48.11,45.33,11.85,91.35,20.19,137.82,26.14a1378.42,1378.42,0,0,0,152,10.92c50.28.85,100.51-.27,150.65-3.79,38.24-2.69,76.5-5.76,114.58-10.16,64.89-7.5,129-19.14,191.19-39.86,29.39-9.8,57.94-21.51,83.38-39.65,10.49-7.48,19.93-16.05,26.67-27.2q14.43-23.88-2.69-46c-10.49-13.55-24.4-23-39.05-31.33-32.57-18.59-67.62-31.23-103.23-42.42C926.6,89.48,877,77.88,827,68.16c-46.1-9-92.45-16.36-139.12-21.66a38.82,38.82,0,0,0-7-.57c8.24,0,16.51-.4,24.73.07,31.91,1.85,63.84,3.46,95.68,6.14q49.09,4.13,98,10.15c50.9,6.2,101.4,14.9,151.23,27.17,40.15,9.89,79.67,21.73,116.89,40.14,17.25,8.53,33.5,18.58,47.48,32,30.48,29.36,24.6,63.88,3.51,89-15.56,18.49-35.71,30.74-57.12,41.08-37.27,18-76.82,29.16-117,38.42a1167.76,1167.76,0,0,1-132.61,22.71c-47.56,5.32-95.2,10-142.9,13.85-52.46,4.2-105,7-157.69,7A1334.06,1334.06,0,0,1,458,365.16c-61.94-7.09-123.12-18.27-182.86-36.44-42-12.78-82.93-28.31-120.21-52-8.25-5.25-15.89-11.47-23.8-17.24Z"/>
    <path class="cls-1"
          d="M754.14,138.49l-43.39,44.67C700.06,180,690,176.31,679.62,174c-15.87-3.52-32-5.35-48.13-1.41A16.07,16.07,0,0,0,625,175.4c-1.88,1.59-3,4.07-4.42,6.1,5.39,5.2,11.19,5.22,16.7,6.13,20.35,3.36,40.81,6.22,61,10.38,7.81,1.61,15.43,5.46,22.42,9.52,15.92,9.25,19.92,24.95,11.44,41.42-7.34,14.27-19.43,23.41-33.18,30.68-21.42,11.32-44.56,17.09-68.35,20.64-46.15,6.89-91.92,3.44-137.43-5.49-8.82-1.73-17.48-4.29-26.83-6.62L515.73,240c12.42,4.26,25.36,9.55,38.77,13.08,16.94,4.47,34.33,5.56,51.64,1.42a25,25,0,0,0,8.81-4c1.64-1.21,3.25-4,3-5.83s-2.71-4.14-4.58-4.57c-6.63-1.51-13.43-2.33-20.17-3.36-17.16-2.63-34.4-4.78-51.43-8-6.87-1.32-13.55-4.5-19.83-7.77-18.69-9.74-22.9-26.66-11.51-44.43C520,161.47,534.3,152.25,550,145c26.78-12.39,55.25-18.12,84.48-20.42,30.86-2.44,61.52-.86,91.75,6.11C735.31,132.77,744.2,135.68,754.14,138.49Z"/>
    <path class="cls-1"
          d="M492.65,130.91,477.41,197c-5.39-2.57-10.34-5.19-15.49-7.34-32.11-13.42-64.13-13.84-95.82,1.34-7.57,3.63-14.28,8.56-18.94,15.8-6.7,10.39-5,20.74,4.78,28.32,10.78,8.34,23.5,11.3,36.69,12.18,26.35,1.76,51.42-3.62,75.39-14.52.66-.3,1.35-.57,2-.83.09,0,.24.1.81.37L444.91,297.6c-11.73,1.44-23.16,3.29-34.67,4.17-24.47,1.87-49,3.31-73.52,1-26.26-2.47-51.67-8.08-74.84-21.4-9.63-5.54-18.22-12.43-24.76-21.46-12.55-17.32-13.16-35.79-4.25-54.79C241.7,186.28,256.64,173,273.7,162c28.15-18.21,59.38-28.38,92.19-34,41.07-7.06,82-5.11,122.89,1.9C489.9,130,491,130.45,492.65,130.91Z"/>
    <path class="cls-1" d="M820.95,181.29l-63,1.72,15.74-57h239.2L997.1,183l-62.21-1.67L900.87,301H787Z"/>
    <path d="M131.1,259.44l0-.11c.05-.31,0-.07,0,.19Z"/>
</svg>