<svg id="Layer_1" data-name="Layer 1" xmlns="http://www.w3.org/2000/svg" viewBox="0 0 1367 419.42">
    <defs>
        <style>.cls-1{fill:#ed1c25;}.cls-2{fill:#0194d9;}.cls-3{fill:#0094d9;}</style>
    </defs>
    <title>Dsi</title>
    <path class="cls-1"
          d="M39.37,299c7.64-3.84,12.39-5.74,16.63-8.44,14.05-9,22.3-21.06,22-38.69-.51-31.36-1.36-62.8.17-94.09,1.9-38.86-17.5-48.18-44.8-54.83A81.79,81.79,0,0,1,41.9,102c63.61.14,127.23.06,190.83.61,53.89.46,98.93,37.32,104.78,88.31,6.56,57.2-24.42,104.86-86,107.34C182,301.1,112.28,299,39.37,299ZM173,280.49c7.12,0,12.78,0,18.44,0,23.28-.1,36.12-11.41,36.59-34.43.62-30.93.32-61.9-.35-92.84-.35-16-11.37-30.58-23.93-32-10.14-1.15-20.51-.23-30.75-.23Z"/>
    <path class="cls-1"
          d="M356.66,194.51C387.06,229.08,420.45,253,460.54,266c16.67,5.38,34.68,7.34,52.26,8.88,11,1,19.36-4.63,18.08-19-11.67-13-28.63-13.77-44.47-17.18-21.14-4.55-42.87-7.27-63.3-14-28.48-9.35-50.36-26.46-56.07-59-4.26-24.23,4.73-45.28,26.75-56.58,30.43-15.61,62.57-14.95,95.4-10.6,23.93,3.17,48.07,5.86,72.16,6.27,9.55.16,19.21-6.4,30.39-10.48l35.65,94.13c-18.28-13.33-32.48-26.55-49.08-35.1-22.13-11.4-45.73-20.42-69.49-28-11.41-3.62-24.22-.56-30.67,12.17,3.11,13.91,14,14.79,24.13,17.18,25.67,6,51.78,10.8,76.73,19,34.33,11.34,48.75,34.14,46,66.64-2.26,26.53-25.48,50.41-55.89,58.29-34.71,9-69,5.61-103-3.2-24.57-6.37-48.72-9.22-73.16,4.89Z"/>
    <path class="cls-1"
          d="M838.58,304H631.8l-.18-1.42c7.91-2.06,15.88-3.9,23.71-6.25,19-5.72,31.09-18.22,31.42-38.38.6-36.18.72-72.42-.81-108.56-1-24.23-13.82-37.19-37.79-43.72-4-1.1-8-2.3-12.79-3.66H834l.28,2c-5.44,1.48-11,2.7-16.3,4.49-23.21,7.79-35.84,25.84-35.72,50.29q.2,41.21,0,82.41c-.17,39.8,10.05,52.61,48.94,60.9C832.84,302.46,834.38,302.92,838.58,304Z"/>
    <path class="cls-2"
          d="M1227.75,273.44c6.64,10.25,2.86,17.61-6.74,22.38-19.59,9.73-40.1,13.89-61.64,7.29-18.33-5.62-25-22.64-18.5-46.26,8.88-32.21,40.84-55.91,74-54.84,20.58.66,29.37,15,20.53,33.82-7.38,15.72-22.21,21.27-37.29,25.9-6.54,2-13.54,2.5-21.08,3.81v16.89C1196.62,294.1,1211.15,281,1227.75,273.44Zm-48.15-26.62c22.72-1.26,28.84-7.89,24.79-25.86C1190.55,219.83,1186.45,224,1179.6,246.82Z"/>
    <path class="cls-2"
          d="M930.27,323.81l7.15-23.1c13.75,5.68,24,4.11,32.94-10.22l-21.87-80.89c3.47-1.25,9-3.76,14.72-5.19,15.33-3.82,23,1.53,25.18,17.24,2,14.35,3.62,28.73,5.87,46.76,12.34-22.08,31.15-36.83,28.26-64.61l31,5.17c-2.07,8.35-2.15,15.16-5.24,20.07a405.59,405.59,0,0,1-72,85.61C963.71,326,949.15,326.27,930.27,323.81Z"/>
    <path class="cls-3"
          d="M958.48,176.93c2.17,18.92-.5,20.85-37.36,26.5l-21.6,97.24c-15.47,7.08-26.17,6.35-34.07-4.51l23.67-95.22-25.2,5.32c-6.8-16.38-.11-26.65,18.2-26.92,19.56-.28,39.14.14,58.7-.15C946.72,179.11,952.6,177.71,958.48,176.93Z"/>
    <path class="cls-2"
          d="M1254.14,269.45c6.63,16.08,15.48,22,30.77,17.56l6.18-9.84c-7.55-6.18-14.12-12.3-21.42-17.37-18.58-12.9-19.23-33.56-1.11-47.24,16.09-12.15,43.31-14.31,65.06-3.09l-12.48,20.47c-23.6-16.1-26.62-16.26-35.06-.68,6.73,4.83,13.61,10.2,20.92,14.92,15,9.69,19.13,25.33,10.21,40.2C1305.5,303.89,1262,313.71,1243,301c-2.42-1.63-4.17-4.25-8.38-8.68Z"/>
    <path class="cls-2"
          d="M1083.68,302.76a8,8,0,0,1-1.59.77c-31.36,5.22-36.07-.39-27.65-30.5,5.84-20.91,10.15-42.24,16-67h29.81l1.11,19.58c13.17-10.26,21.91-29.23,42.9-20,3.88,16.92-5.53,26.67-12.28,33.88-8.18.7-15.3-.87-18.15,1.92C1096.91,257.89,1084.22,277,1083.68,302.76Z"/>
</svg>