<svg id="Layer_1" data-name="Layer 1" xmlns="http://www.w3.org/2000/svg" viewBox="0 0 1367 419.42">
    <defs>
        <style>
            .cls-1{fill:#f2d602;}.cls-2{fill:#212025;}.cls-3{fill:#212024;}.cls-4{fill:#695f17;}.cls-5{fill:#c3010d;}
        </style>
    </defs>
    <title>Dunlop</title>
    <rect class="cls-1" width="1367" height="419"/>
    <path class="cls-2"
          d="M262.74,259.72,271,241h19.23l27.55-62H299l8.87-20H423.66c1.84,0,3.69,0,5.52.13,12.18.92,20.06,8.42,20.05,20.68,0,7.23-.94,14.88-3.47,21.58-4.17,11-9,22.06-15.29,32-11.41,18.16-29.24,26.21-50.18,26.48-38.15.49-76.32.26-114.47.31A24.23,24.23,0,0,1,262.74,259.72ZM344,240.17c9,0,17.17.35,25.25-.2a11.29,11.29,0,0,0,7.52-4.29c5.35-7.75,10.84-15.59,14.75-24.1,3.26-7.09,5-15.07,6.26-22.84a8.26,8.26,0,0,0-7.38-9.7c-6.27-.4-12.58-.1-19.18-.1Z"/>
    <path class="cls-2"
          d="M675.18,196.56,655.69,240h19.66l-8.54,19H604.24l8-18h16.63l27.73-62H639.26l9-20h62.3l34.4,58.95L762.19,179H743.43l8.63-19h60.2l-8.45,19H789.34l-36.25,81H712.43Z"/>
    <path class="cls-2"
          d="M1016.07,260.9c-12.66-.68-23.3-1.19-33.92-1.88a48.16,48.16,0,0,1-8.35-1.48c-14.64-3.62-21.44-12.83-18.54-27.55a120.89,120.89,0,0,1,24.45-52.44c8.39-10.5,20.56-14.53,33.35-16.2,25.9-3.38,51.85-2.54,77.77,0a40.61,40.61,0,0,1,6.35,1.3c15.42,4.08,20.15,11.65,15.95,26.9a167.45,167.45,0,0,1-21,46.73c-8.56,13.22-21.45,19.8-36.67,21.55C1041.71,259.4,1027.9,260,1016.07,260.9Zm28.35-82.18c-3.94.27-6.47.22-8.91.66-7.54,1.35-14,4.53-17.3,12-4.83,10.79-9.55,21.63-14.3,32.45-3.68,8.38-.62,14.77,8.53,16.12a87.06,87.06,0,0,0,18.37.22c7.4-.5,12.8-4.59,15.87-11.3Q1054.36,212,1061.6,195c2.88-6.81.29-12.34-6.82-14.5C1051,179.37,1047,179.14,1044.42,178.72Z"/>
    <path class="cls-2"
          d="M1193.47,218.54,1183.94,240h18.19l-8.84,20h-89.74l8.42-19h18.08l27.58-62h-18.11l8.8-20H1273.4c16.88.07,22.11,6.84,16.76,22.92a119.82,119.82,0,0,1-9.76,21.14c-6.51,11.46-17.59,15.07-29.94,15.28-16.9.29-33.8.15-50.7.2Zm7.83-17.19c7.28,0,13.38.07,19.48,0,9.3-.14,16.09-7.4,15.9-16.78-.07-3.39-1.62-5.46-5-5.53-6.64-.13-13.28,0-20.4,0Z"/>
    <path class="cls-3"
          d="M471.82,179l8.58-19h83.94l-8,18H541.17s-3.75,9.24-5.56,13.32c-3.5,7.92-7.32,15.72-10.36,23.81a48.52,48.52,0,0,0-3,14.49c-.26,5.42,3.43,9.3,8.66,10.82,12.33,3.56,23.94-.93,29.47-12.5,7.24-15.17,13.7-30.71,20.46-46.11a14.92,14.92,0,0,0,.51-2.83H564.86l8.34-19H630L622,178H605s-6.36,14.91-9.46,21.86Q587.7,217.42,579.9,235c-5.85,13.25-16.59,20.18-30.3,22.58a179.15,179.15,0,0,1-59.19.63l-.49-.09c-21.16-3.76-28.09-15.66-20.17-35.6,5.1-12.84,10.95-25.37,16.45-38,.65-1.5,2.22-5.47,2.22-5.47Z"/>
    <path class="cls-3"
          d="M923.38,159l-8.74,20H899.36l-27.19,61h28.23l24.76-29h19.6l-22,49H789.32L798,241h18.54l27.55-62H825.17l8.73-20Z"/>
    <path class="cls-2"
          d="M94.24,295l36.17-31.67c-19.25-1.11-34.84-8.07-46-23.39a51.24,51.24,0,0,1-9.83-33.86c1.2-22.09,19.24-49.61,57.2-49.66-9-7.83-17.22-14.87-25.36-22A308.52,308.52,0,0,1,82.65,112.2l164.29,97.12c-7.55,4.54-14.16,8.56-20.81,12.5q-63.38,37.49-126.78,74.95c-.71.42-1.48.77-2.22,1.15L95.27,299l0,0-1.89,1.09h0l-1.13.81,0,0-1.94,1h0c-.27-.54-.9-1.3-.73-1.57a38.61,38.61,0,0,1,2.67-3.5h0l1-.94,0,0Zm43.59-135.34a49.77,49.77,0,1,0,.27,99.54c27.56-.09,50.05-22.57,50-50A49.91,49.91,0,0,0,137.83,159.69Z"/>
    <path class="cls-4" d="M92.14,296.9a38.61,38.61,0,0,0-2.67,3.5c-.17.27.47,1,.73,1.57l-7.95,5.24-1.12-1.5Z"/>
    <path class="cls-4" d="M95.27,299l1.85-1.09Z"/>
    <path class="cls-4" d="M93.35,300.12,95.24,299Z"/>
    <path class="cls-4" d="M90.24,302l1.94-1Z"/>
    <path class="cls-4" d="M94.24,295l-1,.91Z"/>
    <path class="cls-4" d="M93.17,295.95l-1,.94Z"/>
    <path class="cls-4" d="M92.21,300.93l1.13-.81Z"/>
    <path class="cls-5"
          d="M97.84,230.33l4.6-10.64,7.09-.7,7.55-16.86L105,201.58l5.89-13.06a23.91,23.91,0,0,1,3-.41c15.31,0,30.61-.1,45.91,0,8.76.07,16.05,3.32,20.09,11.47,5.19,10.46,1.3,21.7-9.8,27.28a34.68,34.68,0,0,1-14.28,3.7c-18.29.44-36.59.21-54.89.21A26.69,26.69,0,0,1,97.84,230.33Zm39.47-11.6.86,1.54c3.84-.59,7.9-.6,11.49-1.9,5.85-2.11,9.2-8,7.41-12.47-2.21-5.49-7.09-4.34-12-4.11Z"/>
</svg>