<svg id="Layer_1" data-name="Layer 1" xmlns="http://www.w3.org/2000/svg" viewBox="0 0 1367 419.42">
    <defs>
        <style>.cls-1{fill:#22579f;}</style>
    </defs>
    <title>Exide</title>
    <polygon class="cls-1" points="662.7 14.99 605.48 301.06 682.85 301.06 740.71 14.99 662.7 14.99"/>
    <polygon class="cls-1"
             points="968.92 301.06 1175.02 301.06 1188.67 234.74 1074.89 234.74 1087.25 183.38 1192.57 183.38 1205.58 122.91 1095.7 122.91 1108.05 76.75 1224.43 76.75 1236.78 14.99 1031.34 14.99 968.92 301.06"/>
    <path class="cls-1"
          d="M223.19,234.74l11.7-51.36H324l13-60.46h-91l10.4-46.16H371.42l12.35-61.11H178.33L154.92,122.26h-78L66.5,182.73h74.77l-26,118.33H322l13-66.32Zm-28.61-43.56c-7.15,18.2-11.05,40.31-15,40.31-5.85,0,8.45-44.21-2.6-58.51-11.05-13.65-59.16-9.1-59.16-15,0-6.5,48.76.65,65-13,5.2-4.55,9.1-11.05,12.35-18.2,8.45-17.55,11.05-39,15-39,6.5,0-9.75,41.61,2.6,56.56s60.46,5.85,60.46,13.65c0,6.5-46.16-.65-64.37,13.65C202.38,175.58,197.83,182.73,194.58,191.18Z"/>
    <polygon class="cls-1"
             points="650.34 14.99 558.67 14.99 506.66 82.6 477.4 14.99 387.03 14.99 446.84 151.52 322.01 301.06 352.57 301.06 414.33 301.06 477.4 227.59 507.31 301.06 596.38 301.06 537.87 154.12 650.34 14.99"/>
    <path class="cls-1"
          d="M983.87,147c7.15-37.06,5.2-66.32-5.85-86.47C961.77,29.29,926.66,15.64,871.4,15.64H764.12l-42.91,197-18.85,88.42H825.88a204.49,204.49,0,0,0,28.61-2c64.37-10.4,105.33-57.86,124.18-127.43C980.62,163.87,982.57,155.42,983.87,147Zm-76.07-2c-8.45,39.66-20.81,74.12-53.31,87.12C844.74,236,833.69,238,820,238H799.23L833.69,77.4h20.81C897.4,77.4,916.91,103.41,907.8,145Z"/>
    <path class="cls-1"
          d="M154.27,364.12c2.6-1.3,3.9-3.25,5.85-6.5a20.77,20.77,0,0,0,2-9.1,18,18,0,0,0-2-8.45,22.69,22.69,0,0,0-3.9-5.85c-2-1.3-3.25-2.6-5.85-3.25-2-.65-5.2-.65-9.75-.65H119.16v72.82h18.2c7.15,0,11.7,0,13-.65,2.6-.65,5.2-1.3,7.15-3.25s3.25-4.55,4.55-7.8a26.09,26.09,0,0,0,2-9.75,21.37,21.37,0,0,0-2.6-11.05C160.12,367.37,157.52,365.42,154.27,364.12ZM130.22,342h15.6a4.39,4.39,0,0,1,3.9,2.6,12.25,12.25,0,0,1,1.3,5.2,13,13,0,0,1-1.3,5.85c-1.3,1.3-2.6,2.6-4.55,2.6h-15Zm21.46,44.86c-1.3,1.3-2.6,2.6-3.9,2.6a68.45,68.45,0,0,1-7.8.65h-10.4v-19.5h9.1c5.2,0,8.45.65,9.75,1.3a7.83,7.83,0,0,1,3.25,3.25A13,13,0,0,1,153,381,6.24,6.24,0,0,1,151.67,386.88Z"/>
    <path class="cls-1"
          d="M270,329.66l-21.46,72.82H260.9l4.55-16.25H286.9l4.55,16.25h11.7L281.7,329.66Zm-1.3,44.21,7.15-26.66,7.8,26.66Z"/>
    <polygon class="cls-1"
             points="380.53 342.02 396.13 342.02 396.13 402.48 407.18 402.48 407.18 342.02 423.44 342.02 423.44 329.66 380.53 329.66 380.53 342.02"/>
    <polygon class="cls-1"
             points="507.31 342.02 523.56 342.02 523.56 402.48 533.96 402.48 533.96 342.02 550.22 342.02 550.22 329.66 507.31 329.66 507.31 342.02"/>
    <polygon class="cls-1"
             points="649.04 370.62 676.35 370.62 676.35 358.27 649.04 358.27 649.04 342.02 678.3 342.02 678.3 329.66 637.99 329.66 637.99 402.48 679.6 402.48 679.6 390.13 649.04 390.13 649.04 370.62"/>
    <path class="cls-1"
          d="M805.08,376.48c-1.3-2-3.25-4.55-5.85-5.85a17.57,17.57,0,0,0,11.05-6.5q3.9-4.88,3.9-13.65a23.8,23.8,0,0,0-2.6-11.7,14.09,14.09,0,0,0-6.5-7.15c-2.6-1.3-7.15-2-12.35-2H770v72.82H781V371.92h2c2.6,0,4.55,0,5.2.65,1.3.65,2,1.3,3.25,3.25,1.3,1.3,3.25,5.2,5.85,10.4l7.8,15.6h13l-6.5-14.3A99.75,99.75,0,0,0,805.08,376.48Zm-16.9-15.6h-7.8v-18.2h16.25c2,.65,3.25,1.3,3.9,2.6a13,13,0,0,1,1.3,5.85,12.25,12.25,0,0,1-1.3,5.2,7.83,7.83,0,0,1-3.25,3.25C796,360.22,793.38,360.87,788.18,360.87Z"/>
    <rect class="cls-1" x="903.9" y="329.66" width="11.05" height="72.82"/>
    <polygon class="cls-1"
             points="1017.03 370.62 1044.34 370.62 1044.34 358.27 1017.03 358.27 1017.03 342.02 1046.29 342.02 1046.29 329.66 1005.98 329.66 1005.98 402.48 1047.59 402.48 1047.59 390.13 1017.03 390.13 1017.03 370.62"/>
    <path class="cls-1"
          d="M1170.47,362.17c-2.6-2-6.5-3.25-11.7-5.2s-8.45-3.25-9.75-4.55a6.28,6.28,0,0,1,0-9.1c2-2,4.55-2.6,7.8-2.6s5.2.65,7.15,2.6a21.7,21.7,0,0,1,3.25,7.8l11.05-.65a27,27,0,0,0-5.2-16.25q-4.88-5.85-15.6-5.85c-3.9,0-7.8.65-10.4,2.6-3.25,2-5.2,3.9-6.5,7.15s-2.6,6.5-2.6,10.4a21.42,21.42,0,0,0,5.2,14.3,30.89,30.89,0,0,0,12.35,7.15c4.55,1.3,7.8,2.6,8.45,3.25a6.66,6.66,0,0,1,3.9,3.25,9.4,9.4,0,0,1,1.3,4.55,9.78,9.78,0,0,1-2.6,7.15,11,11,0,0,1-15.6,0c-2-2-3.25-5.85-3.9-10.4l-10.4,1.3c.65,7.8,2.6,14.3,6.5,18.85s9.1,6.5,15.6,6.5c4.55,0,8.45-.65,11.7-2.6a16.54,16.54,0,0,0,7.15-7.8,25.5,25.5,0,0,0,2.6-11.7,31.5,31.5,0,0,0-2-11.7C1175,366.72,1173.07,364.12,1170.47,362.17Z"/>
    <path class="cls-1"
          d="M1275.79,15a24.71,24.71,0,1,0,24.71,24.71A24.7,24.7,0,0,0,1275.79,15Zm0,44.86a20.15,20.15,0,1,1,20.15-20.15A20.26,20.26,0,0,1,1275.79,59.85Z"/>
    <path class="cls-1"
          d="M1280.35,42.29c-.65-.65-1.3-.65-2-1.3,2.6-.65,4.55-1.3,5.85-2.6a7.38,7.38,0,0,0,2-5.2,9.24,9.24,0,0,0-1.3-3.9,6.49,6.49,0,0,0-3.25-2.6c-1.3-.65-3.25-.65-5.85-.65h-12.35V53.35h3.9V41.64h5.85c.65,0,1.3.65,2,.65.65.65,1.3.65,2,2a38.5,38.5,0,0,1,2.6,3.9l3.9,5.85h4.55l-4.55-7.15C1282.3,44.9,1281,43.59,1280.35,42.29Zm-5.2-3.9h-7.8v-9.1h8.45a9.4,9.4,0,0,1,4.55,1.3,5,5,0,0,1,1.3,3.25,3.91,3.91,0,0,1-.65,2.6l-2,2Z"/>
</svg>