<svg id="Layer_1" data-name="Layer 1" xmlns="http://www.w3.org/2000/svg" viewBox="0 0 1367 419.42">
    <defs>
        <style>.cls-1{fill:#00498f;}.cls-2{fill:#fedf19;}.cls-3{fill:#fddf19;}</style>
    </defs>
    <title>Goodyear</title>
    <rect class="cls-1" width="1367" height="419"/>
    <path class="cls-2"
          d="M1189.4,148.17c13.22,0,26.14,0,39.06,0,14,0,28-.06,42,.12a59.35,59.35,0,0,1,21.74,4c12.5,5.06,18.74,14.59,19.78,27.77,1.66,21-7.81,36.56-24,48.79-1.48,1.11-3,2.14-4.71,3.33,3.18,14.16,9.57,42.81,9.57,42.81h-55.39l-7.78-36h-8.08L1213,274h-55.9S1178.62,190.46,1189.4,148.17Zm38,67.83H1235c9.75,0,14.93-5.46,15.85-16.59a66.77,66.77,0,0,1,5.24-21.42c2.64-6,1.33-11-3.61-14-3.83-2.34-8-.7-12.07-1.25Z"/>
    <path class="cls-2"
          d="M493.84,275l31.68-126.72c.62,0,1.07-.08,1.52-.08,22.05,0,44.11-.05,66.16.12a63.08,63.08,0,0,1,25.05,5c13.53,5.93,21.27,16.54,22.38,31a96.94,96.94,0,0,1-18.44,65.48c-9.63,13.41-23.45,20.6-39.54,23.16a162.7,162.7,0,0,1-23.53,1.89c-20.81.25-41.63.09-62.45.09Zm80.5-111.2-23.19,94c4.52,0,8.86.25,13.15-.06,5.42-.4,9.8-5.08,11.47-11.87,5.77-23.43,11.4-46.9,17.27-70.3a9.42,9.42,0,0,0-8.17-11.69C581.47,163.46,578,163.8,574.34,163.8Z"/>
    <path class="cls-2"
          d="M207.45,224.88c.55-14.81,3.27-27.87,9.3-40.12,7.45-15.13,19-26,34.69-32.2,18.72-7.37,38-9.66,57.55-3.48,14.42,4.55,25.23,13.2,30.11,28,3,9.24,3.06,18.72,1.6,28.21-2.1,13.68-6.1,26.75-13.25,38.72-10.57,17.72-26.38,27.76-46.45,31.37-9.38,1.69-18.87,2.68-28.38,1.4C231.84,274,212,259.28,208.39,234,207.9,230.6,207.68,227.13,207.45,224.88ZM265.4,260c5.48.1,9.7-3.63,11.26-10.09q9.25-38.22,18.45-76.46a7.74,7.74,0,0,0-4.26-9.28c-7.37-3.85-15.3.22-17.43,9q-9,37.09-18,74.18C253.69,254.28,258.14,259.92,265.4,260Z"/>
    <path class="cls-2"
          d="M413.17,277.67c-17,.27-31.56-5-43.15-17.53-8.33-9-12.31-19.95-12.64-32.07-.6-22.24,4.9-42.58,20.13-59.45,8.89-9.85,20.25-15.84,32.92-19.35,10.65-2.94,21.54-4.42,32.56-3.34,14.49,1.42,27.81,5.79,37.86,17.15a39,39,0,0,1,9.83,23.54A95,95,0,0,1,472,251.28c-9.68,13.15-23.28,20.51-39.13,23.64C426.38,276.21,419.75,276.77,413.17,277.67Zm2.38-17.58c.45-.07,1.22-.15,2-.33,5.61-1.36,7.75-5.63,9-10.68q9.08-37.67,18.16-75.34c1.14-4.72-.88-8.42-5.44-10.1-7.37-2.71-14.21,1.33-16.2,9.54q-9,37.09-18.06,74.17c-.74,3-.83,5.83,1.2,8.35A11.87,11.87,0,0,0,415.56,260.08Z"/>
    <path class="cls-2"
          d="M176.65,156l-9.29,17.36c-2.31-1.46-4.44-3-6.74-4.23-8.34-4.44-17-6.64-26.36-3.45a13.81,13.81,0,0,0-9.49,10q-9,35.9-18,71.82a13.78,13.78,0,0,0-.31,4.15c.21,3.27,2,5.35,5.2,5.51,4.86.24,9.75.06,14.77.06L138.52,209h52.73l-15.87,66h-2.44c-24.13,0-48.27.08-72.4,0-12.08-.06-23.38-2.88-32.75-11A37.09,37.09,0,0,1,55.06,237.6c-1.57-23.9,4.32-45.71,20.4-64,13.2-15,30.37-23.09,49.65-27.2a67.64,67.64,0,0,1,45.19,5.67c1.25.61,2.43,1.36,3.62,2.09C174.77,154.71,175.59,155.31,176.65,156Z"/>
    <path class="cls-2"
          d="M1006.42,275l75.33-127h50l11.82,127h-53.86l-2-21h-44.07l-12.89,21ZM1086,235l-4.21-44.36-.51-.11L1055,235Z"/>
    <path class="cls-2"
          d="M928.36,148h101l-6.3,24H978.77l-6.82,26h29.3l-5.66,24H966.42l-7.24,29H1004l-6.32,24H897.23Z"/>
    <path class="cls-2"
          d="M846.08,275h-58l15.87-56.7L783.71,148h56s9,29.24,13.61,44.17C865.47,177.34,889.24,149,889.24,149H917.7c-2.44,3.13-4.66,6-6.91,8.87q-25.3,32.21-50.56,64.45a12,12,0,0,0-1.92,4.35C854.21,242.72,850.18,258.79,846.08,275Z"/>
    <path class="cls-2"
          d="M892.33,91.65c-1.51,13-8.43,21.29-20.48,25.43-11.18,3.84-22.74,4.14-34.38,3.55q-9.84-.5-19.67-1.27c-2-.15-3.93-.79-5.92-1-1.26-.14-2.79-.33-3.79.23a4.73,4.73,0,0,0-2.18,3.14c-.08.78,1.23,2.17,2.2,2.52,2.81,1,5.77,1.62,8.57,2.36-2.78,3.6-10.58,6.73-15.18,6.07a4.48,4.48,0,0,0-2.89.3c-1,.71-2.24,1.88-2.38,3-.09.73,1.54,1.71,2.46,2.5a5.23,5.23,0,0,0,1.51.53A14.32,14.32,0,0,1,790,143c-4.45.09-8.92-.42-13.38-.64-1.34-.06-2.68,0-4.37,0,0,3.29,0,6.19,0,9.09a27.45,27.45,0,0,1-3.31,13.33c-.51,1-1.68,1.61-2.75,2.59l-5-7.11a18.26,18.26,0,0,0-1,3.12c-.21,2.23-.16,4.49-.44,6.71A14.63,14.63,0,0,1,754,180.41l-4.55-8.6a5.27,5.27,0,0,0-4.14,4.36,119.36,119.36,0,0,1-3.22,12c-1,2.71-2.71,5.3-6.13,5.16-3.26-.13-4.74-2.73-5.84-5.31a61.15,61.15,0,0,1-4.51-34.43,6,6,0,0,0-.43-3c-5.63-13.86-6.31-27.54,2.08-40.57,5.07-7.87,13-11.9,21.8-14.26,9.08-2.43,18.31-2.41,27.62-2,20,.9,40,1.92,60,2.23,17.08.26,34.16-.55,51.06-3.53ZM781.52,108.4a11.47,11.47,0,0,0-2.65-.33,14.13,14.13,0,0,1-7.92-.88,3.45,3.45,0,0,0-3.07,1.19c-1.77,2.74-4.32,3.09-7.08,2.76-4.38-.53-4.64-.48-6.79,3.56-1.74,3.27-4.29,4.49-8.07,3.91-.81-.12-1.64-.12-2.66-.18l-.32,2.29c4,4.5,9.29,4.28,13-.21a5,5,0,0,1,3.32-1.58c4.21-.15,8.25-.45,10.53-4.45C774.26,113.62,779.43,114.63,781.52,108.4Zm-44.37,34.74.85,5.38,3.39.79-.57-10.57-7.13-2.17C732,139.42,732.61,140.57,737.16,143.14Z"/>
    <path class="cls-2"
          d="M675.21,207.63l25.57,49.27c-2.77,3.16-5.54,6.47-8.47,9.62-13.43,14.49-27.47,28.35-43.75,39.65-5.92,4.11-12.54,7.22-18.85,10.77a5.31,5.31,0,0,1-1,.34c-3.06-2.09-4-4.62-2.93-8.31,1.42-5,4.66-8.84,7.88-12.7,2.78-3.32,5.73-6.5,8.39-9.9a55.7,55.7,0,0,0,10.15-20.14c3.66-13.77,9.57-26.69,14.89-39.83,2.29-5.65,4.77-11.21,7.17-16.81C674.48,209.06,674.76,208.55,675.21,207.63Z"/>
    <path class="cls-2"
          d="M747.82,192.71l9.93,21.06a248.56,248.56,0,0,0-50.9,36.82l-23.71-47.87,34.39-18.43c3.36,6.72,6.62,13.25,9.89,19.77.31.62.64,1.23,1,1.82,2.47,3.93,5.59,4.47,8.65,1,3.3-3.76,6.13-7.93,9.16-11.93C746.74,194.3,747.2,193.6,747.82,192.71Z"/>
    <path class="cls-3"
          d="M637.74,327.77l-4.5-5.13c2.78-1.4,5.47-2.65,8.07-4.06a169.2,169.2,0,0,0,37.21-27.84c10.53-10.24,20.37-21.18,30.76-31.56,14-14,29.29-26.61,46.57-36.56,1.13-.65,2.36-1.16,3.55-1.71.62-.29,1.27-.52,2.11-.86l3.08,6.12a8.94,8.94,0,0,1-1.15.84c-15.67,7.83-29,18.83-41.49,30.91-10.33,10-20,20.66-30.26,30.78-13,12.81-26.75,24.62-42.78,33.52C645.34,324.19,641.61,325.86,637.74,327.77Z"/>
    <path class="cls-2"
          d="M675.77,168.09l-11.88-21.23,50.82-29.38A32.48,32.48,0,0,0,712.38,132c.3,4.84.84,9.67,1.29,14.79Z"/>
    <path class="cls-2" d="M680.3,195.3l3-18.62,26.6,2.37.1.52Z"/>
    <path class="cls-2" d="M690.9,168.81,717,154.35v17.1l-26-2.08Z"/>
</svg>