<svg id="Layer_1" data-name="Layer 1" xmlns="http://www.w3.org/2000/svg" viewBox="0 0 1367 419.42">
    <defs>
        <style>
            .cls-1{fill:#3a3285;}.cls-2{fill:#e22a2d;}.cls-3{fill:#393185;}.cls-4{fill:#24231f;}.cls-5{fill:#1f1e1a;}
        </style>
    </defs>
    <title>Gt-Radial</title>
    <path class="cls-1"
          d="M47,206c3.5-8.34,3.84-17.43,6.13-26.08,5.7-21.52,16.82-40,30.78-57a193,193,0,0,1,26.15-26.46,162.59,162.59,0,0,1,33.86-21.17c15.84-7.59,32.61-11.48,49.55-15.37a127.92,127.92,0,0,1,15-2.43c17.81-1.93,35.62-3.39,53.61-3.31,73.33.33,146.66.14,220,.15,2.48,0,5,.15,7.44.23l-16.25,75.48c-2,2.56-4.71,2.53-7.6,2.53q-79.53,0-159.07.07c-19.43,0-38.29,3.73-54.85,13.87a86,86,0,0,0-35.72,43.84c-9.36,25-12.16,51-4.76,77.18,3.22,11.4,8.82,21.74,17.67,30.15,6.3,6,14.12,8.67,22.07,10,12.9,2.09,26,1.16,39.06.34,2.92-.18,4.32-1,4.48-5.26a99.67,99.67,0,0,1,6-30.78c2.41-6.56,1.48-7.91-2.68-7.82-8.49.18-17-.12-25.47.14-3.92.12-4.67-1.54-3.93-4.8,5.53-24.13,11.21-48.22,16.47-72.4,1-4.53,3.54-4.16,6.68-4.16q47.22,0,94.45,0c23.61,0,47.22.13,70.83-.1,5.08,0,6.77.62,5.49,6.39Q443.91,272.29,426,355.5c-1,4.75-2.63,6.52-8,6.5-73.94-.22-147.88-.37-221.82.07a158.89,158.89,0,0,1-47.7-7.46C117.22,345,90,327.75,69.74,301.4c-12.34-16.06-18.63-35-21.45-55-.16-1.14.29-2.57-1.29-3.13Z"/>
    <path class="cls-2"
          d="M473.84,130.06l16.25-75.48c2.27-.08,4.55-.23,6.82-.23h816c7.71,0,7.77,0,6.19,7.31-4.82,22.19-9.75,44.35-14.5,66.55-.72,3.36-2,5.25-5.7,4.66a28.19,28.19,0,0,0-4.34,0q-277.79,0-555.58-.16c-6,0-7.84,1.72-9.12,7.4-16.49,73.46-33.3,146.84-50,220.27-.79,3.47-2.11,4.9-6,4.89q-66.18-.26-132.37,0c-4.27,0-5-.94-4.08-5.16q19.08-85.47,37.82-171c3.78-17.12,7.35-34.29,11.41-51.35,1.16-4.89-.45-5.48-4.7-5.46q-51,.19-101.92,0C477.85,132.22,474.85,133.71,473.84,130.06Z"/>
    <path class="cls-3"
          d="M983.66,362.19q-132.4,0-264.79.14c-6,0-6.73-1.41-5.18-6.85,4.5-15.85,8.63-31.81,12.54-47.82,1.06-4.34,2.74-5.8,7.37-5.78,46.2.2,92.41.12,138.61.12h386c7.66,0,7.72,0,6.25,7.57-3,15.58-6.45,31.09-9.07,46.73-.86,5.14-2.87,6-7.56,6Q1115.74,362.09,983.66,362.19Z"/>
    <path class="cls-4"
          d="M823.65,265c-9.28,0-18.17-.07-27.06,0-2.32,0-3.15-.9-3.71-3-3.47-13.11-7.1-26.17-10.66-39.25-.87-3.19.19-4.4,3.65-4.21a130.8,130.8,0,0,0,14.89-.08c5.62-.34,8.24-4.56,8-12.21-.23-7.34-2.41-10.12-8.44-10.25-6.41-.14-12.85.3-19.24-.16-4.42-.32-5.46,1.86-6.2,5.42-4,19-8.17,37.85-12,56.82-.91,4.47-2.85,6.21-7.45,5.9a158,158,0,0,0-16.76,0c-4.13.17-5.7-1.16-4.75-5.43q8.43-37.64,16.61-75.33c.91-4.21,2.72-5.5,7.09-5.44,18.41.27,36.84-.23,55.25.21,9.43.22,19.08,4.93,22.05,13.83,3.75,11.26,1.13,24.78-7.23,30.72a28.82,28.82,0,0,1-11.76,4.44c-3.85.64-4.39,1.88-3.2,5.17,3.14,8.65,6.05,17.39,9.26,26A19.73,19.73,0,0,1,823.65,265Z"/>
    <path class="cls-5"
          d="M1078.86,265.69c4.25-9.45,8.19-18.34,12.24-27.18,8.72-19,17.61-38,26.16-57.12,1.3-2.9,2.58-4,5.74-3.9q18.62.28,37.24,0c3.07,0,4.5.68,5.69,3.79,10,26.35,20.29,52.62,30.57,78.88,1.34,3.43.82,4.68-3.19,4.56-8.68-.27-17.38-.2-26.06-.06-2.92,0-4.1-.79-4.95-3.82-1.94-6.89-4.8-13.51-6.92-20.35-.85-2.74-2.18-3.42-4.84-3.38-8.69.14-17.38.23-26.06,0-3.14-.1-4.11,1.26-5.1,3.83-2.78,7.22-6,14.26-8.79,21.48-.86,2.26-1.76,3.37-4.29,3.34C1097.42,265.62,1088.56,265.69,1078.86,265.69Zm59.09-41.38a79.45,79.45,0,0,1,8,.05c4.28.44,5-1.34,3.76-5-2.19-6.61-4.15-13.3-6.39-19.89-.51-1.52-.68-3.46-3.44-3.46a4.3,4.3,0,0,0-4.52,3.11c-1.84,4.55-3.61,9.12-5.41,13.69C1125.46,224.31,1125.46,224.31,1137.95,224.31Z"/>
    <path class="cls-5"
          d="M830.19,265.69c4.28-9.66,8.23-18.76,12.35-27.79,8.69-19,17.54-38,26.15-57.11,1.08-2.4,2.17-3.34,4.88-3.31,12.82.16,25.65.19,38.48,0,3.06,0,4.05,1.17,5.06,3.8q15.17,39.48,30.64,78.84c1.28,3.27,1,4.74-3.1,4.61-8.89-.28-17.79-.17-26.68-.07-2.39,0-3.47-.6-4.23-3.13-2.11-7.06-4.86-13.92-7.08-21-.83-2.63-2-3.52-4.81-3.46-8.69.19-17.38.24-26.06,0-3.13-.1-4.13,1.23-5.13,3.81-2.79,7.21-6,14.25-8.8,21.47-.86,2.24-1.73,3.4-4.27,3.37C848.73,265.62,839.87,265.69,830.19,265.69Zm59-41.38c2.68,0,5.38-.2,8,0,4.09.38,5.12-1,3.8-4.92-2.25-6.58-4.13-13.28-6.37-19.87-.51-1.5-.63-3.54-3.41-3.55a4.27,4.27,0,0,0-4.57,3.06c-1.81,4.55-3.61,9.11-5.43,13.65C876.63,224.31,876.62,224.31,889.2,224.31Z"/>
    <path class="cls-5"
          d="M985,264.91c-8.48,0-17-.14-25.44.06-3.76.09-4.53-1.15-3.83-4.73,5-25.65,10-51.32,14.73-77,.62-3.38,2.14-3.79,4.93-3.77,12.41.08,24.83.29,37.24,0,20.73-.52,28.63,10.38,31.32,28.19,2.37,15.69-.25,30.9-10,43.83-6.17,8.15-14.27,14-25.32,14-7.86,0-15.72,0-23.59,0Q985,265.16,985,264.91Zm12-19.07c6.71.91,14.58.07,18.91-9.21,4.51-9.65,5.95-19.7,3.43-30a11.35,11.35,0,0,0-7.72-8.59c-5.12-1.81-10.07-1-15.05-1.6-4.23-.53-5.84,1.41-6.45,5.25-1.7,10.77-3.62,21.51-5.35,32.28C982.91,245.81,983,245.81,997,245.85Z"/>
    <path class="cls-5"
          d="M1231.06,245.76c13.21,0,26,.08,38.81-.05,3.51,0,5.06.05,4.09,4.63-3,14-2.68,14.07-16.71,14.07-16.13,0-32.27-.14-48.39.1-4,.06-4.85-1-4.07-4.83C1210,234.46,1215,209.22,1220,184c.65-3.25,1.91-5,5.72-4.6a92.76,92.76,0,0,0,13.64,0c3.86-.2,4.28,1,3.55,4.69C1238.82,204.46,1235,224.87,1231.06,245.76Z"/>
    <path class="cls-5"
          d="M1059.08,264.64c-11.59,0-11.68,0-9.44-11.28,4.58-23,9.28-46,13.86-69.07.69-3.44,2.06-5.66,6-4.82a9.48,9.48,0,0,0,1.24,0c5.3.39,12.48-2.31,15.31,1.25,2.14,2.7-1,9.69-1.94,14.73-4,20.6-8.38,41.13-11.87,61.81-1.08,6.4-3.62,8.33-9.49,7.38A23.75,23.75,0,0,0,1059.08,264.64Z"/>
</svg>