<svg id="Layer_1" data-name="Layer 1" xmlns="http://www.w3.org/2000/svg" viewBox="0 0 1367 419.42">
    <defs>
        <style>.cls-1{fill:#fe2106;}.cls-2{fill:#080808;}.cls-3{fill:#020202;}</style>
    </defs>
    <title>Hankook</title>
    <path d="M-2-187H1370V606H-2ZM167.4,230.49l.19.22c6.09-6.29,12.5-12.3,18.2-18.93,16.59-19.3,23.66-66.78,23.66-66.78H174.67s-20.81,56.22-48.93,63.87C145,191.13,157.2,144,157.2,144H123S63,200.76,17.91,207.15c19.91,11.58,38.55,21.66,56.37,33,18.35,11.69,35.91,24.63,53.8,37C211,275.89,261.1,144,261.1,144H228S201.06,222.29,167.4,230.49ZM1291,196.86l61.14-32.23c-39.22-3.58-74.28-4.05-104.63,20.44l6.8-21.06h-51.27l-33.17,92h51.23s7.23-18.79,10.71-27.82l12.61-6.55C1251.09,233.69,1263,255,1263,255h60.42Zm-494.72,24.8c6.87,12.14,19.2,33.34,19.2,33.34h60.06l-31.81-58.4,60.37-32.26c-38.88-3.65-73.77-3.9-104,20l6.5-20.37h-51l-33.17,92h51.37s6.72-18.64,10.12-28.08ZM359.73,256h50.44l33.15-92H392.39L380.2,196H342.7l10.58-32H302.2l-33.12,92h51.29l13.35-36H371.3Zm241.8-91.67L568.47,256H620c6.19-17.14,12-34.48,18.68-51.45,7-17.63,25.52-21.54,40.05-7.7-6.58,19.07-13.39,38.8-20.42,60.15h50.5c7.47-21.63,15.12-42,22.16-62.49,6-17.48,1.16-27.93-17.12-29.67-20.21-1.92-40.82.41-63.89.94C647.4,162.4,638.29,161.46,601.53,164.33Zm-73.91,33c-18.07,0-35.21-2.09-51.55.65-13.5,2.27-27.73,8.11-38.38,16.5-6.59,5.19-11.62,19.68-9,27.12,2.5,7.25,15.3,14.58,24.08,15.26,17.43,1.34,35.21-1.89,53.79-3.3,14.34,7,31.39,1.17,48.14,3.42,2.28-5.72,4.43-10.68,6.26-15.75,6-16.78,12.57-33.42,17.74-50.47,4.2-13.83-1.14-22.92-16.6-26-34-6.74-67.81-4.15-102.19,5.66l6.35,18.77c18-1.68,34.57-3.72,51.24-4.56C524.84,184.24,531.8,186.74,527.63,197.3Zm405.86,61.64c32.17-.91,62-11.73,79-29.77,10.87-11.49,16.39-25,12.39-40.77s-16.89-22.62-31.07-23.74c-20-1.59-41.17-3.65-60.24,1-17.39,4.26-35.26,14.47-48.27,26.92-24.76,23.69-14.45,54.8,18.79,62.52C913.67,257.34,923.68,257.71,933.49,258.93ZM1123.76,161c-9,.4-15,.26-20.92,1-23.77,3-45.27,11.57-62,29.17-24.11,25.34-15.22,57.72,18.94,63.49,20,3.39,42.06,3.48,61.61-1.35,17.34-4.28,35.26-14.6,48-27.22,23.93-23.69,13.45-54-19.2-61.58C1140.59,162.33,1130.59,161.9,1123.76,161Z"/>
    <path class="cls-1"
          d="M167.4,230.49C201.06,222.29,228,145,228,145H261.1S211,275.89,128.1,277.2c-17.9-12.4-35.46-25.34-53.81-37-17.83-11.35-36.47-21.43-56.37-33C63,200.76,123,144,123,144H157.2S145,191.13,125.74,208.87c28.12-7.64,48.93-64.87,48.93-64.87h34.77s-7.07,48.48-23.66,67.78c-5.7,6.63-12.11,12.64-18.2,18.93l-.55.09Z"/>
    <path d="M167.4,230.49l-.36.3.55-.09Z"/>
    <path class="cls-2"
          d="M519.94,219.25l-4.32,12.41c-14,1.93-27.55,7.65-40.65-2.37C483.23,214.83,497.23,211.81,519.94,219.25Z"/>
    <path class="cls-3"
          d="M960.2,188.07c17.47.71,22.68,10.66,13.38,25.53-8.51,13.61-27.6,21.58-42.56,17.77-9.41-2.39-13.06-7.7-10-17.54C925.94,198.23,942.1,187.33,960.2,188.07Z"/>
    <path class="cls-3"
          d="M1090.07,232.3c-2.3-1.15-10.72-2.67-12.57-7-2.2-5.14-.37-13.55,2.55-19,7.51-14.14,26.87-21.38,42.54-17.5,9.71,2.4,12.75,8.24,9.73,17.79C1127.79,220.9,1111.11,232.3,1090.07,232.3Z"/>
</svg>