<svg id="Layer_1" data-name="Layer 1" xmlns="http://www.w3.org/2000/svg" viewBox="0 0 1367 419.42">
    <defs>
        <style>
            .cls-1{fill:#224393;}.cls-2{fill:#eb2029;}.cls-3{fill:#4e4e50;}.cls-4{fill:#214293;}.cls-5{fill:#eb1f28;}.cls-6{fill:#eb212a;}.cls-7{fill:#eb2028;}.cls-8{fill:#ec212a;}.cls-9{fill:#eb222a;}.cls-10{fill:#ec212b;}.cls-11{fill:#ec232b;}.cls-12{fill:#7e8ebb;}
        </style>
    </defs>
    <title>Hifly</title>
    <path class="cls-1"
          d="M182.38,299l21.53-44H145c-5.73,12.11-11.75,24.44-17.4,36.93-2.65,5.86-6.72,8.45-13.11,8.4-19.52-.14-39-.05-58.55-.05C69.47,281.56,76.3,259.61,87.69,240a374.07,374.07,0,0,0,22-45.52c3.16-7.63,8-11.13,15.93-11,17.34.24,34.69.08,52.91.08L161.5,220h59.89c4.3-8.75,8.79-17.5,12.92-26.41,3-6.49,7.58-9.61,14.91-9.51,17.07.25,34.14.08,51.93.08-.62,1.62-1,2.93-1.62,4.16-16,34-32.07,68-48,102-2.82,6-6.87,8.86-13.65,8.76-16.74-.25-33.48-.09-50.22-.09Z"/>
    <path class="cls-1"
          d="M649,236c0,14.64-12.78,27.83-26.26,27.84-26.4,0-52.8,0-79.72,0-4.14,8.72-8.56,17.4-12.41,26.33-2.79,6.47-7.17,9.17-14.18,9-15.05-.27-30.12-.08-45.72-.08.56-1.45.93-2.66,1.48-3.79,16.8-34.27,33.69-68.5,50.37-102.83,3.27-6.74,8-9.65,15.58-9.62,48.07.18,96.13.09,144.2.09h5.37c.72,13.66-11.71,27.49-24.76,27.58-29.45.2-58.9.1-88.35.12h-6.55l-12,25.29Z"/>
    <path class="cls-1"
          d="M947.92,299.31l22.5-46-35.72-69.5c1.71-.15,2.93-.36,4.15-.36,14.18,0,28.37.42,42.52-.18,8.6-.37,14.22,3.26,18.33,10.06,5.39,8.91,10.52,18,16.06,27.51,2.71-2.58,5.38-5,8-7.59,11-10.76,21.92-21.51,32.79-32.35,4.49-4.47,10.12-5,15.91-5,19.74-.06,39.49,0,59.23,0a56.87,56.87,0,0,1,12.32.92q-11,7.39-21.92,14.77c-31.5,21.11-63,42.15-94.45,63.4a20.26,20.26,0,0,0-6.34,7.4c-4.87,9.61-9.35,19.41-13.85,29.2-2.46,5.34-6.37,7.88-12.32,7.83C979.78,299.23,964.44,299.31,947.92,299.31Z"/>
    <path class="cls-2"
          d="M1114.91,144.8c18-5.6,35.75-11.88,53.93-16.66,29.29-7.71,59.08-12.44,89.55-10.57,11.16.69,22.1,2.62,32.32,7.44,17.13,8.08,23.83,22.56,18.71,40.79-5.47,19.44-17.78,34.64-31.32,48.89-28.48,30-62,53.4-97.54,74.08-55.5,32.32-114.09,57.17-176.68,72.21q-3.19.77-6.41,1.42a7.46,7.46,0,0,1-1.71-.1c14.33-5.38,28.56-10.36,42.5-16,56.45-23,109.78-51.55,157.71-89.53,19-15,36.63-31.41,50.61-51.36,6.8-9.7,12.69-19.93,14.15-32,1.82-15.07-4.37-26.11-18.15-32.8-10.67-5.18-22.12-7.09-33.8-7.68-29.27-1.48-57.79,3.53-86.07,10.38-2.59.63-5.26,1-7.89,1.42Z"/>
    <path class="cls-1"
          d="M707.75,299c12.45-25.37,24.48-49.91,36.52-74.44,5-10.26,10.19-20.47,15.1-30.78,2.9-6.09,7.41-8.86,14.2-8.76,13.92.19,27.84.06,42.78.06L775.44,272H869c-1.59,16.65-12.72,27-28.49,27H707.75Z"/>
    <path class="cls-1"
          d="M917.58,374.8c12.86-4.79,25.82-9.35,38.58-14.42,63.17-25.13,123.22-56,177.16-97.82,16.82-13,32.56-27.29,45.6-44.25,6.3-8.19,11.71-16.87,14.32-27,3.28-12.8-1.06-23-12.63-29.42-10.65-5.88-22.38-7.18-34.21-7.62-20.16-.74-40,2.22-59.73,5.93l-2.1-1.11c33.16-9.49,66.63-17.59,101.38-16.84a114.12,114.12,0,0,1,32.67,5.47c17.58,5.77,23.35,19.55,17.13,37-5.32,15-15.23,26.91-26,38.15-25.66,26.75-55.68,47.92-87.28,66.88-61.75,37.05-127.14,65.66-197.09,83.4-2.59.66-5.25,1.07-7.88,1.6Z"/>
    <path class="cls-3"
          d="M320.76,181.14l15.53-12.36-23.78-7.33.07-1c1.14-.09,2.28-.23,3.42-.26,12.64-.35,25.29-.41,37.91-1.11s21.53-7.88,28.24-18.1c3.53-5.38,2.35-10.76.08-16.35a650.43,650.43,0,0,0-38-77.46c-.39-.69-.64-1.45-1.21-2.78,12.87,2.77,23.6,8.4,32.46,17.26,16.18,16.19,29.29,34.78,41.23,54.2,3.5,5.69,4.58,11.85,1.57,18.32-1,2.06-1.25,4.43-2,7.3,8.33-.55,13.8,4.07,18.81,10L415,164.44l-.62-.89c-.34.58-.94,1.13-1,1.73-1,13.27-8.67,23-16.95,32.52-13.12,15-26.54,29.78-44.86,38.7a77.58,77.58,0,0,1-19,6.19c2.68-2.74,5.42-5.42,8-8.25a45.56,45.56,0,0,0,5.46-6.63q15.09-24.46,29.92-49.08a47.1,47.1,0,0,0,2.61-6.17c-18.38-1.19-36-.37-52.74,7.18a30,30,0,0,1-5.18,1.32Z"/>
    <path class="cls-4"
          d="M329.49,299.32l10.63-21.71c4.81-9.82,9.57-19.66,14.48-29.43.78-1.55,2-3.33,3.46-4,19.53-8.92,33.53-24,45.79-41,4.43-6.13,8.4-12.59,12.78-19.2h32.1c-.55,1.49-.94,2.84-1.53,4.1q-24.27,51.58-48.53,103.16c-3.33,7.12-8.7,9.52-18.16,7.8A116.85,116.85,0,0,0,339,299C334.7,299.77,333.61,299.51,329.49,299.32Z"/>
    <path class="cls-5"
          d="M381.44,334.9c-5.4,9.27-16.29,28.1-16.29,28.1H359V327.71l5-.35c0,9.63,0,28.65,0,28.65l1,.26L381.35,328H387v27l.86.23L403.36,328h5.33l-20.26,34H382V335.13A1.94,1.94,0,0,0,381.44,334.9Z"/>
    <path class="cls-5"
          d="M725.37,363.84l9.8-36.89c7,.41,14.12.14,20.92,1.39,7.77,1.42,11,7.54,9,15.25-2.62,10.28-9.34,16.73-19.64,18.68C739.27,363.44,732.83,363.31,725.37,363.84ZM732.1,359c11.7,2.2,21.29-1.82,25.54-10.54,5.08-10.41,1-17.24-10.47-17.63-2.48-.08-5,0-7.55,0Z"/>
    <path class="cls-6" d="M493.06,363H487.7l4.09-16H471.86l-4.43,16h-5.34l9.24-35h5.4l-3.52,14H493l4.27-15h5.31Z"/>
    <path class="cls-5"
          d="M240,327.2c4.92,0,9.28-.13,13.63,0,4,.16,8.18.77,9.43,5.21,1.34,4.75-1,8.5-5,11.1a30.69,30.69,0,0,1-2.81,1.54c.9,6,1.75,11.7,2.66,16.91H253c-1.28-4-1.85-9-4.08-13.18-.85-1.59-5.49-1.14-8.65-1.66-1.57,5.59-3,10.56-4.42,15.84h-5.29C233.67,351.08,236.72,339.52,240,327.2Zm.77,17.76c5-1.07,9.38-1.33,13.08-3.11,2-1,4-4.74,3.67-6.82-.31-1.77-3.89-3.44-6.33-4.2-2-.64-4.51.1-6.8.23Z"/>
    <path class="cls-7"
          d="M691,328h5.53c-1.84,6.58-3.61,13.34-5.36,20.09-1,4-2,8.1,2.35,10.84,3.24,2,9.63,1.08,12.6-2.28a23.48,23.48,0,0,0,4.58-8.19c2.15-6.7,3.78-13.58,5.72-20.45H722c-2.1,7.36-3.84,14.88-6.23,22.19-3.19,9.76-12,14.82-22.17,13.36-6.5-.93-10-5.26-8.63-11.74C686.65,343.78,688.92,335.87,691,328Z"/>
    <path class="cls-5" d="M543.22,328H550l4.68,35h-5.58l-1.71-11h-14.7l-7.38,11h-5.24ZM535,348h12.19l-1.89-15.91Z"/>
    <path class="cls-6" d="M802.69,327l-1.12,4h-17l-3,11h15.92l-.82,4H780.51l-3.39,13h18.11l-1.32,4H770.49L780,327Z"/>
    <path class="cls-8" d="M291.78,359l-.72,4h-23.7l9.54-36h22.94l-1.35,4h-17l-3,11H294.6l-1.29,4H277.48l-3.68,13Z"/>
    <path class="cls-5"
          d="M300.2,361.27l2.19-3.38c12.48,4,19.71,1.15,19.13-8.32-2.27-1.09-5.2-2-7.52-3.75-2.5-1.87-6-4.4-6.17-6.84-.19-2.86,2-6.85,4.47-8.73,5.83-4.51,12.67-4.35,20-1.93l-2.25,3.6c-10.59-2.82-15-1.31-17.42,6.81,2.26,1.31,4.66,2.93,7.26,4.16,3.68,1.74,7.9,3,7.91,8s-3.15,8.34-7.43,10.54C314.62,364.42,307.22,364.4,300.2,361.27Z"/>
    <path class="cls-2"
          d="M208.67,363h-5.89l3.79-14.84-7.46-20.07,5.9-.41,5.59,16.76L225,328h5.82C222,339.12,208.56,346.66,208.67,363Z"/>
    <path class="cls-9" d="M194.45,327c-.66,2.15-1.56,5-1.56,5H180.51l-8.34,31H166.8L175,332H162.76s.55-3.38.78-5Z"/>
    <path class="cls-8" d="M610.56,331H598l.82-4h30.89l-1.19,5H616l-8.34,31h-5.55Z"/>
    <path class="cls-6" d="M435.53,363l8.11-31H431.26l1.2-5h30.36l-.56,4H449.47l-8.68,32Z"/>
    <path class="cls-6" d="M682.85,327l-.78,4H669.22l-8.62,32h-5.26l8.09-31H651.1l1-5Z"/>
    <path class="cls-10"
          d="M571.08,359H588l.81,1.3c-1.21.85-2.39,2.38-3.63,2.43-6.57.24-13.16.11-20.61.11L574,327h5.43Z"/>
    <path class="cls-9" d="M414.42,363H409l9.31-35h5.31Z"/>
    <path class="cls-11" d="M634.09,363.7l-5.35-.31,9.4-35.4h5.38Z"/>
    <path class="cls-12" d="M1084.55,159.06l2.1,1.11L1070.79,164l-.26-1Z"/>
    <path class="cls-1" d="M917.49,374.75,917,375l.55-.19Z"/>
    <path class="cls-2" d="M1114.82,144.71l-.23.2.32-.1Z"/>
    <path class="cls-3" d="M320,181.06v.22c-.26.28-.07.08.11-.13Z"/>
</svg>