<svg id="Layer_1" data-name="Layer 1" xmlns="http://www.w3.org/2000/svg" viewBox="0 0 1367 419.42">
    <defs>
        <style>
            .cls-1{fill:#221f20;}.cls-2{fill:#e21735;}.cls-3{fill:#e21836;}.cls-4{fill:#231f20;}.cls-5{fill:#242021;}.cls-6{fill:#231f21;}.cls-7{fill:#2e2b2c;}.cls-8{fill:#343132;}.cls-9{fill:#797878;}.cls-10{fill:#f2a5b0;}
        </style>
    </defs>
    <title>Kenda</title>
    <path class="cls-1"
          d="M0,419V0H1367V419ZM1116.24,47c-21.24,28.31-42.08,56.19-64.2,85.79-.66-13.27.06-23.69-1.89-33.59-6.5-33-31.58-51.84-70.71-52.38-50.27-.7-100.55-.29-150.82-.34-17.64,0-35.28,0-53.21,0l-22.27,59.58C746.07,84.35,734,47,734,47H367.58S347.72,63.07,335.3,73c3.24-10.26,8.15-25,8.15-25H242.29L160.36,272H260.42s11.33-41.36,29.14-59.18c3.42,22.31,9.2,60.18,9.2,60.18H665.37s14-38,21.81-59c6.86,20.91,19.56,60,19.56,60H811.45L804,315h24.25l-13,65h49.76l13.69-64h9.62l-13,64h233.51l4-10.32c22.25,16.48,46.26,19.11,70.09,6.2,23.24-12.59,27.1-32.87,16.28-56.49l12.92-3-13.48-43,11.36-1.17V47Z"/>
    <path class="cls-2"
          d="M685.58,159.33C674.17,190.23,651.19,253,651.19,253H596.56l67.9-186h54.68s21,65.55,32.68,101.9C765.06,133.13,789.44,68,789.44,68h54.49l-67.3,184H721.28s-20.46-63.13-30.79-95.25l-1.29-7.25Z"/>
    <path class="cls-2"
          d="M452,67l-92.6,69.27L387.51,252H316.42s-7.65-48.34-11.5-72.87C272.52,194,248.29,252,248.29,252H189L256.63,67h58.23S299.17,111,290,136.25C320.54,111.46,374.79,67,374.79,67Z"/>
    <path class="cls-2"
          d="M815.89,251.32,883.14,67.74c35.36,0,70.18-1.44,104.82.45,28.9,1.58,45.34,20.57,43.12,49.25-3.58,46.26-21,86.84-59.93,114.4-13.17,9.33-29.91,17.42-45.59,18.62C889.72,253.19,853.52,251.32,815.89,251.32ZM926,109.88,889.69,209.5c37.38,5.41,54.32-3.57,69-35.9,2.11-4.64,3.95-9.41,5.63-14.22C978.74,118.25,971,107.79,926,109.88Z"/>
    <path class="cls-2"
          d="M598,136l-13.45,38H494l-13.59,37h99.28l-14.65,41H406.86L474.45,67H630.38l-13.8,39H519L507.4,136Z"/>
    <path class="cls-3"
          d="M1190,67V252h-57V224h-66.49l-20.27,29H987.42L1125.66,67Zm-52.54,52.14L1096,181h40.28l3.61-61.05Z"/>
    <path class="cls-4"
          d="M959.66,369H933c6.12-29.42,12.12-58.55,18.25-88.28,15.52,0,30.37-.1,45.21,0,12.49.11,24.73,1.22,29,16,3.7,12.88-1.34,22.62-13.83,30.61,1.38,14.51,2.65,27.91,4,42.61H989V341.18c-7.35-1-14.25-1.83-21.83-2.78C964.46,349.54,962.1,359.27,959.66,369Zm11.56-50c22.4,2.37,25.48.78,26.26-14.89l-23.25-2.29Z"/>
    <path class="cls-4"
          d="M1118.71,282l-5,22h-45l-3.11,11h42.56l-3.88,21h-41.66l-2.95,10h45.79l-3.91,23h-75.3l18.24-87Z"/>
    <path class="cls-4"
          d="M1198.14,307h-23.54c-6.06-8.63-13.66-12.33-25.54-1.9,4.86,3,8.47,6,12.58,7.71,5.13,2.18,10.91,2.85,16,5.11,18.43,8.17,22.46,28.19,8.85,42.61-13.43,14.24-46.44,17.15-61,4-5.81-5.25-8.42-14-13.78-23.5h28.59l8.28,13.1,19.9-6.63.21-5.77c-6.51-2.68-12.88-5.78-19.55-8-19.08-6.32-26.56-14.83-24.75-28.91s15-24.74,32.36-25.9c24.35-1.61,37.73,5.51,41.37,22.14C1198.47,302.75,1198.14,304.6,1198.14,307Z"/>
    <path class="cls-5" d="M841.72,304H817.41l4.24-23h77.47l-4.56,22H870.21L856,369H828.57Z"/>
    <path class="cls-6" d="M909.31,281h27.9l-18.29,88H891.1Z"/>
    <path class="cls-5" d="M437,106.86,401.42,210.1l-3.18-.11L382,144.55l54.55-38.19Z"/>
    <path class="cls-7" d="M1069.08,256h41.72l-.61,13h-48.54Z"/>
    <path class="cls-8" d="M1032.8,283.22,1020.73,274h14.1Z"/>
    <path class="cls-9" d="M940.8,268.8l10.68-3.7,1.13,3.22-10.45,3.62Z"/>
    <path class="cls-10" d="M685.58,159.75l3.62-9.83,1.29,7.25Z"/>
    <path class="cls-5" d="M436.54,106.35l1.34-2,1,1L437,106.85Z"/>
</svg>