<svg id="Layer_1" data-name="Layer 1" xmlns="http://www.w3.org/2000/svg" viewBox="0 0 1367 419.42">
    <defs>
        <style>.cls-1{fill:#ec1b23;}.cls-2{fill:#4b4c4e;}</style>
    </defs>
    <title>Kumho</title>
    <path class="cls-1"
          d="M1265.58,117.77c-20.27,8.15-39.49,15.86-58.7,23.61-21.15,8.53-42.25,17.2-63.47,25.58-10.1,4-20.12,4-28.95-3.3-8.41-7-11.77-16.1-9.6-26.88,2.29-11.44,10.31-17.59,20.65-21.44q39.66-14.75,79.3-29.58,42.2-15.67,84.46-31.2c11.79-4.31,23-3.39,32.49,5.57,10.08,9.56,11.18,21.31,6.72,33.82-8.12,22.78-16.45,45.49-24.71,68.23Q1286.38,210.1,1268.9,258c-6.21,16.91-20.23,24.55-35.28,19.56-14.8-4.91-22.45-20.06-16.72-35.45,9.83-26.44,20.4-52.59,30.7-78.85C1253.42,148.42,1259.31,133.62,1265.58,117.77Z"/>
    <path class="cls-2"
          d="M317,260V364H292V223h38.5c9.88,35.72,19.92,72.36,30,109h1.09c10.11-36.44,20.21-72.88,30.38-109H429V364H405V258.18c.08-.08-.34-.17-.77-.25C394.5,293.3,375,365,375,365H346.6s-18.9-70.49-28.35-105.35Z"/>
    <path class="cls-2"
          d="M971.39,311H952v53H925V224.16a8.92,8.92,0,0,1,2.45-.6c20.28.42,40.68-.38,60.79,1.72,19.52,2,32.21,15.23,35.22,32.24,3.7,20.9-3.57,36.82-21.68,47.4l-2.1,1.23L1031.56,364h-31.8ZM952,287c10-.55,19.63-.41,29.06-1.79,9.89-1.44,15.2-9,15.23-19.42,0-9.42-5.5-17.26-14.73-18.56-9.62-1.36-19.45-1.24-29.55-1.79Z"/>
    <path class="cls-2"
          d="M581.61,297.17c.67-26,5.3-46.36,22.23-62,30.33-28,91.77-21,104,35.34,4.88,22.49,3.92,44.81-7.47,65.45-11.85,21.49-36.43,33.9-59.47,30.94-29.05-3.74-48.63-20-55.67-47.21C583,311.06,582.35,302,581.61,297.17Zm100-3.84,1.54-.42c-2.51-10-4-20.38-7.75-29.91-5-12.84-15.17-19.83-29.4-19.9-14-.07-24,6.72-29.24,19.24-9,21.33-9.07,43,1.1,64C623,337,632,342.84,644.18,343.4c12.81.59,22.57-4.5,29.12-15.48C679.65,317.27,681.58,305.52,681.6,293.33Z"/>
    <path class="cls-2" d="M453,222h27v56h56V223h28V364H536V302H480v62H453Z"/>
    <path class="cls-2"
          d="M158,222h27v7.08q-.26,40.37-.15,80.74a64.13,64.13,0,0,0,.48,7.79c2.88,23.25,27.53,33.88,46.84,20.22,5.62-4,8.22-9.75,9.12-16.3a104.79,104.79,0,0,0,1-13.79c.09-26.11,0-52.22-.28-78.33V223h28.07c0,3.64,0,7.42,0,11.19-.2,28.28.42,56.59-.8,84.82a49.71,49.71,0,0,1-41.54,47c-14.53,2.32-28.76,1.59-42.37-4.35-16.6-7.25-26.53-20.24-27-38C157.38,290.16,158,256.63,158,222Z"/>
    <path class="cls-2"
          d="M63,364H36V222H63c0,21.38,0,64.72,0,64.72l1.47.51,51-65.23h31.86l-53,65.8L151,364H115.19S81.26,315.41,63,289.32Z"/>
    <path class="cls-2" d="M1044,223h90v23h-62v32h56v24h-57v38h64v24h-91Z"/>
    <path class="cls-2" d="M854,222v24H817V364H789V246H752V222Z"/>
    <path class="cls-2" d="M875,222h27V364H875Z"/>
</svg>