<svg id="Layer_1" data-name="Layer 1" xmlns="http://www.w3.org/2000/svg" viewBox="0 0 1367 419.42">
    <defs>
        <style>
            .cls-1,.cls-3{fill:#f47920;}.cls-1{stroke:#fff;stroke-opacity:0;stroke-width:0.08px;}.cls-2{fill:none;stroke:#231f20;stroke-miterlimit:3.86;stroke-width:0.67px;}.cls-4{fill:#fff;}.cls-5{fill:#231f20;}
        </style>
    </defs>
    <title>Maxxis</title>
    <path id="path8298-7" class="cls-1"
          d="M18,209.71c0-71.9,297.95-130.19,665.5-130.19S1349,137.81,1349,209.71,1051.05,339.9,683.5,339.9,18,281.61,18,209.71"/>
    <g id="g8300">
        <path id="path8302"
              d="M43.73,210.7C43.73,144.61,329.45,91,681.92,91s638.19,53.57,638.19,119.66S1034.39,330.36,681.92,330.36,43.73,276.78,43.73,210.7"/>
    </g>
    <g id="g8304">
        <path id="path8306" class="cls-2"
              d="M43.73,210.7C43.73,144.61,329.45,91,681.92,91s638.19,53.57,638.19,119.66S1034.39,330.36,681.92,330.36,43.73,276.78,43.73,210.7Z"/>
    </g>
    <g id="g8308">
        <path id="path8310" class="cls-3"
              d="M123.37,210.7c0-60.3,250.07-109.18,558.55-109.18s558.55,48.88,558.55,109.18S990.4,319.88,681.92,319.88,123.37,271,123.37,210.7"/>
    </g>
    <g id="g8312">
        <path id="path8314" class="cls-2"
              d="M123.37,210.7c0-60.3,250.07-109.18,558.55-109.18s558.55,48.88,558.55,109.18S990.4,319.88,681.92,319.88,123.37,271,123.37,210.7Z"/>
    </g>
    <g id="g8316">
        <path id="path8318" class="cls-4"
              d="M138.11,210.7c0-60.53,243.47-109.6,543.81-109.6s543.81,49.07,543.81,109.6-243.47,109.6-543.81,109.6S138.11,271.23,138.11,210.7"/>
    </g>
    <g id="g8320">
        <path id="path8322" class="cls-5"
              d="M1130,185.87l.54-2.88h3c1.36,0,3.16,0,2.94,1.16-.27,1.44-1.21,1.72-2.77,1.72Zm5,1.72c2.51-.14,4-1,4.39-3.1.57-3-1.55-3.49-4.78-3.49h-6.8l-2.15,11.42h3.13l.91-4.83h2.18l2.22,4.83h3.4Zm-4.5,7.62c-5.88,0-9.61-3.49-8.69-8.37s6-8.43,11.86-8.43,9.61,3.49,8.68,8.43S1136.25,195.21,1130.47,195.21Zm-.49,2.61c7.48,0,14.39-4.91,15.54-11s-3.9-11-11.38-11-14.39,4.9-15.55,11,3.88,11,11.39,11"/>
    </g>
    <g id="g8324">
        <path id="path8326"
              d="M1003.74,149.73c16.54-16.48,40.91-24.81,62.85-24.81,18.36,0,35,4.42,49.87,14.17l8,5.25L1098.29,192c11,8.61,17.41,21.78,14.38,41.07-6.5,41.29-47.47,59.56-81.36,59.56a134,134,0,0,1-48.54-9.46l-1.13,7.2H849.05L838.73,264l-18.82,26.33h-126L683.62,264,664.8,290.33H541.09l-2-17.76H515.32l-7,17.76H388.79l2.36-35.91-17.49,35.91H327.45l-5.51-35.2-9.11,35.2H239.43l52.64-163.15h71.25l5.06,45.52,20.52-45.52h70.8L460.78,227l51.15-99.82h73.26L610.67,250l39.08-47.07-40.08-75.76h84L700.38,145,712,127.18H848.78L855.49,145l11.63-17.79h140.16Zm-90.06,103,14.88-94.59-39.83,47.38ZM778.19,152.53l-44.57,53,26.87,50.84,44.37-53.44-26.67-50.41"/>
    </g>
    <g id="g8328">
        <path id="path8330" class="cls-3"
              d="M919.87,280l22.4-142.46h52.92L972.78,280ZM872.72,137.53H932.4l-56.07,66.69,40,75.77H856.11l-11.85-30.23a26,26,0,0,1-1.72-8.69H841a57.82,57.82,0,0,1-5.6,9.83L814.59,280H701l-11.85-30.23a26,26,0,0,1-1.72-8.69h-1.54a57.82,57.82,0,0,1-5.6,9.83L659.48,280H550.31l-2-17.76h-40l-7,17.76H399.83L405,202h-1a134.48,134.48,0,0,1-5.7,14.17L367.19,280h-30.9l-9.45-60.27a91.09,91.09,0,0,1-.49-17.76h-1.74c-1.28,5.67-2.58,11.53-4.06,17.2L304.81,280H253.64l46-142.46h54.46l8.32,74.82h1.35a175.5,175.5,0,0,1,6.64-18.89l25.21-55.93h53.88L450.89,269l67.36-131.45h58.52L604.9,273.14l57.22-68.92-35.28-66.69h59.67l7.64,20.21a47.59,47.59,0,0,1,2.6,11.72h1.16a61.5,61.5,0,0,1,6.48-11.72l13.22-20.21h59.68l-56.07,66.69,37.34,70.67,58.67-70.67-35.28-66.69h59.68l7.63,20.21a47.6,47.6,0,0,1,2.6,11.72H853a61.23,61.23,0,0,1,6.48-11.72l13.22-20.21ZM523.08,228.4h21.24l-2.23-25.13c-.59-6-.58-12.28-.59-18.33h-1.93Zm454.27,40.81L999.9,229l2.38,2.08c8.34,7.18,18.81,13,31,13,5.21,0,13.85-2.08,14.86-8.5s-5.85-7-10.53-7.94l-10.33-1.89c-20.1-3.59-35.61-15.5-32.1-37.79,5.32-33.82,39.77-52.71,71.44-52.71,16.61,0,31.24,4,44.2,12.47l-20,36.46c-8.13-6-17.62-10.77-29-10.77-4.63,0-11.66,1.7-12.58,7.56-.83,5.29,5.61,6,9.52,7l11.56,2.64c21.63,4.91,36,16.63,32.21,40.81-5.35,34-39.67,50.82-71.15,50.82-18.35,0-38.82-4.91-54-13"/>
    </g>
    <g id="g8332">
        <path id="path8334" class="cls-2" d="M919.87,280l22.4-142.46h52.92L972.78,280Z"/>
        <g id="g8336">
            <path id="path8338" class="cls-2"
                  d="M872.72,137.53H932.4l-56.07,66.69,40,75.77H856.11l-11.85-30.23a26,26,0,0,1-1.72-8.69H841a57.82,57.82,0,0,1-5.6,9.83L814.59,280H701l-11.85-30.23a26,26,0,0,1-1.72-8.69h-1.54a57.82,57.82,0,0,1-5.6,9.83L659.48,280H550.31l-2-17.76h-40l-7,17.76H399.83L405,202h-1a134.48,134.48,0,0,1-5.7,14.17L367.19,280h-30.9l-9.45-60.27a91.09,91.09,0,0,1-.49-17.76h-1.74c-1.28,5.67-2.58,11.53-4.06,17.2L304.81,280H253.64l46-142.46h54.46l8.32,74.82h1.35a175.5,175.5,0,0,1,6.64-18.89l25.21-55.93h53.88L450.89,269l67.36-131.45h58.52L604.9,273.14l57.22-68.92-35.28-66.69h59.67l7.64,20.22a47.55,47.55,0,0,1,2.6,11.71h1.16a61.4,61.4,0,0,1,6.48-11.71l13.22-20.22h59.68l-56.07,66.69,37.34,70.67,58.67-70.67-35.28-66.69h59.68l7.63,20.22a47.55,47.55,0,0,1,2.6,11.71H853a61.14,61.14,0,0,1,6.48-11.71Z"/>
            <g id="g8340">
                <path id="path8342" class="cls-2"
                      d="M523.08,228.4h21.24l-2.23-25.13c-.59-6-.58-12.28-.59-18.33h-1.93Z"/>
                <g id="g8344">
                    <path id="path8346" class="cls-2"
                          d="M977.35,269.21,999.9,229l2.38,2.08c8.34,7.18,18.81,13,31,13,5.21,0,13.85-2.08,14.86-8.5s-5.85-7-10.53-7.94l-10.33-1.89c-20.1-3.59-35.61-15.49-32.1-37.79,5.32-33.82,39.77-52.71,71.44-52.71,16.61,0,31.24,4,44.2,12.47l-20,36.46c-8.13-6-17.62-10.77-29-10.77-4.63,0-11.66,1.7-12.58,7.56-.83,5.29,5.61,6,9.52,7l11.56,2.65c21.63,4.91,36,16.62,32.21,40.81-5.35,34-39.67,50.82-71.15,50.82C1013,282.25,992.48,277.34,977.35,269.21Z"/>
                </g>
            </g>
        </g>
    </g>
</svg>