<svg id="Layer_1" data-name="Layer 1" xmlns="http://www.w3.org/2000/svg" viewBox="0 0 1367 419.42">
    <defs>
        <style>
            .cls-1{fill:#0060a8;}.cls-2{fill:#040506;}.cls-3{fill:#0061a8;}.cls-4{fill:#fee722;}.cls-5{fill:#fde622;}.cls-6{fill:#060707;}.cls-7{fill:#050607;}.cls-8{fill:#08090a;}.cls-9{fill:#151617;}.cls-10{fill:#070809;}.cls-11{fill:#090a0b;}
        </style>
    </defs>
    <title>Michelin</title>
    <path class="cls-1"
          d="M257.48,130.94c1.48,0,3,.06,4.45.06H1367V359H203c-2.05,0-4.11.07-6.16.12l-6.23-13c8.23-4.14,13-10.47,16.2-18.2,1.14,0,2.28.09,3.42.09H1113l4.71-14H209.5c.61-1.18,1.13-2.43,1.85-3.54,6.25-9.58,9.54-19.37,2.65-29.25v-17c8.67-8.38,12.31-18.78,10-31.21-.24-1.29.48-2.82.91-4.18,1.25-4,3.05-7.91,3.75-12,.64-3.77.14-7.74.14-12.31,5.28,7.13,12.26,9.13,19.93,9.65L250,217.4c-2.26,4.37-1.45,8.34,2.14,12.2a43.64,43.64,0,0,1,6.34,9c3.22,6,6.86,7.5,12,4.51,2.34-1.37,4.6-2.88,6.9-4.33l.12,1.07c3.55.07,7.23.76,10.62.07,7.79-1.59,9.6-9.46,7.77-17.51-1.91-8.36-7.63-14.4-14.51-19.3-2.18-1.55-4.21-3.33-6.15-4.87C280.85,182,279,177,263,163.37a22,22,0,0,0-7.45-18.24Zm186.09,85.37-.06-.07a18.32,18.32,0,0,1-.58,2.93q-8,21.71-16,43.41c-2.78,7.53-8.37,23.42-8.37,23.42h44.15l38.11-103H431.15s-23.51,36.65-35.78,55.24c.36-4.1.69-7.14.87-10.18.63-10.22,1.61-20.44,1.67-30.66.05-8.86-5.25-13.47-14-13.48-17.24,0-51.73.09-51.73.09h-3.32l-37,102h44.72s17.07-47.57,25.6-71.06l.58.13C361,238.44,357.52,285,357.52,285H396.9s13-19.09,19.51-28.68Q430,236.3,443.57,216.31ZM1195.68,285c8.28-22.55,16.52-45.41,24.77-68.27l.77.14c-.84,22.81-2.53,69.13-2.53,69.13h68.7l38.11-103h-41.67s-16.47,45.36-24.71,67.53c-.27-7.82.2-15.42.54-23,.45-9.89,1.16-19.79,1.09-29.68-.06-8.48-6.14-13.9-14.44-13.91-12.36,0-37.09.09-37.09.09h-17.78L1154.1,285Zm-500.59,0h46.43l12.55-33h24.39l-11.77,33H812.9l37.36-101h-47l-12.9,36H765.37l13.44-36H732.46Zm258.65-39,8.72-25h-52.9l4.1-11h55.62l9.29-26H877.5L840.13,285H943.55l9.38-27H895.49l4.42-12ZM709.27,185.62c-1.23-.33-2.19-.63-3.17-.84a138.52,138.52,0,0,0-42.53-2c-18.28,1.78-36,5.72-52.08,15.07-18.21,10.59-31.68,24.81-35.15,46.7-2.36,14.9,2.58,26,15.51,33.65a64.34,64.34,0,0,0,21.42,7.69c13.61,2.5,27.28,1.68,40.91.4,6.19-.58,12.32-1.84,18.32-2.77L684,253.38c-1.82.16-2.95.22-4.06.37-7.34,1-14.66,2.13-22,2.87-6.56.66-13-.16-18.86-3.49-7.65-4.34-10.14-11.05-6.85-19.17,3.4-8.38,9.65-14,17.79-17.58a58.12,58.12,0,0,1,27.31-4.84c7,.4,13.22,2.17,17.06,9.35ZM1027.5,251l24.22-67h-47.55L967.49,285H1063l12.41-34Zm87-67L1077.8,285h48.38l37.36-101Zm-537.24,0H528.13L491.45,285h48.41Z"/>
    <path class="cls-2"
          d="M207.19,328.11c-3.19,7.71-8,14-16.26,18.16l6.25,13c2.32,1.58,4.67,3.12,6.95,4.76,3.69,2.65,7.86,4.88,10.91,8.15,8.08,8.65,8.2,23.09-5.77,28.48a55,55,0,0,1-26.15,3.7A13.86,13.86,0,0,1,172,397.26a83,83,0,0,0-15.1-19.35,20.66,20.66,0,0,1-6.25-17.83l5.74-16.74c-5.3-3.63-9.26-9.6-12-16.43l-.58-13.08,1.68-6L139,295l-3,5.31V314l-6.14,13-9.27,7.63c-.72,2.39-1.29,4.86-2.2,7.18-3.47,8.81-10.26,14.06-18.85,17.29l-2.72.6c-4.9,9.1-5.25,18.2-2.7,27.87a52.88,52.88,0,0,1,1.31,15.6c-.27,6.1-4.17,10.26-9.85,12-18.53,5.56-34.79,2.45-45.91-14.33-3.92-5.92-4.12-9.93-.07-15.85s8.66-11.84,12.89-17.83c1.71-2.42,3.11-5.07,4.65-7.61l4.62-10a31.91,31.91,0,0,1-10.39-21.81l4.16-14.33,4.56-6.28c-.26-1.4-.6-3.07-.86-4.76-1.87-12.14,1.27-22.69,10.87-30.49a24.75,24.75,0,0,0,7-9.57c-4.65-15.58-3.45-24,5.46-38.71-2.55-11.11-1.38-21.58,6.18-30.66a46.36,46.36,0,0,1-1-22.61,6.66,6.66,0,0,0-.38-3.32c-1.41-3.83-3-7.6-4.62-11.77-10.68-1-19.17-6.67-25.32-15.71a39.73,39.73,0,0,1-17.36-8.92,29.14,29.14,0,0,1-9.62-15.89,7.11,7.11,0,0,0-2-3.34c-7-6.62-11-14.54-10.74-24.38a6.74,6.74,0,0,0-.35-2.67c-3.13-7.59-2-14.56,3-21-2.45-2.32-4.88-4.55-7.23-6.87C7.09,50.43,4.27,43.11,4,34.73a58.4,58.4,0,0,1,0-5.86A23.88,23.88,0,0,0,1.72,15.94C-.54,11.48,0,10.29,3.67,7A6.25,6.25,0,0,0,4.88,5.46C7.43.24,12.28-1.5,17.69.75a14.59,14.59,0,0,0,4.55,1.07c4.17.31,7.28,2.56,9.92,5.47,2.22,2.44,4.09,5.21,5.55,7.1,3.37-.8,6.62-2.4,9.66-2,2.61.3,5.37,2.44,7.28,4.5a6.43,6.43,0,0,1,.93,5.81c-2.33,4.62-1.42,8.8.2,13.24,1.54,4.24,2.73,8.62,4.44,14.13a19.51,19.51,0,0,1,9.53,12.29l1.73-1.71c2.2,3.09,3.92,6.76,6.74,9.09,2.64,2.18,6.49,4.17,9.72,4a33.48,33.48,0,0,1,15.17,2.74l23.25-4.54c-6.18-9.89-7.13-20.36.63-30.68-.32-14.48,5.55-25.2,19-31.64C151.84.45,166.6-.44,173.89,8.1a6.55,6.55,0,0,0,2.18,1.51c11,5.21,17.22,13.65,17.6,26.1,9.27,10.26,10.16,21.48,3.51,33.63,8.08.77,15.67,2.49,22.36,7.1a7.82,7.82,0,0,0,2.58.68c12.12,2.88,22,8.72,25.87,21.39,1.2,3.91.73,8.33,1.09,13.46,5.39,4.36,8.11,11.19,8.57,19.09l-2,14.22a22,22,0,0,1,7.48,18.27c16.15,13.66,18,18.69,12.28,34.91,1.94,1.54,4,3.32,6.17,4.88,6.91,4.91,12.66,11,14.57,19.34,1.84,8.07,0,16-7.8,17.54-3.41.69-7.1,0-10.66-.07l-.12-1.07c-2.31,1.45-4.59,3-7,4.35A8.06,8.06,0,0,1,259.92,241q-4.34-6.37-8.89-12.59a9.42,9.42,0,0,1-.88-10.71l-1.32-3.26c-7.71-.53-14.71-2.53-20-9.67,0,4.57.51,8.55-.14,12.33-.7,4.1-2.51,8-3.77,12-.43,1.37-1.16,2.9-.91,4.19,2.36,12.45-1.3,22.86-10,31.26v17c6.91,9.89,3.61,19.7-2.66,29.3-.73,1.11-1.25,2.36-1.86,3.55ZM186,69.58c11.43-5.4,11.39-21,.12-31.41A17.49,17.49,0,0,0,182,22.66c-3.83-4.51-9.11-6.61-14.72-8.11l.57-2.29c-4.23-3.13-9.77-3.16-14.5.07l4.6,2.52c-15.3,2.49-23.59,11.84-22.32,25.14H142l.31.94c-8.67,1.43-12.38,7-12.48,15.12s4.63,13.2,11.62,16.53c-3.55,3.69-3.51,3.66-.36,7.51.41.51.17,1.55.3,3.21C131,77.65,121.17,79,111.56,82.17c2.5,3.58,5.16,6.75,7.07,10.32s3.21,7.75,4.89,12c1.24.5,2.8,1.18,4.4,1.77s3.42,1.25,5.17,1.73c21.45,5.88,42.87,4.64,64.23-.43,8-1.9,15.79-4.61,22-10.33,5.53-5.08,5-10.25-1.19-14.36a23.53,23.53,0,0,0-3-1.65c-7.65-3.6-15.81-4.89-23.93-5.55-2.78,2-5.15,4.31-9.23,3.6C187,75.3,187.36,74.42,186,69.58Zm46.18,69c-17.22,14.31-37.48,19-58.62,20.53-21.39,1.51-42-1.34-60.16-14.55-5.66,6.3-13.18,8.48-21.49,10.39,1.36,3.17,2.26,6.15,3.83,8.72,4,6.51,9.72,11.27,16.29,14.83,30.27,16.4,61.84,18.1,94.13,7.25,11.31-3.8,20.52-10.92,25.74-22.18C235.64,155.38,236.28,147.08,232.15,138.54Zm-6-38.81c-14.29,12.13-31.59,15.44-49.21,17.33s-35.24.6-52.48-6.06c.85,10.54-1.91,19.91-6.69,28.71a55.57,55.57,0,0,0,18.83,10.07c16.81,5.21,33.9,5.24,51.06,2.35,11.41-1.92,22.35-5.28,32.06-11.88,5.89-4,10.72-9,12.61-16.07C234.79,114.83,231.11,107,226.11,99.73ZM95.8,174.06c-.85,5.95-.66,11.32,1.32,16.54,4,10.55,12.21,16.9,21.92,21.48,15.89,7.49,32.82,10.11,50.21,9.57,11.88-.37,23.58-2.29,34.56-7.25,9.19-4.16,16.87-10,20.69-19.82a20.82,20.82,0,0,0,1.2-12.89c-20.11,14.09-42.61,17.45-66,16S114.52,189.85,95.8,174.06ZM28.47,68.17c-7.64,7-4.6,18,5.74,21.6,11.29,3.92,26.67-4.08,30-15.61,2.22-7.62-1-15.32-8.3-17.94-.35,3.19-.78,6.17-1,9.17-.24,3.46-2.09,5-5.64,4.24.45-2.3,1.64-4.76,1.18-6.86a10.76,10.76,0,0,1,1.29-8.16,12.75,12.75,0,0,0,.84-11.22c-.91-2.46-1.71-5-2.63-7.41a18,18,0,0,1,.84-15.09l-4.75-2.06c-5.55,5.9-4.54,11.92-2.44,17.39l-6.41,8.59-1.12-.52L38.2,34.9c-1.11-4.25-1.91-9.48-3.85-14.25-2.62-6.43-6.71-10.2-10.13-10.87Q28.69,18,33.16,26.3c.93,1.73,1.68,3.49-.57,5.37-1-1.88-1.83-3.59-2.8-5.22-3.15-5.29-6.15-10.68-9.59-15.76-2.3-3.4-4.8-4.16-7.24-3.4,7.52,7.41,11,17.34,16.24,26.57-4.06,1-4.37-2-5.52-3.79-3.53-5.45-6.91-11-10.47-16.4-1.12-1.71-2.68-2.43-4.3-.55l2.71,6.46c4.7.47,7.26,2.56,7.9,6.32.79,4.66,1.71,9.3,2.6,14.15L19.5,41.47C18.29,36.09,17.3,31.21,16,26.4c-.39-1.48-1.57-2.76-2.67-4.61-.86,1.33-1.27,1.68-1.32,2.07-1.6,13.08.07,25,12,33.16a48.19,48.19,0,0,1,4.55,3.63,10.06,10.06,0,0,1,2.48,2.77c2.24,4.48,4.72,8.58,10.3,9.31.12,0,.21.33.31.5C37.31,76.93,33.56,75.54,28.47,68.17ZM168.68,227.41c-28.15-1.07-55-4.47-74.3-27.89a25.67,25.67,0,0,0-4.13,21.73c3.65,15.13,18.23,28.61,33.62,31,11.68,1.81,23,1,33.27-5.51C164.09,242.33,168.23,236.12,168.68,227.41Zm-11.57,25.15a52.21,52.21,0,0,1-39.1,3,48.37,48.37,0,0,1-29.71-24.67c-7.26,11-7.27,23.72.08,34.3,8.74,12.59,25.23,21.76,45.55,15.32C147.37,276.23,154.72,266.92,157.11,252.56ZM177.45,357l-2-4.67,11.22-2.12-.51-3.32a30.46,30.46,0,0,1-21.39-.62c-6.5,7.29-9.63,19.26-1.2,28.06a41,41,0,0,1,2.95,3.34c2.9,3.77,5.92,7.46,8.55,11.41,2.74,4.1,6.13,7.31,11,7.89a39.34,39.34,0,0,0,24.67-5,14.28,14.28,0,0,0,2.58-2.52l-.5-.87c-7.79,5.33-16,7.66-25,4.36,2-.89,4.08-.8,6.08-1.24,4.74-1,9.74-1.65,14.06-3.68,6.33-3,7.17-9.58,1.76-13.49-8.31-6-16.66-12.84-28.2-8.69-.15.05-.4-.17-.79-.34l-1.25-3.76,10-2.17L188.27,355ZM74.61,278.69A25.73,25.73,0,0,0,66.7,296.6c-.66,21,19,38.63,39.77,35.84C118.82,330.78,128.08,322,130,310a32.65,32.65,0,0,0,0-4.78C105.82,319.9,76.09,302.65,74.61,278.69ZM52,398.48a8.62,8.62,0,0,1,1.39.62,33,33,0,0,0,26.79,4.82c10.22-2.36,10.43-3.88,8.35-12.8-.6-2.56-1.15-5.13-1.85-7.65a29,29,0,0,1,.4-17.53c.79-2.32,1.47-4.68,2.26-7.19-7.2,0-13.94-.64-19-4.87-4.88,7.5-9.67,15-14.59,22.36-2.6,3.89-5.44,7.62-8.19,11.41s-2.82,7.34-.24,11.12c4.6,6.73,11.18,10.28,19,11.5,2.92.46,6,.07,9,.07l.09-1.08C66,409.29,57.6,407,52,398.48Zm97.52-119.73a22.16,22.16,0,0,0-2.46,15c3.22,17.63,19.74,29,37.73,26.16,10.83-1.69,19.38-6.48,23.8-17,2.06-4.9,2.76-9.95.26-15.15C191.35,306.83,157.85,301.57,149.54,278.75Zm-80.22-139c2.13,3,5.61,5.12,11,6.79,16.89,5.24,33.39-3,36.69-19.12a59,59,0,0,0,.28-20c-.75-5.08-3.26-10.18-6-14.61-3.5-5.59-9.19-8.68-16-10.42C111.28,114,94.49,137.63,69.32,139.8ZM82.24,79.5c1.67,12.39-1.65,22.66-11,30.47s-20.09,9.41-31.81,5.32c4.72,11.78,18,19.66,30.76,18.61,11.31-.93,22.22-10.38,24.5-21.25C97.24,100.59,91.47,84.67,82.24,79.5Zm78.54,184.05c10.31,8.9,27.67,10.13,40.63,2.83,11-6.17,17.25-18.27,15.34-29.63a3.81,3.81,0,0,0-.87.42c-14.37,12.32-30.66,15.57-48.77,10.56-1.17-.32-2.58.23-3.39.32Zm-27.07,22.61C113.36,290,96.62,284,83.46,267.65c-.68,1.61-1.29,2.82-1.7,4.09C77,286.42,86.95,302,103.05,305.07c10.25,2,19.53.29,26.84-7.83C132.62,294.21,134.31,290.66,133.72,286.16ZM26.83,91.9a8.91,8.91,0,0,0,.12,1.39c3.2,12.43,14.31,20.62,26.59,19.6a26,26,0,0,0,24-23.6C78.2,81.8,75.07,74.58,70,72,67.24,87.93,45.3,102.13,26.83,91.9ZM65.12,313.5c-6,5.74-6.63,14.74-2.17,24.12,6.26,13.16,19.38,17.43,30.9,16.07,9.65-1.14,17.34-8.7,18.64-17.57C91.28,340.25,75.46,332.83,65.12,313.5Zm142.11-44.92c-16.4,9.38-32.71,9.75-48.84-.82l-4.69,6.84a21.1,21.1,0,0,0,8.65,14c9.71,6.89,20.33,8.32,31.4,4C204.43,288.42,209.52,279.09,207.23,268.58Zm-37.71-24.77c26,7.76,54.72-8.06,52.6-34.78-6.7,6-14,10.6-22.35,13s-16.9,4.06-24.94,5.94ZM152.26,313c-1.72,10.16-.43,18.95,7.95,25.34,8.14,6.21,22.21,7.06,30.7,1.82,7.87-4.86,10.48-12.51,11-21.44C184,328.54,167.58,327.72,152.26,313Zm80.38-122.46c-.65,7.78,5,14.72,12.93,16.2,11.23,2.08,22.45-4.7,25.33-15.31a16.22,16.22,0,0,0-10.26-20C254.39,182.69,252.24,184.16,232.64,190.58Zm18.22-40.12-9.42,7.34-9.38,19.06.6,8.73c10.69-1.85,18.89-6.58,22.87-16.63C258.37,161.81,256,155.57,250.86,150.46Zm5.5,61.51c.88,4.17,3.63,6.35,7.93,7.07a7.88,7.88,0,0,1,3.51,1.91c4.53,3.86,8.83,8,13.47,11.71,3.33,2.66,5.57,2.11,8.44-1.79-.9-1.31-1.86-2.9-3-4.34-3.38-4.3-6.87-8.52-10.23-12.84a17.53,17.53,0,0,1-1.61-3.28l.89-.53L288,223.58c-2-10.41-11.21-14-17.79-19.68Zm-14-63.5c10.09-4.9,11.93-23,2.88-30L237,131.59ZM228.4,87.22l.73,6.3c6.82,5.47,8.9,13.22,9.72,21.91C245.26,104.63,240.62,92.41,228.4,87.22Zm46.07,145.45-3.26-4-7.13,5.73,2.22,3.77Zm-13.34-10.14-.45,9.38,5.93-4.28C266.18,225,266,222.28,261.13,222.53Zm-6,3.24,1.44.06,2.18-6.37c-1.37.2-2.85.18-2.91.46A55.94,55.94,0,0,0,255.11,225.76Z"/>
    <path class="cls-3"
          d="M41.36,130.83a39.59,39.59,0,0,0,17.3,8.89c6.13,9,14.59,14.63,25.23,15.65,1.65,4.16,3.2,7.92,4.6,11.73a6.64,6.64,0,0,1,.38,3.31,46.2,46.2,0,0,0,1,22.53c-7.53,9.05-8.7,19.48-6.16,30.55-8.89,14.66-10.08,23-5.44,38.57a24.66,24.66,0,0,1-7,9.54c-9.56,7.77-12.7,18.28-10.83,30.38.26,1.68.6,3.35.86,4.74l-5.38,7.41-27.8-.08c0-1-.11-2.06-.11-3.08q0-87.9,0-175.81v-3.41Z"/>
    <path class="cls-3"
          d="M100.23,358.54c8.56-3.22,15.32-8.45,18.78-17.23.91-2.32,1.48-4.77,2.2-7.16l7.85-6.46,16.37,0c2.67,6.28,6.45,11.73,11.41,15.12l-5.72,16.68a13.17,13.17,0,0,0-3.32-.89C131.94,358.56,116.09,358.56,100.23,358.54Z"/>
    <path class="cls-3"
          d="M52.54,328a31.69,31.69,0,0,0,10.31,21.21l-4.61,10c-7.13-.12-14.27-.24-21.4-.34-2.82,0-5.65,0-8.84,0,0-10.41,0-20.62,0-30.82Z"/>
    <path class="cls-4" d="M52.54,328H28q0-6.86,0-13.73l27.8.08Z"/>
    <path class="cls-5" d="M207.49,327.9l2.28-13.9h908.8l-4.73,14H210.91C209.77,328,208.63,327.93,207.49,327.9Z"/>
    <path class="cls-5" d="M145.43,327.73l-16.37,0,7.5-13.68,7.6.08Z"/>
    <path class="cls-1" d="M137,313.14c0-4.24,0-8.5,0-13.19l3-5.29,6.49,12.77-1.88,6.74Z"/>
    <path class="cls-1" d="M443.87,215.7l.09-.11-.15,0Z"/>
    <path class="cls-6"
          d="M164.52,38.4c-1.19,3.14-2,6.53-3.66,9.38-2.35,4-7.37,3.94-10.36.38-4.28-5.1-3.85-15.18.85-19.93,2.55-2.58,5-2.74,7.86-.55C162.67,30.32,164,33.93,164.52,38.4Zm-3.79,4.1c1.9-5.71.56-10.55-3.56-13.7-6,0-9.69,8-6.43,13.79.6-5.38,2.39-8.31,5-8.25C158.25,34.4,159.91,37,160.73,42.49Z"/>
    <path class="cls-7"
          d="M176,50.06c-4.84-.6-6.72-4.1-7.95-8.25a15.54,15.54,0,0,1,2-13.44c1.56-2.39,3.75-3.89,6.67-2.36,5.26,2.76,6.42,7.66,6.34,13.07C182.93,44.72,180.58,48.35,176,50.06Zm3.78-6.89c1.59-4.58,1.12-9.53-1.11-12.87-2-2.94-5.5-3.09-7.13,0-1.12,2.15-1.36,4.76-2.22,8l5.16-5.73C179.84,34.76,179.31,39.1,179.75,43.17Z"/>
    <path class="cls-8"
          d="M179.61,57l1,2.71-4.55.25c-1,1.12-2.3,2.84-3.81,4.37-3.35,3.39-5.76,3.5-9.55.57-1.44-1.11-2.7-2.82-4.31-3.26-2.5-.68-5.22-.5-8.32-.72l3.19-5.65L154.37,57Zm-5.69,3.13-.25-.81-12.89.61-.08.93c2.82,1.48,4.46,5.28,8.59,4.22Z"/>
    <path class="cls-9" d="M25.78,42.63l7.34.34,1.83,4.66-9-4.34Z"/>
    <path class="cls-10" d="M83.51,363.36l-1.39,5.06L68,365.81v-4.14Z"/>
    <path class="cls-11" d="M66,375.39v-4.55l14.77,2.51-1.2,4Z"/>
</svg>