<svg id="Layer_1" data-name="Layer 1" xmlns="http://www.w3.org/2000/svg" viewBox="0 0 1367 419.42">
    <defs>
        <style>.cls-1{fill:#c92323;}.cls-2{fill:#fff;}</style>
    </defs>
    <title>MRF</title>
    <path class="cls-1"
          d="M39,358.21v-69H95.7l59-157H77l-.82-71,219.47,1,37.87,119.26L369.44,61.21H816.71c42.74,1,73.79,4.65,90.18,21.52,45.93,44.45,27.86,151.25-35.3,157.36l45.08,48.12H1006l1.71-156H952v-71h376v121h-85v-50H1101.54l.84,37H1211v70l-112-1v51h61v69H855l-108.36-117H694v48l45-1v70H421v-70h37L422.11,203,368.79,358.21H286.13l-51.44-157-33.55,87H233v70Z"/>
    <path class="cls-2" d="M694,132v37H819.28c21-1,21-37,0-37Z"/>
    <path class="cls-2" d="M571.81,288,501.23,132H602l.86,156Z"/>
</svg>