<svg id="Layer_1" data-name="Layer 1" xmlns="http://www.w3.org/2000/svg" viewBox="0 0 1367 419.42">
    <defs>
        <style>
            .cls-1{fill:#231917;}.cls-2{fill:#e50113;}.cls-3{fill:#231816;}.cls-4{fill:#221916;}.cls-5{fill:#e40113;}.cls-6{fill:#888;}.cls-7{fill:#898989;}
        </style>
    </defs>
    <title>Nankang</title>
    <path class="cls-1"
          d="M1348,129.91l-15,31.24c-.43.89-.88,1.76-1.42,2.84h-88l-25.84,55h47.11l4.74-10h-40.75l16.47-35h81.58l-37.59,80h0c-30.87,0-61.74,0-92.61-.06a33.85,33.85,0,0,1-9.9-1.45c-12.05-3.79-17.4-16.42-11.85-28.43,11.06-23.92,22-47.91,33.74-71.5,7.32-14.69,20.38-23.08,36.56-23.45,34.23-.77,68.5-.18,102.75-.15Z"/>
    <path class="cls-2"
          d="M19.1,254l-.2-.32c5.87-12.41,11.79-24.8,17.6-37.24q25.15-53.87,50.25-107.77a47.09,47.09,0,0,1,3.37-5.81c4.81-7.33,11.05-11.79,20.57-9.77-7.61,3.55-11.75,10.06-15.1,17.24L30.16,250.65c-.52,1.12-1.09,2.22-1.65,3.35Z"/>
    <path class="cls-1"
          d="M354.13,255h-41l59.68-127H406.1s16.49,42.12,25.07,63.62c10-21.31,29.57-62.62,29.57-62.62h40.61L442.6,254H408.82s-16.49-41.5-25-63C373.74,212.44,354.13,255,354.13,255Z"/>
    <path class="cls-3"
          d="M1136.38,191.62c10-21.37,29.53-62.62,29.53-62.62h40.62l-58.75,125H1114s-16.44-41.37-25-63c-10.12,21.5-29.66,64-29.66,64h-41L1078,128h33.22S1127.77,170.08,1136.38,191.62Z"/>
    <path class="cls-3"
          d="M655.35,128h33.17s16.61,42.28,25.14,63.62c10-21.28,29.56-62.62,29.56-62.62h40.6L725.09,254H691.3s-16.44-41.37-25-63c-10.1,21.46-29.65,64-29.65,64h-41Z"/>
    <path class="cls-4"
          d="M1007.76,255H967.2l8.64-24h-44.5L918,254H877.8s.85-1.85,1.32-2.67q27.1-47,54.22-94.09c8.16-14.18,19.71-24,35.83-27.9a28.92,28.92,0,0,1,6.67-.68q25.31-.08,50.62,0c13.79,0,21.51,9.52,18.28,23-1.39,5.78-3.73,11.33-5.77,16.95q-15.07,41.53-30.22,83C1008.47,252.43,1007.76,255,1007.76,255Zm-7.57-91h-30l-18.39,32H988.5Z"/>
    <path class="cls-3"
          d="M585,255H544.52l8.67-24h-44.5l-13.34,23H455.4a2.71,2.71,0,0,1,.1-1c19.15-33.17,38.15-66.42,57.58-99.43,7.47-12.69,18.95-20.65,33.32-24.17a30.31,30.31,0,0,1,7-.69q25.11-.08,50.22,0c14,0,22.09,9.84,18.21,23.28-3.62,12.55-8.48,24.75-12.94,37.06-7.64,21.1-15.39,42.17-23.1,63.25C585.62,252.8,585,255,585,255Zm-56-59h36.91l11.59-32h-30Z"/>
    <path class="cls-3"
          d="M873.35,254H829.11L809.3,209H799.08l-21.19,45H737.46L796.2,129h40.58L815.7,174h5.78c19.74-14.27,39.64-28.68,59.59-43a8.17,8.17,0,0,1,4.3-1.7c16.4-.12,32.8-.08,49.21-.07a12.11,12.11,0,0,1,1.72.38l-88.7,64.57Z"/>
    <path class="cls-5"
          d="M178.79,103.42,185,96.08l34,72.88c1.3-2.69,2.34-4.76,3.32-6.86,8.17-17.56,16.28-35.15,24.55-52.67a47.56,47.56,0,0,1,4.61-7.83c5.81-7.92,10.4-9.85,20.11-8.59-7.37,2.92-11.55,8.82-14.65,15.39-11,23.35-21.83,46.81-32.71,70.23a6.82,6.82,0,0,0-.25,1l3.9,8.45c3-6.4,5.77-12.23,8.5-18.08q14.25-30.55,28.49-61.11a39.72,39.72,0,0,1,3.11-5.45c4.77-7,9.38-12.07,21.44-10.58-8.9,4.06-13,11.64-16.66,19.57q-20,42.92-40,86l4.07,8.7c2.75-5.86,5.25-11.17,7.72-16.48q18.88-40.54,37.77-81.08a53.25,53.25,0,0,1,3.26-5.89c4.89-7.74,11.22-12.77,21.38-10.68-8.52,3.75-12.56,11.2-16.18,19q-23.91,51.4-47.85,102.8c-.42.9-.8,1.82-1.23,2.79l3.89,8.32c.68-1.25,1.15-2,1.53-2.82q25.86-55.47,51.71-110.93a81.89,81.89,0,0,1,4.55-8.59c4.75-7.65,11-12.64,21.06-10.57-8.73,4.07-12.63,11.92-16.37,20q-28.1,60.38-56.28,120.72c-.42.9-.78,1.82-1.24,2.9l3.84,8.31c.88-1.53,1.6-2.59,2.13-3.72q30.13-64.61,60.26-129.23a72.15,72.15,0,0,1,5.37-9.82c4.72-7,10.92-11.21,20.14-9-7.39,3.24-11.51,9.38-14.7,16.22Q294.87,179.11,262.36,249c-.78,1.67-1.61,3.32-2.43,5h-11Z"/>
    <path class="cls-2"
          d="M46,254H36.56c4.7-10.14,9.23-19.95,13.79-29.74Q77,167.08,103.66,109.92a52.59,52.59,0,0,1,3.67-6.69c4.84-7.36,11-12.35,20.83-10.13-7.89,3.64-12,10.56-15.48,18q-33,70.85-66,141.69C46.5,253.17,46.31,253.48,46,254Z"/>
    <path class="cls-2"
          d="M63.72,254H54.36c.86-2,1.57-3.78,2.38-5.51q32.32-69.33,64.65-138.65c2.61-5.59,5.85-10.67,10.86-14.54,4.06-3.14,8.62-2.75,14-2.56-11.46,5.55-14.92,16.33-19.53,26.18q-31.07,66.4-61.95,132.89C64.5,252.49,64.15,253.14,63.72,254Z"/>
    <path class="cls-2"
          d="M99.25,254H89.79c5-10.84,9.89-21.34,14.78-31.82Q130.71,166.09,156.89,110a57.61,57.61,0,0,1,3.58-6.57C165.21,96,171.28,91,181.22,93.08c-8.48,4.1-12.4,11.76-16.09,19.68q-32.12,69-64.31,138C100.31,251.84,99.76,252.94,99.25,254Z"/>
    <path class="cls-2"
          d="M81.49,254H72c2.46-5.34,4.76-10.4,7.11-15.44q30.06-64.5,60.14-129c.62-1.34,1.73-3.49,2.49-4.75,5-8.27,11.21-14.13,21.81-11.82-8,3.66-12,10.69-15.49,18.14q-32.74,70.19-65.42,140.41Z"/>
    <path class="cls-2" d="M169.79,122.27,174.6,112l66.14,142h-9.59Z"/>
    <path class="cls-2" d="M223,254h-9.59L160.92,141.29,165.71,131Z"/>
    <path class="cls-6"
          d="M1097.31,311.62c1.31,4.64,4,14.38,4,14.38h-12.39l-4.69-14H1075l-6.54,14h-12.7s11-24,16.42-35.82c10.72,0,21.31-.3,31.87.12,5.82.23,8.11,4.59,6.44,10.49C1108.65,307.49,1105.77,309.89,1097.31,311.62Zm5.18-13.46c-6.89-2.06-13.87-.52-20.74-1l-3.73,8.19c6.59,0,12.65,0,18.72,0C1101.22,305.31,1102.53,303.9,1102.49,298.16Z"/>
    <path class="cls-6"
          d="M751,326c5.57-12.26,11-24,16.43-35.77,10.74,0,21.34-.34,31.9.13,5.94.26,8,4.23,6.44,10-2,7.18-5,9.83-13.24,11.16.65,2.38,1.28,4.71,1.94,7s2.08,6.4,2.08,6.4H784.09l-4.72-14h-8.88l-7,15ZM798,298.72c-6.82-3.2-14-.73-21-1.69l-3.79,8.29c6.55,0,12.5,0,18.45,0C796.29,305.31,797.15,304.54,798,298.72Z"/>
    <path class="cls-6"
          d="M1156.72,315.4c-7.53,9.25-16.79,12.59-28,10.1a4.55,4.55,0,0,1,.25-1.19c5.21-11.32,10.44-22.64,15.75-34.32h7.61c-3.57,8.32-7,16.21-10.5,24.09l.57.45,13.42-10.27c1.19-.91,2.36-1.85,3.59-2.7,2.81-1.95,4.35-1.55,5.77,1.68,1.63,3.72,3.1,7.51,5,12.08,4.09-8.78,7.85-16.85,11.69-24.32h7.58c-5.53,11.27-10.95,23.11-16.3,34.79C1159.95,326.14,1161.65,327.45,1156.72,315.4Z"/>
    <path class="cls-6"
          d="M815.8,317.72c2.48.58,4.36,1.37,6.26,1.41,7.19.15,14.39.06,22.27.06l-3,6.47c-10.43,0-20.61.14-30.77-.05-5-.1-8.06-4.19-6.68-9,2.28-8,6.06-15.3,12.44-20.93a19.24,19.24,0,0,1,12.63-5.15c8.91-.13,17.82,0,26.73,0a10.16,10.16,0,0,1,1.7.35l-2.84,6.34c-7.68,0-15.22,0-22.76,0-5.18,0-8.76,2.69-10.49,7.81h29.57l-2.77,6h-30Z"/>
    <path class="cls-6"
          d="M892,319.26l-3,6.56c-10.76,0-21.44.19-32.12-.08-4.83-.12-6.74-2.9-6.36-7.72,1.2-15,15.15-28,30.15-28h24.89l-3.13,6.88c-7.76,0-15.48,0-23.19,0A10.5,10.5,0,0,0,868.71,305h30l-2.79,6H865.37l-2.54,6.12c2.31.81,4.21,2,6.14,2.05C876.41,319.4,883.87,319.26,892,319.26Z"/>
    <path class="cls-2" d="M152,160.25l4.84-10.19L205.29,254h-9.6Z"/>
    <path class="cls-6"
          d="M982.58,326.31c-3.37,0-6.74.14-10.1,0-5.84-.31-8.58-3.63-7-9.21,2.41-8.36,6.31-16,13.13-21.76a20.07,20.07,0,0,1,13.76-4.87c4.61.09,9.23,0,13.84,0,6.37.1,9.51,3.3,8.48,9.43a38.87,38.87,0,0,1-10.06,20.9,18.29,18.29,0,0,1-13.1,5.5C988.57,326.38,985.57,326.32,982.58,326.31Zm23.83-29.23c-8,.32-16.21-2.36-21.59,5.63-3.3,4.91-7.22,9.79-5.56,17,7.44-.9,15.29,2.68,20.84-4.7C1004,309.9,1007.65,304.62,1006.41,297.08Z"/>
    <path class="cls-6"
          d="M1219.86,326h-7.81l1.51-10h-18l-6,9h-12.86s15.65-23.16,23.48-35.14c8.48.64,16.88-.86,26,1.1C1224,302.91,1219.86,326,1219.86,326ZM1215,310l2.1-13h-8.81l-8.43,13Z"/>
    <path class="cls-6"
          d="M1060,290h7.76c-.44,1.29-.75,2.32-1.19,3.29-3,6.46-5.91,12.93-8.95,19.35-4.18,8.83-10.88,13.7-21,13.38-5.24-.17-10.49,0-15.74,0-7-.12-10-4-7.5-10.52,3.36-8.57,7.42-16.86,11.2-24.45h12.63c-3,5.66-5.78,11.88-8.63,18.08-4.35,9.48-3.83,10.1,6.48,10.37,8,.21,13.24-2.88,16.22-10.45C1053.82,302.62,1057,296.52,1060,290Z"/>
    <path class="cls-7"
          d="M763.23,290.1,760.14,297c-7.76,0-15.49-.06-23.21,0-5.28.05-9.08,2.89-10.72,8h30l-2.71,6H723.09L716,326H703.38c5.42-10.09,8-21.18,16.21-29.25a22,22,0,0,1,16.15-6.67C744.68,290.15,753.64,290.1,763.23,290.1Z"/>
    <path class="cls-2" d="M187.56,254H178l-34.78-74.68L148,169.06Z"/>
    <path class="cls-6"
          d="M1274.54,290.12c-8.5,5.44-16.5,10.39-24.28,15.65a19.35,19.35,0,0,0-5.48,5.89c-2.79,4.61-5.13,9.5-7.68,14.33h-12.65c2.33-4.55,4.67-8.72,6.58-13.07a10.11,10.11,0,0,0,.72-5.62c-.88-5.7-2.14-11.35-3.31-17.31H1241l1.49,12.82c5.59-3.29,11-6,15.87-9.46S1268.16,289.09,1274.54,290.12Z"/>
    <path class="cls-6"
          d="M943.4,326H930.76l8-15.72-4-20.28h12.41l1.6,12.74c5.84-3.42,11.54-6.33,16.76-9.94,4.51-3.12,9.2-3.43,15.14-2.74-1.74,1.18-2.88,2-4.07,2.77-4,2.57-7.9,5.46-12.15,7.59a36.35,36.35,0,0,0-18.4,20.32A52.4,52.4,0,0,1,943.4,326Z"/>
</svg>