<svg id="Layer_1" data-name="Layer 1" xmlns="http://www.w3.org/2000/svg" viewBox="0 0 1367 419.42">
    <defs>
        <style>.cls-1{fill:#fee102;}.cls-2{fill:#ed1c24;}</style>
    </defs>
    <title>Pirelli</title>
    <path id="path3502" class="cls-1" d="M0,419.42H1367V0H0Z"/>
    <path id="path3506" class="cls-2"
          d="M369.42,353.17h83.34V306.86h20.45l25.54,46.31h99.55L561.47,303c41.75-20.14,38.31-103.38-25.36-101H369.42V353.17"/>
    <path id="path3508" class="cls-2" d="M43.45,353.17H188V178.73H1297c72.53-7.67,56.81-106.26,0-104.32H43.45V353.17"/>
    <path id="path3510" class="cls-1"
          d="M188,113.52v25.9h952.39c13.72-4.8,12.75-22.54,0-25.9-1.94-.47-952.39,0-952.39,0"/>
    <path id="path3512" class="cls-2" d="M237.47,353.17H320.3V202H237.47Z"/>
    <path id="path3514" class="cls-1" d="M452.77,268.49V240.4H485c30,0,30.48,28.09.5,28.09H452.77"/>
    <path id="path3516" class="cls-2"
          d="M634.47,202V353.17H815.41V315H719.28V294.87h86.31V257.65H719.81V240.4H809V202H634.47"/>
    <path id="path3518" class="cls-2" d="M859.64,202V353.17h163.22V314.55H944.92V202H859.64"/>
    <path id="path3520" class="cls-2" d="M1044.19,202V353.17h163.19V314.55h-77.91V202h-85.28"/>
    <path id="path3522" class="cls-2" d="M1232,353.17h82.85V202H1232Z"/>
</svg>