<svg id="Layer_1" data-name="Layer 1" xmlns="http://www.w3.org/2000/svg" viewBox="0 0 1367 419.42">
    <defs>
        <style>.cls-1{fill:#1969bb;}.cls-2{fill:#7b7979;}</style>
    </defs>
    <title>Toyo</title>
    <path class="cls-1"
          d="M244.84,90.72c13.43.92,26.8,1,39.88,4.18,12.19,3,22.67,8.5,28.19,20.65,3.46,7.61,4.29,15.71,3.58,23.9a155.72,155.72,0,0,1-21.21,66.23c-7.11,12.11-18,18.67-31.06,22.37-13.95,4-28.26,4.88-42.67,4.82-14.59-.05-29.23.55-43.68-2.14a70,70,0,0,1-11.43-3.07c-14.15-5.22-22-16.73-22.29-33.54-.43-28,8.12-53.46,23.38-76.61,9.29-14.09,23.68-20.79,39.85-23.21C219.78,92.44,232.35,91.87,244.84,90.72Zm10.09,65.08c.26-12.33-3.06-17.21-11.2-19.19A23.45,23.45,0,0,0,239,136c-12.9-.46-20.46,1.06-26.58,15a137.27,137.27,0,0,0-8.22,25.67c-2.73,12.48,4.32,20.51,17.11,20.53a68.64,68.64,0,0,0,10.44-1,16.69,16.69,0,0,0,11.74-7.91C250.46,177.58,254.27,165.79,254.93,155.8Z"/>
    <path class="cls-1"
          d="M564.63,90.72c14.1,1,28.13,1,41.84,4.68,19.65,5.27,29.53,17.58,29.85,37.89.29,18.4-4.59,35.78-11.38,52.66-2.27,5.64-5.19,11-7.92,16.46-6.89,13.76-18.29,22.11-32.94,25.48-10.52,2.42-21.36,4.33-32.11,4.64-16.6.47-33.26-.21-49.84-1.29-6.49-.42-13.13-2.52-19.15-5.12-12.53-5.43-17.71-16.25-18.73-29.23C462.6,176.16,468,156.74,476.17,138a126.06,126.06,0,0,1,10.75-19.94c9.53-14.23,23.82-21.3,40.25-23.78C539.56,92.43,552.14,91.87,564.63,90.72ZM541.47,197.36c3-.23,5.52-.3,8-.62,5.23-.69,9.93-2.69,13-7.15,8.12-11.86,12.54-25,12.45-39.44,0-7.12-3.86-11.51-10.8-13.34a25.78,25.78,0,0,0-5.34-.85c-8.87-.41-17.45.35-22.88,8.69a74.91,74.91,0,0,0-12.12,35.53c-.65,8.55,3.77,14.58,11.2,16.37A52.88,52.88,0,0,0,541.47,197.36Z"/>
    <path class="cls-1"
          d="M954.7,229c-8.93-15.17-17.87-30.17-27.29-46-4,15.66-7.82,30.61-11.69,45H859.3c12-43.15,24-86.95,35.93-130.79A14.84,14.84,0,0,1,897,97q54.9,0,109.8.14a55.59,55.59,0,0,1,11,1.36,20.69,20.69,0,0,1,16.11,16.45,62.42,62.42,0,0,1-3.17,35.43c-6.41,15.84-18.85,23.37-35.56,24.35-4,.23-7.94,0-12.54,0,12.85,18.26,25.32,36,38.06,54.26Zm-20.61-68.67c9.81,0,19.18.52,28.47-.15,9.05-.66,14.3-6.44,15.77-15.46,1.06-6.53-2-11.24-8.58-11.59-9.45-.5-18.94-.13-28.67-.13Z"/>
    <path class="cls-1"
          d="M1187,193.15c9.54.9,18.64,2.13,27.78,2.53,14.8.66,29.62.87,44.44,1a19.21,19.21,0,0,0,7.44-2c3.21-1.39,4.18-4.23,3.77-7.6-.37-3.07-2.66-4.32-5.17-4.53-8.33-.71-16.69-1-25-1.62-7.2-.52-14.55-.47-21.55-2-13-2.8-22.48-11.13-21.09-27.38.61-7.16,1.4-14.52,3.64-21.28,6.15-18.57,18-32,38-35.75a199.19,199.19,0,0,1,31.38-2.91,534.83,534.83,0,0,1,78,3.9c2.35.29,4.69.67,7.51,1.09l-11.79,41.22c-6.13-.62-12.05-1.5-18-1.78q-23.9-1.11-47.81-1.73a35.33,35.33,0,0,0-9,1.33,15.28,15.28,0,0,0-5.13,2.45,5.58,5.58,0,0,0-1.95,6.71,6.64,6.64,0,0,0,4,3.5,50.82,50.82,0,0,0,10.71,1.48c10,.38,19.93.39,29.89.79a53.91,53.91,0,0,1,10.71,1.55c11.31,2.8,16.87,10.67,17.39,21.83.86,18.4-3.65,35.07-18.28,47.52-7.67,6.53-17.27,8.77-27,9.86-23.27,2.59-46.6,1.92-69.88.22-12.62-.92-25.17-2.79-37.75-4.25-1.1-.13-2.19-.43-3.55-.71Z"/>
    <path class="cls-1"
          d="M1109.09,137l-3.8,15h79.62l-7.25,28h-81.54l-3.78,14h82.55l-9.26,36h-138.7l34.82-135h138.35l-11,42Z"/>
    <path class="cls-1"
          d="M423.64,96h66.42L393.32,229H324.38L347,198.36,319.06,95h63s4.76,38.46,7.15,57.59l.76.16C401.18,133.58,423.64,96,423.64,96Z"/>
    <path class="cls-1" d="M107.67,139,84.28,229H26l23.07-89H10.78L23,95H157.23l-11.9,44Z"/>
    <path class="cls-1" d="M806.4,140h-38l-23.15,89H686.84l23.34-90H672.29l11.92-44H818.61Z"/>
    <path class="cls-1" d="M791.62,229,827.14,95h57.64L848.33,229Z"/>
    <path class="cls-2"
          d="M952.6,281.57c-2.77,10.23-8.3,31.43-8.3,31.43h-8.56l8.6-32H932l-8.36,31h-8.37l9.95-37H927c10.4,0,20.8-.08,31.19.05a36.72,36.72,0,0,1,8.94,1.13c4.87,1.3,7.05,4.95,5.85,9.81-2.1,8.53-4.5,17-6.78,25.47a2.29,2.29,0,0,1-.35.54h-8.29s2.33-8.4,3.47-12.67c1-3.85,2.1-7.69,3.1-11.55,1.1-4.19-.34-6.1-4.69-6.2C957.25,281.53,955,281.57,952.6,281.57Z"/>
    <path class="cls-2"
          d="M396.87,276.78,402,258h8.27c-.21,1-.36,2-.6,2.87q-5.46,20.24-10.94,40.47c-1.94,7.16-6.34,10.63-13.77,10.74-4.72.07-9.44.08-14.15,0a15.66,15.66,0,0,1-4.41-.77c-4.66-1.49-6.81-5.23-5.65-9.95,1.33-5.39,2.65-10.79,4.34-16.08,2.2-6.93,7.65-9.92,14.47-10.45a78.68,78.68,0,0,1,12.15.27C393.39,275.24,395.05,276.17,396.87,276.78Zm-18.52,29.76,0-.21c1.25,0,2.5.07,3.74,0,3.66-.25,7-1.28,8.19-5.21,1.47-4.81,2.74-9.68,3.92-14.57a4,4,0,0,0-3.62-5.26,53,53,0,0,0-9.59-.18c-4.38.35-7.16,2.9-8.29,7.19-1.07,4-2.2,8.07-3.22,12.13-.71,2.81.44,4.87,3.22,5.53A43.17,43.17,0,0,0,378.35,306.54Z"/>
    <path class="cls-2"
          d="M694.1,310.75l-5,18.25h-8.4c.89-3.34,1.74-6.59,2.62-9.83,2.84-10.54,5.84-21,8.49-31.61,1.94-7.76,7.63-11.78,15.11-12.28a83.8,83.8,0,0,1,15.11.28c6.76.78,9.61,5.35,7.95,11.9q-2,7.79-4.21,15.51c-1.73,6-6.18,9.27-12.92,9.52-4.32.16-8.66.21-13,0C698,312.36,696.23,311.41,694.1,310.75Zm11.76-4.22v-.21c1.25,0,2.5.08,3.74,0,3.75-.28,7-1.43,8.2-5.47q2-7.06,3.78-14.2c.74-3-.56-5.09-3.71-5.42a51.61,51.61,0,0,0-9.59-.1c-4.5.37-7.2,3.1-8.33,7.41-1,3.92-2.07,7.83-3.06,11.76-.72,2.88.45,5,3.32,5.66A44.52,44.52,0,0,0,705.87,306.53Z"/>
    <path class="cls-2"
          d="M774.11,296H744.54c-2.47,5,0,9.07,5.94,9.62,5.34.49,10.74.29,16.11.39,1.17,0,2.34,0,3.88,0L769,311.89c-.54.05-1,.14-1.56.14-6.17,0-12.34.19-18.49-.12a24.35,24.35,0,0,1-8.29-2c-4.5-2-6.53-6.38-5.42-11.21,1-4.45,2.18-8.89,3.53-13.25,1.88-6.09,6.51-9.53,12.5-10.24a82,82,0,0,1,17.42,0c5.73.55,9.06,5.15,8.22,10-.11.64-.27,1.28-.44,1.91C775.71,290,774.94,292.87,774.11,296Zm-28-6h21.17c.25-.94.49-1.75.69-2.57.88-3.61-.83-6.1-4.55-6.36a55.3,55.3,0,0,0-7.66-.09C749.57,281.41,747.1,283.79,746.11,290Z"/>
    <path class="cls-2"
          d="M529.62,311.91c-7.43,0-14.69,0-22,0a13.94,13.94,0,0,1-4-.91c-6.58-2.14-9.28-7.09-7.53-13.75.8-3,1.8-6,2.45-9.08,1.7-8,6.77-12.27,14.59-13.17,5.7-.65,11.52-1,17.19.43s8.2,5.5,6.87,11.21c-.72,3.1-1.62,6.17-2.48,9.39H505.17c-2.3,5.18.11,9.24,6,9.66s11.52.28,17.28.38c.83,0,1.67,0,2.72,0ZM527.88,290c.27-1,.53-1.76.73-2.57.9-3.71-.83-6.19-4.65-6.44a57.71,57.71,0,0,0-7.64-.08c-6.1.41-8.58,2.83-9.59,9.09Z"/>
    <path class="cls-2"
          d="M645.44,312.55c-3.39-.21-6.85-.08-10.16-.7-5.74-1.07-8.17-5.25-6.73-10.93,1.29-5.06,2.56-10.14,4-15.15a13.74,13.74,0,0,1,12.17-10.3,90.36,90.36,0,0,1,18-.06c6.09.54,9,5.1,7.6,11.07-1.3,5.6-2.77,11.16-4.45,16.66-1.8,5.9-6.36,9-13,9.15-2.49.07-5,0-7.47,0Zm.63-6,0-.21c1.25,0,2.5.08,3.74,0,3.64-.28,7-1.24,8.18-5.21q2.18-7.22,4-14.56c.71-2.93-.66-5-3.7-5.3a55.33,55.33,0,0,0-10.17,0c-3.89.35-6.47,2.76-7.55,6.49-1.24,4.27-2.31,8.58-3.36,12.9-.65,2.68.56,4.73,3.25,5.33A46.85,46.85,0,0,0,646.07,306.53Z"/>
    <path class="cls-2"
          d="M858,312.55c-3.39-.21-6.84-.09-10.16-.69-5.72-1-8.2-5.28-6.77-10.91,1.19-4.69,2.49-9.34,3.71-14,1.8-6.88,6.4-10.89,13.28-11.54a89.48,89.48,0,0,1,17.42.06c6.06.62,8.84,5.24,7.4,11.23-1.28,5.33-2.72,10.63-4.26,15.89-1.86,6.34-6.29,9.55-13.14,9.74-2.49.07-5,0-7.47,0Zm.51-6v-.19c1.25,0,2.5.08,3.74,0,3.63-.27,7-1.17,8.25-5.12,1.48-4.8,2.79-9.67,4-14.55.74-3.07-.61-5.12-3.77-5.42a54.32,54.32,0,0,0-10,0c-4,.35-6.59,2.79-7.69,6.61-1.21,4.2-2.28,8.45-3.29,12.71-.69,2.92.56,4.88,3.5,5.49A47.24,47.24,0,0,0,858.55,306.51Z"/>
    <path class="cls-2"
          d="M576.06,312h-8.47c1.77-6.33,3.51-12.82,5.25-19.31.51-1.89,1.05-3.78,1.47-5.69.75-3.47-.61-5.31-4.2-5.4-4.65-.12-9.31,0-14.24,0-2.75,10.19-5.52,20.43-8.29,31.43h-8.43c3.33-13.08,6.61-25.28,10-37.92,8.85.33,17.65.22,26.34,1.14,6.47.68,8.77,5,7.12,11.37C580.49,295.8,578.26,304,576.06,312Z"/>
    <path class="cls-2"
          d="M847,258l-1.58,5.92h-6.2c-5.66,0-8.88,2.51-10.37,8-.25.94-.5,1.88-.82,3.1h12.21l-1.62,6H826.41l-8.35,31h-8.43c1.68-6.26,3.36-12.45,5-18.65,2.06-7.68,4.09-15.37,6.17-23a16.72,16.72,0,0,1,15-12.32C839.43,257.75,843.07,258,847,258Z"/>
    <path class="cls-2"
          d="M497.7,276l-22.46,36H463.41l-4.06-37h8.23s2.18,20.14,3.33,30.58c6.46-10.34,18.83-29.58,18.83-29.58Z"/>
    <path class="cls-2"
          d="M619,306.37l-1.65,6c-3.11,0-6.13.23-9.1,0-5.93-.55-9.31-5.28-7.86-11.28,2.19-9.05,4.7-18,7.09-27,.89-3.33,1.81-6.66,2.72-10h8.36l-2.82,11h11.33l-1.61,6H614.25c-.65,2.36-1.29,4.64-1.91,6.92-1.1,4-2.22,8.08-3.28,12.14s.6,6.18,4.76,6.3C615.48,306.41,617.14,306.37,619,306.37Z"/>
    <path class="cls-2"
          d="M436.79,274.93l-1.6,6.31c-2,0-3.92,0-5.87,0-5.9.09-8.93,2.45-10.44,8.1q-2.81,10.5-5.62,21c-.15.55-.35,1.09-.53,1.65h-8.32c1.19-4.46,2.32-8.8,3.49-13.14,1-3.59,2.1-7.15,2.92-10.78,1.63-7.19,6.33-11.21,13.28-12.44C428.12,274.94,432.3,275.15,436.79,274.93Z"/>
    <path class="cls-2"
          d="M811.75,275.51l-1.54,5.79c-2.08,0-4,0-6,0A10.85,10.85,0,0,0,794,289.36c-2,7.51-4,15-6.08,22.64h-8.42c1.14-4.21,2.27-8.35,3.38-12.49s2.15-8.21,3.28-12.31c1.91-6.92,6.81-10.63,13.61-11.6C803.57,275.06,807.55,275.51,811.75,275.51Z"/>
    <path class="cls-2"
          d="M892.91,312h-8.39c1.37-5.15,2.71-10.18,4.06-15.2.83-3.09,1.7-6.18,2.52-9.27a15.72,15.72,0,0,1,13.69-12c3.18-.36,6.41-.26,9.62-.37.71,0,1.42,0,2.46,0l-1.58,6.11c-1.89,0-3.77,0-5.64,0-6.18.08-9.07,2.35-10.67,8.28C897,297,895,304.4,892.91,312Z"/>
    <path class="cls-1" d="M448.42,260.42l42.65-12.62-2.07,8-42.77,13Z"/>
    <path class="cls-2" d="M444.36,276h8.27l-9.68,36h-8.29Z"/>
</svg>