<svg id="Layer_1" data-name="Layer 1" xmlns="http://www.w3.org/2000/svg" viewBox="0 0 1367 419.42">
    <defs>
        <style>.cls-1{fill:#de2027;}.cls-2{fill:#231f20;}</style>
    </defs>
    <title>Yokohama</title>
    <g id="layer1">
        <path id="path2500" class="cls-1"
              d="M18.5,115l94.7,94.7.38.31-.38.5-94.08,94H35.76L130.14,210l-95-95Zm75.14,0L77,115l94.76,94.64.25.31-.25.5-94.08,94H94.33L188.72,210Zm12.63,0,94.64,94.7.38.31-.38.5-94,94h16.63L217.91,210l-95-95Zm29.19,0,94.7,94.7.31.31-.31.5-94,94h16.63c.31-.29,94.76-94.76,94.76-94.76l94.7-94.7H325.55L239.16,201.3l-.31.38-.38-.38-5.56-5.5-.44-.38.44-.38L313,115H296.29l-72.07,72.13-.38-.38-5.56-5.5-.38-.44L283.73,115H267.1L210,172.11l-.44.44-.38-.44-5.56-5.56-.38-.31.38-.38L254.6,115,237.91,115,195.4,157.55l-.44.31-.38-.38L189,152l-.38-.44.38-.38L225.22,115H208.66L180.71,142.8l-.31.44-.38-.44L152.15,115Zm-87.7.06,94.64,94.64.44.31-.44.5-93.89,94H65.07L159.46,210,64.39,115Z"/>
        <path id="path2510" class="cls-2"
              d="M506.13,137.42a73.2,73.2,0,1,0,73.13,73.26A73.26,73.26,0,0,0,506.13,137.42Zm148.64,0-44.26,61.32V137.48H585.46V281.31h25.07V222.06l42.07,59.26h31.5L630.59,210.8l55.63-73.38Zm81.2,0a73.2,73.2,0,1,0,73.2,73.13A73.24,73.24,0,0,0,736,137.42Zm-397.87,1.25,45.32,90.14v53.76h23.69V228.81l45.32-90.14H425.56l-30.25,62.07L365,138.67Zm477.31,0V282.56h25.63v-58.2h51.63v58.2h25.57V138.67H892.68v61H841.05v-61Zm161.52,0L923.81,282.56h26.82l13.31-36.75h51.69l13.13,36.75h26.94l-53.13-143.89Zm84.14,0V282.56h25.63l.44-94.08,36,94.08H1147L1183,188.49l.44,94.08h25.69V138.67h-31.63L1135.15,249l-42.51-110.33h-31.57Zm208.59,0-53.13,143.89h26.94l13.19-36.75h51.69l13.25,36.75h26.88l-53.07-143.89h-25.75ZM736,161.3a49.29,49.29,0,1,1-49.38,49.26A49.22,49.22,0,0,1,736,161.3Zm-229.91.06a49.29,49.29,0,1,1-49.26,49.32A49.28,49.28,0,0,1,506.13,161.36Zm776.42,15.25,18.06,49h-36.19Zm-292.85.06,18.13,48.94H971.69Z"/>
    </g>
</svg>