<svg id="Layer_1" data-name="Layer 1" xmlns="http://www.w3.org/2000/svg" viewBox="0 0 1249 600">
    <defs>
        <style>.cls-1{fill:#101c3f;}.cls-2,.cls-3,.cls-4{font-size:210.62px;font-family:HelveticaNeue-CondensedBlack,
            Helvetica
            Neue;}.cls-2,.cls-5{fill:gold;}.cls-2,.cls-3,.cls-4,.cls-6{stroke:#000;}.cls-2,.cls-3,.cls-4,.cls-6,.cls-7{stroke-miterlimit:1;}.cls-4,.cls-6,.cls-7{fill:#e6e6e6;}.cls-4{letter-spacing:0em;}.cls-6{font-size:82px;font-family:HelveticaNeue-Medium,
            Helvetica Neue;letter-spacing:-0.04em;}.cls-7{stroke:#e6e6e6;}
        </style>
    </defs>
    <title>Blue</title>
    <rect class="cls-1" y="-0.39" width="1249" height="600"/>
    <text class="cls-2" transform="translate(320 342.67) scale(1.04 1)">GOLD</text>
    <text class="cls-3" transform="translate(788.9 412.81) scale(0.6 0.58)">&#160;</text>
    <text class="cls-4" transform="translate(821.98 342.67) scale(1.04 1)">LINE</text>
    <rect class="cls-5" x="331" y="362.61" width="882" height="8"/>
    <text class="cls-6" transform="translate(331 441.18)">TOURS &amp; TYRE CENTRE</text>
    <path class="cls-7"
          d="M474,131.9c-10.76,0-21.51.09-32.26-.14-1.16,0-2.66-1.72-3.36-3-7.3-13.26-15.64-25.75-26.93-36C401,83.25,389.13,76.54,374.51,76.22c-16.11-.35-29,6.94-40.26,17.62-17.11,16.24-27.84,36.61-36.49,58.15C286.59,179.8,280,208.8,275.93,238.43a480.55,480.55,0,0,0-4.61,70.63c.44,46,5.92,91.42,20.54,135.32,8,24.1,18.41,47.06,35.07,66.64,8,9.38,17.2,17.27,28.79,21.81,18.7,7.32,35.48,2.8,50.84-9,9.3-7.16,16.74-16,23.11-25.83a6,6,0,0,1,5.71-3.11c9.12.15,18.25,0,27.37.07,1.18,0,2.37.16,4.48.32-4,7.29-7.46,14.17-11.44,20.72-12,19.68-26.15,37.4-46.37,49.3-22,13-44.85,14-67.63,2.45-17.84-9-31.33-23.2-42.7-39.45-20.15-28.79-32.79-61-41.35-94.73-4.46-17.62-8-35.55-10.71-53.53a504.49,504.49,0,0,1-5-93c1.63-46.44,8.22-92.07,23-136.26,9.31-27.76,21.35-54.21,39.73-77.31,13.38-16.82,29-30.9,50.17-37.08C377,30,397,35,415.44,47.8S447.26,78,458.12,97.29c6.13,10.89,11.35,22.29,17,33.46Z"/>
    <path class="cls-7"
          d="M246.57,578.39a95.21,95.21,0,0,1-26.64-10.74C198.41,555.36,182.28,537.56,169,517c-18.93-29.31-30.74-61.61-39.13-95.25a505.91,505.91,0,0,1-13.56-89.51,554,554,0,0,1,1.08-88.13c4.36-46.56,13.83-91.91,33.22-134.76,11.19-24.73,25.48-47.41,45.49-66.11A135.27,135.27,0,0,1,231,19.7c6.1-2.88,12.28-1.56,19.57-1.92-2.85,2.64-4.81,4.51-6.82,6.32C215.9,49.15,195,79.27,179.16,113c-17.74,37.77-28.17,77.64-33.52,119a491.28,491.28,0,0,0-3.78,83.1c2.25,55.55,12,109.65,32.88,161.41,11.92,29.51,27,57.22,48.93,80.61C230.72,564.56,238.75,571.15,246.57,578.39Z"/>
    <path class="cls-7"
          d="M196.44,568.53c-37.23-5.35-70.24-17.84-98.41-42,15.64-1.84,29.63,4.46,44.17,8.57C108,515.89,77.14,493,56.39,458.91l.65-1.33c5.08,1.28,10.23,2.33,15.22,3.86,23.08,7.09,43,19.78,61.35,35.15,23.32,19.56,43.06,42.37,60.18,67.48C194.54,565.18,195.16,566.37,196.44,568.53Z"/>
    <path class="cls-7"
          d="M37.12,402.42c49.32.09,96.53,32.73,108.47,93.6-3.16-2.72-5.78-4.93-8.36-7.21-18.62-16.48-39.1-29.69-63.65-35.46-5.89-1.38-12-1.91-17.89-3.17-1.74-.37-4.22-1.57-4.68-2.95-4.89-14.61-9.44-29.33-14.07-44C36.88,403,37.06,402.69,37.12,402.42Z"/>
    <path class="cls-7"
          d="M110.16,374.46C91.35,350,65.41,338.13,36.11,332.09c-8.19-1.69-8.36-1.71-8.3-10,.09-12.28.49-24.55.7-36.83,0-2.74.86-4.19,3.95-3.47,18.82,4.41,36.84,10.55,51.92,23.29,13.9,11.74,21.77,26.91,24.8,44.59,1.38,8.05,1.68,16.29,2.47,24.44Z"/>
    <path class="cls-7"
          d="M28.17,272c.5-6.82.79-13.26,1.48-19.65.82-7.67,2-15.31,3-23,.71-5.55.67-5.55,6.16-5.1,11.48.93,22.63,3.22,33.13,8.14,18.43,8.63,28,23.87,30.46,43.35,1.41,11.13.72,22.53.89,33.8,0,1.34-.46,2.68-.92,5.16-7.55-14.18-17.7-24.51-31.08-31.58S43.71,273,28.17,272Z"/>
    <path class="cls-7"
          d="M184.31,134.51a53.62,53.62,0,0,1,7.13-20.86c9.78-17.34,24.52-29.72,41.15-40a200.72,200.72,0,0,1,71-27.3c2.44-.43,4.92-.61,7.39-.87.22,0,.46.2,1.15.51-3.3,4.16-6.74,8.07-9.71,12.31-8.79,12.53-17.34,25.23-26.15,37.74a7,7,0,0,1-4.49,2.55c-24.78,2.38-48.36,8.51-69.43,22.26C196.25,124.84,190.7,129.64,184.31,134.51Z"/>
    <path class="cls-7"
          d="M168.2,195.66c-1.63-44.93,54-91.58,101.92-85.48-2,5-3.91,9.95-5.87,14.85-4,10.1-8,20.22-12.25,30.25-.55,1.31-2.22,3-3.47,3.05-30.74,2.13-57.05,13.81-78.62,35.94C169.54,194.65,169.09,194.94,168.2,195.66Z"/>
    <path class="cls-7"
          d="M228,345.53l1.42,13c1.14,10.42,2.21,20.86,3.48,31.26.32,2.61-.41,3.58-3,4.25a85.54,85.54,0,0,0-27.42,12.27c-12.18,8.41-20.54,19.49-23.52,34.3l-1.31.41c-3.51-6.85-7.68-13.44-10.41-20.59-8.43-22.11-3.33-39.72,15.36-54.27C195.9,355.84,211.42,350.25,228,345.53Z"/>
    <path class="cls-7"
          d="M29.11,341.79c45.36-2.51,83.25,36.25,93.23,85-4.59-4.1-8.66-8.12-13.12-11.66C88.17,398.44,64,391,37.25,391.79c-2.9.09-3.32-1.21-3.54-3.24q-1.81-16.66-3.51-33.33C29.76,350.85,29.49,346.46,29.11,341.79Z"/>
    <path class="cls-7"
          d="M51.21,157c1.88-6.18,3.18-12.12,5.49-17.64,3.87-9.26,8.37-18.25,12.61-27.36,1-2.2,2.65-3,5.17-3.22,18.75-1.7,36.25,9.66,43,28.4,6.53,18.2,5.32,36.31-1.2,54.26a29.2,29.2,0,0,1-1.41,2.74C100.25,170.44,78.43,159.68,51.21,157Z"/>
    <path class="cls-7"
          d="M205.44,501.63c-14-13.08-23.91-36.64-18-56.83s26.3-36.65,49-39.06l14.81,51.6c-12.36.38-23.24,4-31.78,13C211.21,479,207.1,489.66,205.44,501.63Z"/>
    <path class="cls-7"
          d="M278,518.2c-23.3,4.46-30.23,21.16-30.18,44.09-3.93-2.91-7.38-5-10.31-7.7-13.19-12.06-21-27-22.14-44.91-1.4-21,10.72-36.07,31.78-40.47,1.22-.25,2.45-.44,3.65-.72,2.49-.58,4,.12,5.15,2.67C263.15,486.79,270.54,502.33,278,518.2Z"/>
    <path class="cls-7"
          d="M227.37,335.5c-29,2.94-52,15.85-68.85,41.17-3-20.52-2.14-39.33,8.72-56.32,14.24-22.27,36.6-30.59,61.88-34.78Z"/>
    <path class="cls-7"
          d="M248.27,168.34c-2.23,8.41-4.23,16-6.26,23.53-1.64,6.13-3.4,12.22-4.94,18.37-.59,2.35-1.63,3.28-4.18,3.53-31.25,3.17-56,17.8-75,42.62a9.18,9.18,0,0,1-1.46,1.08c1.7-23.88,7.33-45.71,24.56-62.76C199.33,176.52,222.8,170.89,248.27,168.34Z"/>
    <path class="cls-7"
          d="M234.93,224.13l-5.57,49.38c-32.29,1.39-57.71,15.07-76.34,42.65-1-13.47.32-25.61,4.59-37.39,7-19.38,20.75-32.81,38.94-41.39,11-5.2,22.89-8.58,34.4-12.73A22.09,22.09,0,0,1,234.93,224.13Z"/>
    <path class="cls-7"
          d="M132.06,133.6c-10-22.86-26-36.72-52.6-38.56,6.56-8.56,12-16.5,18.31-23.7a143.92,143.92,0,0,1,35.5-28.93c3.26-1.93,4.69-1.19,6.47,1.72,6.94,11.42,9.14,23.88,8.28,37-1.14,17.45-6.51,33.76-14.05,49.42C133.57,131.36,133,132.11,132.06,133.6Z"/>
    <path class="cls-7"
          d="M106.48,254.72C91,229,70.77,211.9,37.58,216.84c.89-6.85,1.37-13.55,2.72-20.07,1.48-7.13,3.8-14.08,5.69-21.13.71-2.65,2.11-3.61,5-3.62,32.66-.12,57.23,23.17,58.23,55.82.27,8.85-.65,17.74-1,26.62Z"/>
    <path class="cls-7"
          d="M342,582.86c-8.82,0-18.46.38-28.06-.09-13.35-.66-26.67-1.91-40-3-10.05-.82-12.52-2.9-15.35-12.51-5.54-18.82,2.82-35.08,20.54-40.28,3-.88,4.62-.42,6.36,2.38,11.68,18.89,26.22,35.12,45.12,47.1C334.55,578.94,338.73,581,342,582.86Z"/>
    <path class="cls-7"
          d="M344.38,26.67c-5.61,2.41-11,5.6-16.88,7.05-12,3-24.19,5.28-36.38,7.4-27.73,4.83-53.36,14.55-76,31.61a9.05,9.05,0,0,1-1.07.6l-1-.69c3.92-5.81,7.39-12,11.85-17.36,17.57-21.13,40-31.69,67.79-30.85,15.59.47,31.2.2,46.8.26h4.36Z"/>
    <path class="cls-7"
          d="M214.59,18.26c-25.06,14.34-41.31,35.39-55.11,59.9-.7-16-.64-31.09-13-42.21C161,27.21,196.75,17.75,214.59,18.26Z"/>
</svg>